{
    "asset" : {
        "generator" : "Khronos glTF Blender I/O v1.6.16",
        "version" : "2.0"
    },
    "scene" : 0,
    "scenes" : [
        {
            "name" : "Scene",
            "nodes" : [
                0
            ]
        }
    ],
    "nodes" : [
        {
            "mesh" : 0,
            "name" : "Frame.017",
            "rotation" : [
                0.5,
                -0.5,
                -0.4999999701976776,
                0.5
            ],
            "scale" : [
                10.1328763961792,
                0.2554178237915039,
                0.46058520674705505
            ]
        }
    ],
    "materials" : [
        {
            "doubleSided" : true,
            "emissiveFactor" : [
                0.30000001192092896,
                0.17522357206438244,
                0.02226409255520867
            ],
            "name" : "GOLD.meterial.001",
            "pbrMetallicRoughness" : {
                "baseColorFactor" : [
                    1,
                    0.5840784907341003,
                    0.07421350479125977,
                    1
                ],
                "roughnessFactor" : 0.20000000298023224
            }
        }
    ],
    "meshes" : [
        {
            "name" : "Cube.005",
            "primitives" : [
                {
                    "attributes" : {
                        "POSITION" : 0,
                        "NORMAL" : 1,
                        "TEXCOORD_0" : 2,
                        "TEXCOORD_1" : 3
                    },
                    "indices" : 4,
                    "material" : 0
                }
            ]
        }
    ],
    "accessors" : [
        {
            "bufferView" : 0,
            "componentType" : 5126,
            "count" : 132,
            "max" : [
                1.0214276313781738,
                0.24537044763565063,
                22.471412658691406
            ],
            "min" : [
                -1.0214276313781738,
                -1.7122063636779785,
                -22.471410751342773
            ],
            "type" : "VEC3"
        },
        {
            "bufferView" : 1,
            "componentType" : 5126,
            "count" : 132,
            "type" : "VEC3"
        },
        {
            "bufferView" : 2,
            "componentType" : 5126,
            "count" : 132,
            "type" : "VEC2"
        },
        {
            "bufferView" : 3,
            "componentType" : 5126,
            "count" : 132,
            "type" : "VEC2"
        },
        {
            "bufferView" : 4,
            "componentType" : 5123,
            "count" : 312,
            "type" : "SCALAR"
        }
    ],
    "bufferViews" : [
        {
            "buffer" : 0,
            "byteLength" : 1584,
            "byteOffset" : 0
        },
        {
            "buffer" : 0,
            "byteLength" : 1584,
            "byteOffset" : 1584
        },
        {
            "buffer" : 0,
            "byteLength" : 1056,
            "byteOffset" : 3168
        },
        {
            "buffer" : 0,
            "byteLength" : 1056,
            "byteOffset" : 4224
        },
        {
            "buffer" : 0,
            "byteLength" : 624,
            "byteOffset" : 5280
        }
    ],
    "buffers" : [
        {
            "byteLength" : 5904,
            "uri" : "data:application/octet-stream;base64,"
        }
    ]
}
