<?xml version="1.0" encoding="utf-8" ?>
<svg baseProfile="full" height="1000px" version="1.1" width="1000px" xmlns="http://www.w3.org/2000/svg" xmlns:ev="http://www.w3.org/2001/xml-events" xmlns:xlink="http://www.w3.org/1999/xlink"><defs><clipPath id="border_clip"><rect height="1000" width="1000" x="0" y="0" /></clipPath></defs><polyline clip-path="url(#border_clip)" fill="none" points="500.5,500.5 500.5,500.5 -9.5,-9.5" stroke="black" stroke-linecap="round" stroke-width="1" /><polygon clip-path="url(#border_clip)" fill="#494df7" fill-rule="evenodd" points="-9.5,-9.5 1000.5,-9.5 1000.5,1000.5 -9.499999999999943,1000.5000000000001 -9.500000000000114,-9.499999999999886" stroke-width="0" /><polyline clip-path="url(#border_clip)" fill="none" points="-9.5,-9.5 1000.5,-9.5 1000.5,1000.5 -9.499999999999943,1000.5000000000001 -9.500000000000114,-9.499999999999886" stroke="black" stroke-linecap="round" stroke-width="1" /><polygon clip-path="url(#border_clip)" fill="#7d3e4f" fill-rule="evenodd" points="538.9046821376711,8.027203084084249 520.0347742808971,83.710269733612 463.92626985448226,29.526916837810234 538.9046821376711,8.027203084084249" stroke-width="0" /><polygon clip-path="url(#border_clip)" fill="#80826b" fill-rule="evenodd" points="243.00348640378263,950.7188129750009 197.0034864037827,1030.3931501231693 151.00348640378263,950.718812975001 243.00348640378263,950.7188129750009" stroke-width="0" /><polygon clip-path="url(#border_clip)" fill="#b6969d" fill-rule="evenodd" points="514.1550955101594,12.732930301650754 455.69289162304534,26.229993562282743 473.23519390640945,-31.148291795499404 514.1550955101594,12.732930301650754" stroke-width="0" /><polygon clip-path="url(#border_clip)" fill="#7567dd" fill-rule="evenodd" points="83.98412162887485,562.5367755717804 33.65676031650776,637.1501571017341 -5.7966428945093185,556.2586929348092 83.98412162887485,562.5367755717803" stroke-width="0" /><polygon clip-path="url(#border_clip)" fill="#4152c5" fill-rule="evenodd" points="216.62989159705967,818.2291359600092 218.61916290910239,875.1944131000977 168.2911501161435,848.434534021302 216.62989159705967,818.2291359600092" stroke-width="0" /><polyline clip-path="url(#border_clip)" fill="none" points="808.1187038862591,797.1344724406484 307.47704336813746,884.5784836392213" stroke="#08df31" stroke-linecap="round" stroke-width="2" /><polyline clip-path="url(#border_clip)" fill="none" points="937.3882889417471,479.45938481483324 206.1182361999115,365.5146927872852" stroke="#6815df" stroke-linecap="round" stroke-width="7" /><polyline clip-path="url(#border_clip)" fill="none" points="432.1975475368058,265.4565839407077 690.1326834207605,230.28110703532104" stroke="#ae5287" stroke-linecap="round" stroke-width="6" /><polyline clip-path="url(#border_clip)" fill="none" points="661.4543774286078,519.5934897764558 312.69484684251245,460.6483528652235" stroke="#1dd72d" stroke-linecap="round" stroke-width="7" /><polyline clip-path="url(#border_clip)" fill="none" points="862.7693665840598,957.7353396627952 919.2384290769378,185.41756985785747" stroke="#1386c9" stroke-linecap="round" stroke-width="7" /></svg>