<?xml version="1.0" encoding="utf-8" ?>
<svg baseProfile="full" height="1000px" version="1.1" width="1000px" xmlns="http://www.w3.org/2000/svg" xmlns:ev="http://www.w3.org/2001/xml-events" xmlns:xlink="http://www.w3.org/1999/xlink"><defs><clipPath id="border_clip"><rect height="1000" width="1000" x="0" y="0" /></clipPath></defs><polyline clip-path="url(#border_clip)" fill="none" points="500.5,500.5 500.5,500.5 -9.5,-9.5" stroke="black" stroke-linecap="round" stroke-width="1" /><polygon clip-path="url(#border_clip)" fill="#d8e641" fill-rule="evenodd" points="-9.5,-9.5 1000.5,-9.5 1000.5,1000.5 -9.499999999999943,1000.5000000000001 -9.500000000000114,-9.499999999999886" stroke-width="0" /><polyline clip-path="url(#border_clip)" fill="none" points="-9.5,-9.5 1000.5,-9.5 1000.5,1000.5 -9.499999999999943,1000.5000000000001 -9.500000000000114,-9.499999999999886" stroke="black" stroke-linecap="round" stroke-width="1" /><polygon clip-path="url(#border_clip)" fill="#1a6b48" fill-rule="evenodd" points="937.5040742142056,930.6257002411714 798.4295663378912,981.2446814533705 824.1294966325968,835.4931340075636 937.5040742142056,930.6257002411713" stroke-width="0" /><polygon clip-path="url(#border_clip)" fill="#8c11b3" fill-rule="evenodd" points="34.71954942328955,523.103187477367 35.784146215963915,584.0938968819069 -17.56765591953922,554.5205100468804 34.71954942328955,523.103187477367" stroke-width="0" /><polygon clip-path="url(#border_clip)" fill="#73cdf6" fill-rule="evenodd" points="939.3629326530174,346.00897365265905 1007.4363092569713,217.9815726881145 1084.2746025707863,340.94854663079605 939.3629326530174,346.00897365265905" stroke-width="0" /><polygon clip-path="url(#border_clip)" fill="#e7a973" fill-rule="evenodd" points="138.2989017915603,841.6600695542351 257.13107004054876,858.3608416694426 183.25169300147013,952.9221321022494 138.29890179156035,841.6600695542352" stroke-width="0" /><polygon clip-path="url(#border_clip)" fill="#1f9a8b" fill-rule="evenodd" points="942.3471160071658,556.9870074932321 962.8683246067058,500.60545024607757 1001.4355811878984,546.568116833216 942.3471160071659,556.9870074932321" stroke-width="0" /><polygon clip-path="url(#border_clip)" fill="#a24112" fill-rule="evenodd" points="42.24869500494327,545.2207967892952 8.31202158770003,606.4441762890531 -27.740643656004067,546.4424652399055 42.24869500494327,545.2207967892952" stroke-width="0" /><polygon clip-path="url(#border_clip)" fill="#b22ddd" fill-rule="evenodd" points="34.121981848561575,711.5162255644509 41.443241423926054,727.9600438020176 23.541847307297132,726.0785314632 34.12198184856152,711.5162255644509" stroke-width="0" /><polygon clip-path="url(#border_clip)" fill="#c30d24" fill-rule="evenodd" points="616.3127297075073,374.8644453572199 595.5171002639344,371.9418102370587 608.445991245773,355.3935844113174 616.3127297075073,374.8644453572199" stroke-width="0" /><polygon clip-path="url(#border_clip)" fill="#683a34" fill-rule="evenodd" points="795.9941972896779,459.68041087415077 771.5405072713327,454.48261860370695 788.268772430304,435.90399796677195 795.9941972896779,459.6804108741507" stroke-width="0" /><polygon clip-path="url(#border_clip)" fill="#7ebf91" fill-rule="evenodd" points="976.9110175249041,400.78613706552187 988.7287105610505,398.7023589335186 984.6244688411425,409.97867038294953 976.9110175249041,400.78613706552187" stroke-width="0" /><polygon clip-path="url(#border_clip)" fill="#78def5" fill-rule="evenodd" points="286.07679603586837,561.3226971862168 166.56650682385674,542.39412691635 242.71427414088606,448.35946558005594 286.0767960358684,561.3226971862167" stroke-width="0" /><polygon clip-path="url(#border_clip)" fill="#ac3133" fill-rule="evenodd" points="860.1946068942739,459.0064712252397 945.6574959105808,581.0601258242984 797.2244858949111,594.046331493701 860.1946068942739,459.0064712252397" stroke-width="0" /><polygon clip-path="url(#border_clip)" fill="#129a34" fill-rule="evenodd" points="488.0705110990869,296.46555890002287 508.4458567992283,392.3240237719354 415.24231820230307,362.04035832319164 488.07051109908684,296.46555890002287" stroke-width="0" /><polygon clip-path="url(#border_clip)" fill="#b10123" fill-rule="evenodd" points="201.98823316850803,472.8360719679053 142.1008319385861,488.8828527642622 158.14761273494162,428.99545153433996 201.98823316850803,472.83607196790524" stroke-width="0" /><polygon clip-path="url(#border_clip)" fill="#beb993" fill-rule="evenodd" points="25.122558151925375,466.8679303086874 49.11890283567874,467.2867880631819 36.75798903783772,487.8588032800327 25.122558151925375,466.8679303086874" stroke-width="0" /><polygon clip-path="url(#border_clip)" fill="#484e33" fill-rule="evenodd" points="271.83671166675845,393.41698915580264 220.09600334033206,473.0906931106184 176.96690586507407,388.4450733127243 271.8367116667584,393.41698915580264" stroke-width="0" /><polygon clip-path="url(#border_clip)" fill="#1734e1" fill-rule="evenodd" points="967.9072678382344,192.1788834172698 1004.7824922866074,179.48172539344017 997.3409414669227,217.76518554789908 967.9072678382342,192.1788834172698" stroke-width="0" /><polygon clip-path="url(#border_clip)" fill="#04cb88" fill-rule="evenodd" points="217.37525916055262,900.5073677933763 166.95505865493232,809.5469182508803 270.9392189511967,811.3619685203561 217.37525916055267,900.5073677933764" stroke-width="0" /><polygon clip-path="url(#border_clip)" fill="#990c34" fill-rule="evenodd" points="143.21188711011217,677.811149069017 87.29259676303633,594.907391813514 187.04900178901835,587.9317444390998 143.21188711011223,677.811149069017" stroke-width="0" /><polygon clip-path="url(#border_clip)" fill="#a8ade8" fill-rule="evenodd" points="720.9170362583167,400.4235725977111 589.9009442416628,416.51032592719275 641.4774532022448,295.0036852714701 720.9170362583167,400.423572597711" stroke-width="0" /><polygon clip-path="url(#border_clip)" fill="#0b2625" fill-rule="evenodd" points="158.33814959274912,512.3530163750208 187.9063796383292,477.1149719915475 203.63930623131068,520.3408325476988 158.33814959274912,512.353016375021" stroke-width="0" /><polygon clip-path="url(#border_clip)" fill="#681f50" fill-rule="evenodd" points="880.147749690999,823.6800683010849 919.9063992470947,762.4571168410685 953.0477057280827,827.5005931068184 880.147749690999,823.6800683010849" stroke-width="0" /><polygon clip-path="url(#border_clip)" fill="#fc47f3" fill-rule="evenodd" points="228.64548950714163,444.62839950860626 257.95032414383843,513.6662635175385 183.50936277073936,504.5260627621539 228.64548950714158,444.62839950860626" stroke-width="0" /><polygon clip-path="url(#border_clip)" fill="#e92b39" fill-rule="evenodd" points="211.4213902704323,983.1088318604491 223.16444124331758,965.699042836793 232.3702353258886,984.5737178090752 211.4213902704323,983.1088318604491" stroke-width="0" /><polygon clip-path="url(#border_clip)" fill="#19d702" fill-rule="evenodd" points="550.8145991099702,663.6773094608752 487.29164540492576,655.8776714829472 525.8078068866556,604.7649988399198 550.8145991099702,663.6773094608752" stroke-width="0" /><polygon clip-path="url(#border_clip)" fill="#9d3c67" fill-rule="evenodd" points="971.6774329561631,18.677754661157223 950.4270647778038,24.37177365341313 956.1210837700587,3.1214054750536206 971.6774329561631,18.677754661157223" stroke-width="0" /><polygon clip-path="url(#border_clip)" fill="#7162ea" fill-rule="evenodd" points="90.12874049235967,735.3165485539482 148.99040814376644,695.613852407524 153.94311777960098,766.440899975971 90.12874049235967,735.3165485539482" stroke-width="0" /><polygon clip-path="url(#border_clip)" fill="#a00a56" fill-rule="evenodd" points="883.0632192476963,445.49160355241264 903.5411228930325,426.39564947066225 909.8397524146615,453.67801128464856 883.0632192476963,445.49160355241264" stroke-width="0" /><polygon clip-path="url(#border_clip)" fill="#29b8cf" fill-rule="evenodd" points="787.6745085017815,807.061403692928 782.1836967086806,869.8216696727077 730.5771179184735,833.6863541825933 787.6745085017815,807.061403692928" stroke-width="0" /><polygon clip-path="url(#border_clip)" fill="#0a5e0e" fill-rule="evenodd" points="806.8625099233556,787.8072571985708 843.0174982652213,676.5336447920375 921.3057792092096,763.4815893728902 806.8625099233557,787.8072571985708" stroke-width="0" /><polygon clip-path="url(#border_clip)" fill="#abb3d8" fill-rule="evenodd" points="191.22320858713567,479.5154935857176 199.48095718528236,558.0827233198105 127.31086603151641,525.9505285168244 191.22320858713567,479.5154935857176" stroke-width="0" /><polygon clip-path="url(#border_clip)" fill="#a6b584" fill-rule="evenodd" points="769.99268469543,924.1352990313844 753.3887088181164,972.3567463869497 719.9296983395996,933.8665577955895 769.9926846954298,924.1352990313844" stroke-width="0" /><polygon clip-path="url(#border_clip)" fill="#c386ed" fill-rule="evenodd" points="110.12558133813548,750.9044296130016 150.8495894388255,677.4363742132916 194.1127877312718,749.4384274722674 110.12558133813548,750.9044296130016" stroke-width="0" /><polygon clip-path="url(#border_clip)" fill="#d6d536" fill-rule="evenodd" points="681.6514296619481,538.7784077622368 712.4862040245007,503.3070574917658 727.7879072839883,547.746430544933 681.6514296619481,538.7784077622368" stroke-width="0" /><polygon clip-path="url(#border_clip)" fill="#433ca9" fill-rule="evenodd" points="744.9936778916641,449.9392824616863 762.2963884185539,454.90075486639176 749.3482720124587,467.404605534654 744.9936778916641,449.9392824616863" stroke-width="0" /><polygon clip-path="url(#border_clip)" fill="#49c194" fill-rule="evenodd" points="326.64956359419244,838.3475994248322 342.1798363741168,845.2621223571202 328.42654746974307,855.2544716460926 326.6495635941925,838.3475994248322" stroke-width="0" /><polygon clip-path="url(#border_clip)" fill="#3d8bf4" fill-rule="evenodd" points="358.97131230502106,454.16093934965323 396.50346924763625,460.10544902118085 372.5892943877435,489.63699555654625 358.97131230502106,454.16093934965323" stroke-width="0" /><polygon clip-path="url(#border_clip)" fill="#222287" fill-rule="evenodd" points="443.2819642600882,244.70603309121913 409.7484443509983,147.3176198044912 510.85604424610756,166.97094632827202 443.2819642600882,244.70603309121913" stroke-width="0" /><polygon clip-path="url(#border_clip)" fill="#90defa" fill-rule="evenodd" points="212.49330256643077,924.2280252751357 241.28703752244132,799.5086569826256 334.9003113296973,886.8044470706218 212.49330256643077,924.2280252751358" stroke-width="0" /><polygon clip-path="url(#border_clip)" fill="#ae5fe2" fill-rule="evenodd" points="844.9268317380014,664.7770527925817 795.3339109557753,528.5216227786275 938.1310351425453,553.7006085403276 844.9268317380015,664.7770527925816" stroke-width="0" /><polygon clip-path="url(#border_clip)" fill="#15340f" fill-rule="evenodd" points="673.155453850668,713.3742480226172 762.3535890926628,799.5118859595293 643.1571387963133,833.6909180808409 673.1554538506679,713.3742480226172" stroke-width="0" /><polygon clip-path="url(#border_clip)" fill="#7df783" fill-rule="evenodd" points="32.43926681533355,417.10519265365406 -100.0546280308672,428.6969064390969 -43.84639921935866,308.15797076322144 32.43926681533355,417.10519265365394" stroke-width="0" /><polygon clip-path="url(#border_clip)" fill="#e9b532" fill-rule="evenodd" points="574.2972331801475,341.0762386636133 610.7068698135386,355.0525886958786 580.3981773167178,379.59608394682317 574.2972331801475,341.0762386636133" stroke-width="0" /><polygon clip-path="url(#border_clip)" fill="#c94fd1" fill-rule="evenodd" points="677.080823831419,586.9739779270767 703.9584200473139,516.9554459397862 751.1574493760534,575.2413930490568 677.0808238314191,586.9739779270767" stroke-width="0" /><polygon clip-path="url(#border_clip)" fill="#38bbed" fill-rule="evenodd" points="674.3426476153076,176.540586950719 713.809737688315,162.17574093103963 706.5165142263054,203.5376665575523 674.3426476153076,176.54058695071905" stroke-width="0" /><polygon clip-path="url(#border_clip)" fill="#081686" fill-rule="evenodd" points="999.1746170179208,311.4930541476057 899.4084778787159,360.1522514411966 907.1514464643096,249.42264186235673 999.1746170179208,311.4930541476057" stroke-width="0" /><polygon clip-path="url(#border_clip)" fill="#1dd242" fill-rule="evenodd" points="972.2634649272352,819.406922269952 972.6473593909623,808.4136231727421 981.9758884486831,814.242735079307 972.2634649272352,819.406922269952" stroke-width="0" /><polygon clip-path="url(#border_clip)" fill="#49ecd9" fill-rule="evenodd" points="789.8714312002173,679.5376157100678 902.8847528760385,709.8194439870581 820.1532594772164,792.5509373858868 789.8714312002173,679.5376157100679" stroke-width="0" /><polygon clip-path="url(#border_clip)" fill="#07c9b1" fill-rule="evenodd" points="192.21294647340818,246.14352721798411 158.10195919384995,109.33182981307118 293.63985832115327,148.19669698326237 192.21294647340824,246.14352721798414" stroke-width="0" /><polygon clip-path="url(#border_clip)" fill="#1bec3a" fill-rule="evenodd" points="854.9077470223842,914.4659019333442 882.3141107516615,902.2638026410691 879.1782568536332,932.0994595021172 854.9077470223842,914.4659019333442" stroke-width="0" /><polygon clip-path="url(#border_clip)" fill="#296d4d" fill-rule="evenodd" points="339.6240113483375,400.15130432266824 422.4694481590549,364.98550275863056 411.50120725259535,454.3146564063492 339.6240113483375,400.1513043226683" stroke-width="0" /><polygon clip-path="url(#border_clip)" fill="#b7f283" fill-rule="evenodd" points="239.48345843218692,800.1489443888398 292.8497233773668,813.4546486468192 254.64351300212394,853.0183376654463 239.48345843218692,800.1489443888399" stroke-width="0" /><polygon clip-path="url(#border_clip)" fill="#aac7df" fill-rule="evenodd" points="276.84734027284844,60.3430563562049 302.37362238989306,205.109796048997 164.23880713436375,154.83283498013003 276.8473402728484,60.3430563562049" stroke-width="0" /><polygon clip-path="url(#border_clip)" fill="#d0a257" fill-rule="evenodd" points="352.4156369042399,302.3600313232754 457.4497455331398,322.7765938285609 387.25142943115975,403.53051891239977 352.4156369042398,302.36003132327545" stroke-width="0" /><polygon clip-path="url(#border_clip)" fill="#2167fe" fill-rule="evenodd" points="917.0314463762097,956.8899338799532 959.0131923189014,980.1607956517753 917.8691618852015,1004.8826232474595 917.0314463762097,956.8899338799532" stroke-width="0" /><polygon clip-path="url(#border_clip)" fill="#9f168b" fill-rule="evenodd" points="885.0152188503698,479.5545318725521 886.7591306939719,454.61543061605664 907.4850700078483,468.59525320282427 885.0152188503698,479.5545318725521" stroke-width="0" /><polygon clip-path="url(#border_clip)" fill="#3038ea" fill-rule="evenodd" points="728.5289896642324,463.1370918071922 655.2652741004756,369.3638121279966 773.1071742807204,352.8022131137435 728.5289896642325,463.13709180719206" stroke-width="0" /><polygon clip-path="url(#border_clip)" fill="#db8aeb" fill-rule="evenodd" points="358.94191791497485,272.638856134283 319.23922176854944,213.77718848287753 390.06626933699596,208.82447884704135 358.94191791497485,272.63885613428295" stroke-width="0" /><polygon clip-path="url(#border_clip)" fill="#e244ec" fill-rule="evenodd" points="547.5771655129008,52.04212766008658 467.4932432625378,18.048519481523954 536.974532636649,-34.30938753270698 547.5771655129009,52.04212766008658" stroke-width="0" /><polygon clip-path="url(#border_clip)" fill="#31be88" fill-rule="evenodd" points="244.9948908857496,104.83022746118837 198.2201769320382,209.88795509008855 130.6248729184,116.85100073697396 244.99489088574956,104.83022746118831" stroke-width="0" /><polygon clip-path="url(#border_clip)" fill="#56bcbd" fill-rule="evenodd" points="667.1798902985298,381.10890745188215 733.7147569152457,286.0872703143569 782.7384752771715,391.2189736106047 667.1798902985298,381.1089074518822" stroke-width="0" /><polygon clip-path="url(#border_clip)" fill="#5421dc" fill-rule="evenodd" points="830.8073485377967,364.16323424596123 855.166600157427,358.5394578873635 847.8573075393599,382.4470767864395 830.8073485377967,364.1632342459613" stroke-width="0" /><polygon clip-path="url(#border_clip)" fill="#a78d14" fill-rule="evenodd" points="493.31197045557946,407.9099630581236 550.587619731692,465.18561233423037 472.3476278022795,486.1499549875383 493.31197045557946,407.90996305812365" stroke-width="0" /><polygon clip-path="url(#border_clip)" fill="#bb6c82" fill-rule="evenodd" points="113.7080117645894,296.65498738001315 182.72033149410777,166.86169122974883 260.6184633363945,291.5247613647379 113.7080117645894,296.65498738001315" stroke-width="0" /><polyline clip-path="url(#border_clip)" fill="none" points="533.2909524473754,142.98319470160232 477.21336240911955,432.49300601471856" stroke="#2be16b" stroke-linecap="round" stroke-width="5" /><polyline clip-path="url(#border_clip)" fill="none" points="29.493123912758676,243.7699713130877 884.3071989351665,375.798661025146" stroke="#299e01" stroke-linecap="round" stroke-width="7" /><polyline clip-path="url(#border_clip)" fill="none" points="924.6853770845994,336.1305532940569 47.920720399709126,524.7481551478472" stroke="#59b3c4" stroke-linecap="round" stroke-width="10" /><polyline clip-path="url(#border_clip)" fill="none" points="534.4796123176682,29.10866461277078 449.1908458553469,478.33863626688606" stroke="#cc5ca8" stroke-linecap="round" stroke-width="6" /><polyline clip-path="url(#border_clip)" fill="none" points="765.2509227743247,690.4956011012139 974.2029603883009,330.52250867235483" stroke="#c848de" stroke-linecap="round" stroke-width="8" /><polyline clip-path="url(#border_clip)" fill="none" points="534.1176964083422,354.42279076740584 683.9286735921527,334.03183168913006" stroke="#948fae" stroke-linecap="round" stroke-width="4" /><polyline clip-path="url(#border_clip)" fill="none" points="691.368230630884,774.5993676718795 243.184250006615,112.45570610406736" stroke="#542a02" stroke-linecap="round" stroke-width="8" /><polyline clip-path="url(#border_clip)" fill="none" points="960.9175443119168,271.6090248728631 314.22035752023385,751.0996380924306" stroke="#7b4414" stroke-linecap="round" stroke-width="6" /><polyline clip-path="url(#border_clip)" fill="none" points="154.49549207660067,55.090672740440596 467.8124224215176,111.26958557071879" stroke="#b1410e" stroke-linecap="round" stroke-width="6" /><polyline clip-path="url(#border_clip)" fill="none" points="137.34307025205857,911.6434947015995 627.8656763954438,528.1267651209685" stroke="#2ba2ce" stroke-linecap="round" stroke-width="8" /><polyline clip-path="url(#border_clip)" fill="none" points="543.1637524282036,506.8958160631832 675.6506183974153,981.6516239307373" stroke="#98b717" stroke-linecap="round" stroke-width="5" /><polyline clip-path="url(#border_clip)" fill="none" points="640.0843097696136,567.5105600669327 447.43259803237197,835.7617148571803" stroke="#22530d" stroke-linecap="round" stroke-width="8" /><polyline clip-path="url(#border_clip)" fill="none" points="928.1639952180849,287.68523786132556 373.5654424737573,47.90691783720439" stroke="#73aebe" stroke-linecap="round" stroke-width="3" /><polyline clip-path="url(#border_clip)" fill="none" points="633.5655647586804,108.20718939765044 802.4124558565829,606.5170110860829" stroke="#d7af17" stroke-linecap="round" stroke-width="7" /><polyline clip-path="url(#border_clip)" fill="none" points="658.4363862180476,84.2797168017704 406.9714242519971,436.7233265605739" stroke="#1d0ac1" stroke-linecap="round" stroke-width="3" /><polyline clip-path="url(#border_clip)" fill="none" points="927.2712154793662,217.26913140960608 992.1635297711836,490.826700482963" stroke="#2f3346" stroke-linecap="round" stroke-width="8" /><polyline clip-path="url(#border_clip)" fill="none" points="378.05994415744135,979.0462719719096 537.249309374148,517.8190611690545" stroke="#bc5148" stroke-linecap="round" stroke-width="3" /><polyline clip-path="url(#border_clip)" fill="none" points="973.7170686763017,361.6568236719406 721.4758546791575,148.55460820418858" stroke="#6ca18a" stroke-linecap="round" stroke-width="2" /><polyline clip-path="url(#border_clip)" fill="none" points="940.2218089980115,521.5399757627736 125.98101750434125,479.70322185227235" stroke="#400acb" stroke-linecap="round" stroke-width="2" /><polyline clip-path="url(#border_clip)" fill="none" points="581.3296687934447,228.90077791855094 716.0082631919494,800.835087763732" stroke="#a11e7c" stroke-linecap="round" stroke-width="9" /><polyline clip-path="url(#border_clip)" fill="none" points="965.659830004252,94.10135112230762 255.17670112569496,590.063584324814" stroke="#c43ec7" stroke-linecap="round" stroke-width="6" /><polyline clip-path="url(#border_clip)" fill="none" points="889.4127782557902,436.28595954789233 962.1207980516663,669.5242573730233" stroke="#29c034" stroke-linecap="round" stroke-width="6" /><polyline clip-path="url(#border_clip)" fill="none" points="789.0865830172011,962.7012935497826 788.0645983658992,491.98179415266236" stroke="#872afa" stroke-linecap="round" stroke-width="7" /><polyline clip-path="url(#border_clip)" fill="none" points="928.8662824463942,428.60991113965014 172.03885548327452,357.0813957750321" stroke="#addd7f" stroke-linecap="round" stroke-width="5" /><polyline clip-path="url(#border_clip)" fill="none" points="519.190644332168,731.4928095335027 653.544145514182,320.02849415181754" stroke="#7a3261" stroke-linecap="round" stroke-width="9" /><polyline clip-path="url(#border_clip)" fill="none" points="489.0844674536579,945.3043077097393 149.79502102339023,75.73821279671773" stroke="#fb2e91" stroke-linecap="round" stroke-width="4" /><polyline clip-path="url(#border_clip)" fill="none" points="410.7036737625847,654.029992566886 156.3889641417568,456.74243037570676" stroke="#82aa71" stroke-linecap="round" stroke-width="8" /><polyline clip-path="url(#border_clip)" fill="none" points="944.8161121851433,764.9945126831274 489.36640379741897,316.40745966517284" stroke="#2767d7" stroke-linecap="round" stroke-width="10" /><polyline clip-path="url(#border_clip)" fill="none" points="40.88978805418935,210.51402693158377 733.9019788353933,71.3620846529733" stroke="#abed0d" stroke-linecap="round" stroke-width="5" /><polyline clip-path="url(#border_clip)" fill="none" points="521.6243144197311,156.7977919019345 699.5488084737433,670.9281311565908" stroke="#f9a72d" stroke-linecap="round" stroke-width="10" /><polyline clip-path="url(#border_clip)" fill="none" points="877.0285018896083,275.1549785477314 82.99272194668276,402.6037506343114" stroke="#550d43" stroke-linecap="round" stroke-width="8" /><polyline clip-path="url(#border_clip)" fill="none" points="875.7669801367377,317.4931501821293 994.184660162605,59.09321790173777" stroke="#fff9e2" stroke-linecap="round" stroke-width="4" /><polyline clip-path="url(#border_clip)" fill="none" points="152.80798804488643,855.4575455356273 600.7783555480594,756.1656637846288" stroke="#68badf" stroke-linecap="round" stroke-width="3" /><polyline clip-path="url(#border_clip)" fill="none" points="481.12284703740676,900.7881760016245 862.8359940552758,699.2356257377877" stroke="#e8e5c4" stroke-linecap="round" stroke-width="9" /><polyline clip-path="url(#border_clip)" fill="none" points="875.6561088095414,945.0798156219514 370.12423521945755,564.4099345322602" stroke="#af140f" stroke-linecap="round" stroke-width="4" /><polyline clip-path="url(#border_clip)" fill="none" points="311.4050129882298,707.2448334098004 417.0167609299404,238.84192992593785" stroke="#61d4d8" stroke-linecap="round" stroke-width="8" /><polyline clip-path="url(#border_clip)" fill="none" points="771.4827475714117,139.95264619925337 836.647910136549,575.4722825570659" stroke="#c16c6b" stroke-linecap="round" stroke-width="7" /><polyline clip-path="url(#border_clip)" fill="none" points="288.6768256115213,384.01183672847156 897.8845058316617,682.2914669123403" stroke="#bb8fab" stroke-linecap="round" stroke-width="6" /><polyline clip-path="url(#border_clip)" fill="none" points="545.8470952241157,554.0388799369313 589.6205464634145,200.0120347935736" stroke="#b9825e" stroke-linecap="round" stroke-width="2" /><polyline clip-path="url(#border_clip)" fill="none" points="80.71356759774744,322.1355675964848 660.7541461898933,477.0972017640766" stroke="#2f997b" stroke-linecap="round" stroke-width="2" /><polyline clip-path="url(#border_clip)" fill="none" points="553.8828788463543,33.16915011300199 462.25014857267024,776.8501810286008" stroke="#d11261" stroke-linecap="round" stroke-width="8" /><polyline clip-path="url(#border_clip)" fill="none" points="398.5566883564215,174.17900437428096 878.692389078316,223.30410851853804" stroke="#938f81" stroke-linecap="round" stroke-width="9" /><polyline clip-path="url(#border_clip)" fill="none" points="627.0533686959562,473.512130832717 502.587499004033,503.4975508188965" stroke="#629d31" stroke-linecap="round" stroke-width="3" /><polyline clip-path="url(#border_clip)" fill="none" points="955.3800580268638,850.6238956906099 583.0851371552859,805.400365390746" stroke="#c96419" stroke-linecap="round" stroke-width="9" /><polyline clip-path="url(#border_clip)" fill="none" points="168.39025421626457,450.2844586870299 204.34471486137602,497.9014567667635" stroke="#9ab8ed" stroke-linecap="round" stroke-width="5" /><polyline clip-path="url(#border_clip)" fill="none" points="739.7573545521307,124.83158365547649 534.5197931436879,413.6215963382964" stroke="#ab925d" stroke-linecap="round" stroke-width="3" /><polyline clip-path="url(#border_clip)" fill="none" points="661.0625928959981,705.0725354307609 179.32332286368086,974.4626413783118" stroke="#f0174b" stroke-linecap="round" stroke-width="9" /><polyline clip-path="url(#border_clip)" fill="none" points="563.8591282441866,173.137060395618 429.6711004491724,647.1877051183183" stroke="#aa948e" stroke-linecap="round" stroke-width="6" /><polyline clip-path="url(#border_clip)" fill="none" points="428.9454531149887,231.76043023238572 886.2898950538456,156.93024263810855" stroke="#ba5604" stroke-linecap="round" stroke-width="9" /><polyline clip-path="url(#border_clip)" fill="none" points="597.2881793077732,141.0741709322603 3.7389207370506483,34.18384005360724" stroke="#ec3a52" stroke-linecap="round" stroke-width="2" /><polyline clip-path="url(#border_clip)" fill="none" points="831.1979444266593,520.863548896096 255.92569067234345,639.708240399343" stroke="#2d18af" stroke-linecap="round" stroke-width="9" /><polyline clip-path="url(#border_clip)" fill="none" points="906.4554908857106,199.96461601673036 660.5080134858558,697.9117153575795" stroke="#17cf6e" stroke-linecap="round" stroke-width="10" /><polyline clip-path="url(#border_clip)" fill="none" points="488.90022034921304,970.9432840081419 336.2232901639213,610.251724549448" stroke="#d57a42" stroke-linecap="round" stroke-width="7" /><polyline clip-path="url(#border_clip)" fill="none" points="297.832290468295,755.4713604271616 747.4708156264493,950.0474816096212" stroke="#7d412f" stroke-linecap="round" stroke-width="3" /><polyline clip-path="url(#border_clip)" fill="none" points="470.0920150544639,989.9565186719542 726.1747587711798,469.54450341133344" stroke="#f8aa61" stroke-linecap="round" stroke-width="8" /><polyline clip-path="url(#border_clip)" fill="none" points="863.0795680839261,985.3730885747932 789.4829448417977,314.92519155584023" stroke="#7cfedd" stroke-linecap="round" stroke-width="9" /><polyline clip-path="url(#border_clip)" fill="none" points="77.42945212284417,702.2416781997092 10.46903040950815,322.6521489403714" stroke="#a7080c" stroke-linecap="round" stroke-width="5" /><polyline clip-path="url(#border_clip)" fill="none" points="815.9851905809588,412.19999525801205 732.0473590036486,256.17341599636774" stroke="#c95e16" stroke-linecap="round" stroke-width="4" /><polyline clip-path="url(#border_clip)" fill="none" points="770.2755070081187,654.8235190467785 324.4070516758077,352.8776428822275" stroke="#9b9dd2" stroke-linecap="round" stroke-width="5" /><polyline clip-path="url(#border_clip)" fill="none" points="575.9867226283725,99.74997075191908 880.7996905903467,824.8793609299314" stroke="#7f07e4" stroke-linecap="round" stroke-width="6" /><polyline clip-path="url(#border_clip)" fill="none" points="510.3360572967464,144.2178179101516 822.5668194826395,515.4590579722643" stroke="#be21d7" stroke-linecap="round" stroke-width="6" /><polyline clip-path="url(#border_clip)" fill="none" points="336.3632012203956,363.18918316374163 626.3683323507255,769.089331575622" stroke="#ad87ad" stroke-linecap="round" stroke-width="3" /><polyline clip-path="url(#border_clip)" fill="none" points="275.0711484030177,55.51973153271598 212.7354312876579,947.0119532283471" stroke="#0cdd7e" stroke-linecap="round" stroke-width="7" /><polyline clip-path="url(#border_clip)" fill="none" points="84.2966990596276,691.940755128973 431.62180745416515,688.324959585251" stroke="#dd892d" stroke-linecap="round" stroke-width="3" /></svg>