<?xml version="1.0" encoding="utf-8" ?>
<svg baseProfile="full" height="1000px" version="1.1" width="1000px" xmlns="http://www.w3.org/2000/svg" xmlns:ev="http://www.w3.org/2001/xml-events" xmlns:xlink="http://www.w3.org/1999/xlink"><defs><clipPath id="border_clip"><rect height="1000" width="1000" x="0" y="0" /></clipPath></defs><polyline clip-path="url(#border_clip)" fill="none" points="500.5,500.5 500.5,500.5 -9.5,-9.5" stroke="black" stroke-linecap="round" stroke-width="1" /><polygon clip-path="url(#border_clip)" fill="#c1e9fc" fill-rule="evenodd" points="-9.5,-9.5 1000.5,-9.5 1000.5,1000.5 -9.499999999999943,1000.5000000000001 -9.500000000000114,-9.499999999999886" stroke-width="0" /><polyline clip-path="url(#border_clip)" fill="none" points="-9.5,-9.5 1000.5,-9.5 1000.5,1000.5 -9.499999999999943,1000.5000000000001 -9.500000000000114,-9.499999999999886" stroke="black" stroke-linecap="round" stroke-width="1" /><polygon clip-path="url(#border_clip)" fill="#02708f" fill-rule="evenodd" points="814.0431071348019,453.83426305048965 913.297722298934,441.6473287099748 874.2246094500067,533.6978140552188 814.0431071348017,453.83426305048965" stroke-width="0" /><polygon clip-path="url(#border_clip)" fill="#e66907" fill-rule="evenodd" points="455.037708946298,807.83445243649 512.90988762691,881.9074632755219 419.82468916520236,894.9897347657682 455.0377089462979,807.8344524364901" stroke-width="0" /><polygon clip-path="url(#border_clip)" fill="#6ef13b" fill-rule="evenodd" points="123.44545528470633,982.2030508294554 75.52732468186883,1018.3119522185783 68.21516407755985,958.759183120099 123.44545528470633,982.2030508294553" stroke-width="0" /><polygon clip-path="url(#border_clip)" fill="#dfb031" fill-rule="evenodd" points="646.3175883829617,573.0644225608655 654.5581975815226,559.3497457496317 662.315151505464,573.343661063862 646.3175883829617,573.0644225608655" stroke-width="0" /><polygon clip-path="url(#border_clip)" fill="#ebfd77" fill-rule="evenodd" points="37.114598129651085,73.60781428933069 1.7612795968912565,31.475369917787077 55.925706012562614,21.9247201461057 37.114598129651085,73.60781428933069" stroke-width="0" /><polygon clip-path="url(#border_clip)" fill="#2e9536" fill-rule="evenodd" points="367.00015771922017,530.6412286125809 303.65041315406586,508.8281622639518 354.2159550289913,464.87220732158755 367.00015771922017,530.6412286125809" stroke-width="0" /><polygon clip-path="url(#border_clip)" fill="#3e705f" fill-rule="evenodd" points="318.3541438715823,70.56982533619822 355.666675307009,21.054423713265862 379.8920052733443,78.12572462731697 318.3541438715823,70.56982533619822" stroke-width="0" /><polygon clip-path="url(#border_clip)" fill="#51d273" fill-rule="evenodd" points="553.6137974048899,37.84077766010256 457.0270170526236,67.3703198370996 479.74707354135325,-31.041056706209247 553.6137974048899,37.8407776601025" stroke-width="0" /><polygon clip-path="url(#border_clip)" fill="#95133d" fill-rule="evenodd" points="399.7917615487611,991.1400411707057 497.41884196175204,982.5987783814344 456.0022523111642,1071.4169415110264 399.7917615487611,991.1400411707057" stroke-width="0" /><polygon clip-path="url(#border_clip)" fill="#5721ed" fill-rule="evenodd" points="698.0034491980266,679.3205844741888 668.6462789281532,630.4620483341687 725.6375975520674,629.467261167243 698.0034491980267,679.3205844741888" stroke-width="0" /><polygon clip-path="url(#border_clip)" fill="#bec96d" fill-rule="evenodd" points="806.4879634229151,493.463284791132 683.2033899349387,573.5252229383422 675.5100043672245,426.7266813294201 806.4879634229151,493.463284791132" stroke-width="0" /><polygon clip-path="url(#border_clip)" fill="#fce132" fill-rule="evenodd" points="692.6024402880882,697.7938986891925 773.6052262651233,624.8586625960761 796.2676005642602,731.4767510760605 692.6024402880882,697.7938986891925" stroke-width="0" /><polygon clip-path="url(#border_clip)" fill="#3a2d14" fill-rule="evenodd" points="336.10809156454053,501.9321129063978 340.7860388401045,517.2329890018062 325.1961178035407,513.6337721323047 336.1080915645405,501.9321129063978" stroke-width="0" /><polygon clip-path="url(#border_clip)" fill="#6a7f09" fill-rule="evenodd" points="437.3448839637518,169.2736030652929 504.4793174421324,43.012097286465746 580.2577722274821,164.28297503683342 437.3448839637518,169.27360306529295" stroke-width="0" /><polygon clip-path="url(#border_clip)" fill="#7827a5" fill-rule="evenodd" points="753.049751301311,319.9946274226867 790.144099797636,379.35799415363584 720.1867419062995,381.80095892281184 753.049751301311,319.9946274226867" stroke-width="0" /><polygon clip-path="url(#border_clip)" fill="#7763d6" fill-rule="evenodd" points="949.2220499760684,307.19263650588744 1011.3937268926268,357.5382677898733 936.7072927728511,386.20770375349844 949.2220499760683,307.19263650588744" stroke-width="0" /><polygon clip-path="url(#border_clip)" fill="#820ccb" fill-rule="evenodd" points="183.65215575470836,556.1435900347054 163.5359024905021,544.99296876904 183.25075040665047,533.1470930461085 183.65215575470836,556.1435900347054" stroke-width="0" /><polygon clip-path="url(#border_clip)" fill="#b1852c" fill-rule="evenodd" points="61.750624128991944,364.1129548156484 167.60868227602305,409.04703459191296 75.76559862058582,478.2557622543999 61.750624128991944,364.11295481564844" stroke-width="0" /><polygon clip-path="url(#border_clip)" fill="#02ad57" fill-rule="evenodd" points="266.586134557054,888.7990740487552 317.440060640326,832.3200673124725 340.92535221282327,904.6003625509035 266.586134557054,888.7990740487552" stroke-width="0" /><polygon clip-path="url(#border_clip)" fill="#f9c5ad" fill-rule="evenodd" points="983.0110249250729,470.44314050476646 1115.0609510241366,498.51121876516146 1024.728319165693,598.8357702046111 983.0110249250727,470.4431405047665" stroke-width="0" /><polygon clip-path="url(#border_clip)" fill="#0a24ae" fill-rule="evenodd" points="363.5572571650214,168.74090841327433 349.0036387186583,141.369533034648 379.98475435625016,142.45141743242488 363.5572571650214,168.74090841327433" stroke-width="0" /><polygon clip-path="url(#border_clip)" fill="#59241a" fill-rule="evenodd" points="254.51321204310378,805.7061099452498 310.4619755491817,849.4180746933702 244.63192187494064,876.0151428259012 254.51321204310378,805.7061099452498" stroke-width="0" /><polygon clip-path="url(#border_clip)" fill="#577cc3" fill-rule="evenodd" points="830.063218638197,925.5245009088508 721.6549413919527,846.761277101662 844.0700327160596,792.2585669295024 830.063218638197,925.5245009088508" stroke-width="0" /><polygon clip-path="url(#border_clip)" fill="#533a7d" fill-rule="evenodd" points="495.72427575293716,952.4842333637184 442.71640784676373,962.787919114053 460.29708818744894,911.7299160316898 495.72427575293716,952.4842333637184" stroke-width="0" /><polygon clip-path="url(#border_clip)" fill="#1d7fb3" fill-rule="evenodd" points="11.210451331887953,139.06269213002093 104.41398992881335,169.3463575787635 31.58579703203054,234.921157001933 11.210451331887953,139.06269213002093" stroke-width="0" /><polygon clip-path="url(#border_clip)" fill="#fa7c47" fill-rule="evenodd" points="199.87265661670244,268.4608155827789 190.61058651791308,343.89432310751926 129.91428775431797,298.15638134796524 199.87265661670244,268.4608155827789" stroke-width="0" /><polygon clip-path="url(#border_clip)" fill="#95f01f" fill-rule="evenodd" points="431.2072113833964,988.8590792494814 357.1152119485139,917.3092670922068 456.1251666301596,888.9186194430536 431.2072113833964,988.8590792494814" stroke-width="0" /><polygon clip-path="url(#border_clip)" fill="#a18031" fill-rule="evenodd" points="471.2047647738387,672.1485507729792 619.3885271837104,656.5738097460952 558.7847673654198,792.6920829348437 471.2047647738387,672.1485507729793" stroke-width="0" /><polygon clip-path="url(#border_clip)" fill="#87e6a2" fill-rule="evenodd" points="341.44888218764027,155.43488106219968 375.61476020600935,232.17269950417688 292.07492099507454,223.3923085896962 341.44888218764027,155.43488106219968" stroke-width="0" /><polygon clip-path="url(#border_clip)" fill="#dcc79e" fill-rule="evenodd" points="254.36506521357677,697.0582324772014 193.86984695668764,821.0918108664874 116.7012262777219,706.6846258538943 254.3650652135767,697.0582324772014" stroke-width="0" /><polygon clip-path="url(#border_clip)" fill="#11ea2b" fill-rule="evenodd" points="108.25160243241834,471.69996412977264 179.01815437368316,493.3354702792531 124.89798045386618,543.8033489238792 108.25160243241828,471.69996412977264" stroke-width="0" /><polygon clip-path="url(#border_clip)" fill="#429f32" fill-rule="evenodd" points="944.9805018439906,694.4891721866087 946.6905771824145,743.4593227105441 903.4261451323266,720.4552161340368 944.9805018439905,694.4891721866087" stroke-width="0" /><polyline clip-path="url(#border_clip)" fill="none" points="113.74017254303499,646.8883919641986 660.8661001585109,743.4816639442784" stroke="#7d2218" stroke-linecap="round" stroke-width="10" /><polyline clip-path="url(#border_clip)" fill="none" points="581.9633454088084,998.6848130344965 819.1434234707365,586.6206882662798" stroke="#dc1fb0" stroke-linecap="round" stroke-width="10" /><polyline clip-path="url(#border_clip)" fill="none" points="249.2908705696974,746.5481224788637 588.8116653253212,620.1660031596433" stroke="#288f1e" stroke-linecap="round" stroke-width="9" /><polyline clip-path="url(#border_clip)" fill="none" points="462.5529523672472,31.137202143174022 907.1497778036578,945.1887877169694" stroke="#39e61d" stroke-linecap="round" stroke-width="6" /><polyline clip-path="url(#border_clip)" fill="none" points="276.1388015202016,478.8511373531597 34.875930756677576,358.59688932425144" stroke="#25764d" stroke-linecap="round" stroke-width="6" /><polyline clip-path="url(#border_clip)" fill="none" points="673.492945383078,567.4800353711337 678.0531159255053,238.89898497424463" stroke="#09b524" stroke-linecap="round" stroke-width="7" /><polyline clip-path="url(#border_clip)" fill="none" points="357.34732231227866,517.6496401381569 457.10906497018374,963.0604296245581" stroke="#d33bf6" stroke-linecap="round" stroke-width="6" /><polyline clip-path="url(#border_clip)" fill="none" points="721.5436556684931,190.82118938757492 478.05057191689275,390.5832784081042" stroke="#0adee6" stroke-linecap="round" stroke-width="7" /><polyline clip-path="url(#border_clip)" fill="none" points="144.4970157124597,983.6426640060577 648.0869221186852,762.5713995768756" stroke="#cd1ab7" stroke-linecap="round" stroke-width="10" /><polyline clip-path="url(#border_clip)" fill="none" points="853.9502700254964,971.8121318758458 330.00317058990606,992.407880295509" stroke="#277336" stroke-linecap="round" stroke-width="5" /><polyline clip-path="url(#border_clip)" fill="none" points="513.2975795524982,100.290711590522 473.84250447730443,852.4726949567444" stroke="#22ad22" stroke-linecap="round" stroke-width="7" /><polyline clip-path="url(#border_clip)" fill="none" points="636.2098121990967,76.25099251178852 498.82335878176116,485.06540874344165" stroke="#8936f6" stroke-linecap="round" stroke-width="5" /><polyline clip-path="url(#border_clip)" fill="none" points="414.6200729498543,125.6755705069121 180.74599727054044,661.8860550880544" stroke="#389fb4" stroke-linecap="round" stroke-width="10" /><polyline clip-path="url(#border_clip)" fill="none" points="511.1686404453304,220.77789610036086 196.61581601667217,16.430726642484274" stroke="#c09f97" stroke-linecap="round" stroke-width="6" /><polyline clip-path="url(#border_clip)" fill="none" points="837.9555104085475,593.1296294391516 782.5196733988328,990.8702581186126" stroke="#ecc3cf" stroke-linecap="round" stroke-width="9" /><polyline clip-path="url(#border_clip)" fill="none" points="248.9579450524219,29.796736636706157 787.7666353995642,466.0984297423451" stroke="#c98d46" stroke-linecap="round" stroke-width="7" /><polyline clip-path="url(#border_clip)" fill="none" points="459.3048250014949,448.83972170185507 971.1571291524021,402.59164421792997" stroke="#d9f46d" stroke-linecap="round" stroke-width="4" /><polyline clip-path="url(#border_clip)" fill="none" points="176.09028289713206,209.9284384874482 514.9750444647206,491.1379991966413" stroke="#803fcc" stroke-linecap="round" stroke-width="5" /><polyline clip-path="url(#border_clip)" fill="none" points="765.8586091871875,392.8216626433342 547.843181439169,79.79419772627853" stroke="#ca8874" stroke-linecap="round" stroke-width="2" /><polyline clip-path="url(#border_clip)" fill="none" points="243.30661618605393,744.4752570679454 4.768815808612146,307.6261906973732" stroke="#f6a19f" stroke-linecap="round" stroke-width="5" /><polyline clip-path="url(#border_clip)" fill="none" points="700.2191487594124,140.8389900231894 469.3706738129329,905.3312743900539" stroke="#449e5a" stroke-linecap="round" stroke-width="7" /><polyline clip-path="url(#border_clip)" fill="none" points="405.9661688981834,539.2883000691392 377.4786463740299,78.34955396464011" stroke="#954fc0" stroke-linecap="round" stroke-width="8" /><polyline clip-path="url(#border_clip)" fill="none" points="56.72667064751454,671.4229898561249 771.8904386485367,149.8241492834976" stroke="#cf19ed" stroke-linecap="round" stroke-width="7" /><polyline clip-path="url(#border_clip)" fill="none" points="624.5516733689046,18.253659434364124 46.818447712258035,568.9358137396612" stroke="#4a6567" stroke-linecap="round" stroke-width="10" /><polyline clip-path="url(#border_clip)" fill="none" points="198.33429818565378,343.9968090028525 613.9774822250885,448.9160316041801" stroke="#f8e0b9" stroke-linecap="round" stroke-width="9" /><polyline clip-path="url(#border_clip)" fill="none" points="553.595431689135,376.9797918889675 924.901150106271,11.033487147577603" stroke="#9a5574" stroke-linecap="round" stroke-width="4" /><polyline clip-path="url(#border_clip)" fill="none" points="104.543182275797,612.628157167146 465.7670504791373,862.293312819888" stroke="#5bef66" stroke-linecap="round" stroke-width="4" /><polyline clip-path="url(#border_clip)" fill="none" points="832.6373002814082,774.2160474013003 555.1733347892944,443.88714146597545" stroke="#0da56c" stroke-linecap="round" stroke-width="10" /><polyline clip-path="url(#border_clip)" fill="none" points="186.67878316475935,773.2038611242953 131.0117027840734,878.6130193653526" stroke="#dcf587" stroke-linecap="round" stroke-width="2" /><polyline clip-path="url(#border_clip)" fill="none" points="807.0240986223235,902.5278104774247 399.49865042220483,602.3174637827148" stroke="#02ff33" stroke-linecap="round" stroke-width="7" /><polyline clip-path="url(#border_clip)" fill="none" points="822.8143215761363,680.1369764206989 823.8927859729295,118.97087021782909" stroke="#27f041" stroke-linecap="round" stroke-width="4" /><polyline clip-path="url(#border_clip)" fill="none" points="629.8320103029045,996.0666601282499 969.8558619184913,807.7554009962037" stroke="#fb8469" stroke-linecap="round" stroke-width="4" /></svg>