<?xml version="1.0" encoding="utf-8" ?>
<svg baseProfile="full" height="1000px" version="1.1" width="1000px" xmlns="http://www.w3.org/2000/svg" xmlns:ev="http://www.w3.org/2001/xml-events" xmlns:xlink="http://www.w3.org/1999/xlink"><defs><clipPath id="border_clip"><rect height="1000" width="1000" x="0" y="0" /></clipPath></defs><polyline clip-path="url(#border_clip)" fill="none" points="500.5,500.5 500.5,500.5 -9.5,-9.5" stroke="black" stroke-linecap="round" stroke-width="1" /><polygon clip-path="url(#border_clip)" fill="#e9ee4b" fill-rule="evenodd" points="-9.5,-9.5 1000.5,-9.5 1000.5,1000.5 -9.499999999999943,1000.5000000000001 -9.500000000000114,-9.499999999999886" stroke-width="0" /><polyline clip-path="url(#border_clip)" fill="none" points="-9.5,-9.5 1000.5,-9.5 1000.5,1000.5 -9.499999999999943,1000.5000000000001 -9.500000000000114,-9.499999999999886" stroke="black" stroke-linecap="round" stroke-width="1" /><polygon clip-path="url(#border_clip)" fill="#8b764e" fill-rule="evenodd" points="464.89366579559896,224.98813227266174 335.8558806317176,299.48813227266174 335.8558806317175,150.48813227266174 464.8936657955989,224.9881322726617" stroke-width="0" /><polygon clip-path="url(#border_clip)" fill="#1244a9" fill-rule="evenodd" points="68.21842063955103,952.2104878022199 66.02477245825838,970.0763185317636 51.649333277407095,959.2436481150268 68.21842063955103,952.2104878022199" stroke-width="0" /><polygon clip-path="url(#border_clip)" fill="#9c9842" fill-rule="evenodd" points="463.91315775206925,424.0545895793405 329.9194272804908,407.6022282196458 411.16445540601705,299.78643436326115 463.9131577520693,424.0545895793404" stroke-width="0" /><polygon clip-path="url(#border_clip)" fill="#7b9951" fill-rule="evenodd" points="9.962422329540743,135.15390305212065 15.092648344808765,282.0643546239276 -114.70064780545363,213.05203489440214 9.96242232954063,135.15390305212065" stroke-width="0" /><polygon clip-path="url(#border_clip)" fill="#698724" fill-rule="evenodd" points="546.8254508278599,426.3254912400642 671.8960354604103,448.37880980376383 590.2620090302203,545.6664540798743 546.8254508278599,426.32549124006425" stroke-width="0" /><polygon clip-path="url(#border_clip)" fill="#44c5c7" fill-rule="evenodd" points="247.46355244842016,803.2314586961008 257.4391929510184,803.929023433542 251.84726391631096,812.2193991590925 247.46355244842016,803.2314586961008" stroke-width="0" /><polygon clip-path="url(#border_clip)" fill="#d1c101" fill-rule="evenodd" points="224.41912169639528,703.8705893647481 279.2591990811557,722.7535423232628 235.48604342823523,760.8049660047125 224.41912169639528,703.8705893647481" stroke-width="0" /><polygon clip-path="url(#border_clip)" fill="#00c9de" fill-rule="evenodd" points="568.8396355134067,764.9220868048857 580.7939718905077,763.8762178919137 575.7225527496194,774.7519113363535 568.8396355134067,764.9220868048857" stroke-width="0" /><polygon clip-path="url(#border_clip)" fill="#32c640" fill-rule="evenodd" points="175.34772829516606,414.81647407017437 48.64823916485807,458.44260676743414 74.21664454531413,326.9045641854472 175.34772829516606,414.8164740701743" stroke-width="0" /><polygon clip-path="url(#border_clip)" fill="#20b163" fill-rule="evenodd" points="816.2058054198066,918.9008338302556 713.5119585051148,958.3213082802394 730.7197496595394,849.6755908147743 816.2058054198066,918.9008338302556" stroke-width="0" /><polygon clip-path="url(#border_clip)" fill="#ddfca3" fill-rule="evenodd" points="908.4988920349642,379.87297662452505 922.6368870105714,313.35893977462626 973.1707351430344,358.85982100702813 908.4988920349643,379.87297662452505" stroke-width="0" /><polygon clip-path="url(#border_clip)" fill="#e93f82" fill-rule="evenodd" points="480.37203518522006,615.0679064629632 625.283773324853,632.8608306001133 537.4187799446551,749.4616150670187 480.37203518522,615.0679064629632" stroke-width="0" /><polygon clip-path="url(#border_clip)" fill="#118454" fill-rule="evenodd" points="516.1896482625868,299.95304904138334 500.076898363444,401.6849481226825 420.0308643333756,336.86494784455016 516.1896482625867,299.95304904138334" stroke-width="0" /><polygon clip-path="url(#border_clip)" fill="#cbe485" fill-rule="evenodd" points="40.75513241084212,796.8075143728202 -16.501384794443197,870.0925144582457 -51.339797982123855,783.864415983535 40.75513241084212,796.80751437282" stroke-width="0" /><polygon clip-path="url(#border_clip)" fill="#f8c880" fill-rule="evenodd" points="111.18439355725366,411.96787019894725 52.96545541235349,549.1230933633612 -36.70498303730278,430.12640236631586 111.18439355725366,411.96787019894725" stroke-width="0" /><polygon clip-path="url(#border_clip)" fill="#d34a39" fill-rule="evenodd" points="592.2538357538542,347.7917298928262 569.7896330963097,282.55094817647375 637.5219087541984,295.7167688574545 592.2538357538542,347.7917298928262" stroke-width="0" /><polygon clip-path="url(#border_clip)" fill="#aa2e9a" fill-rule="evenodd" points="82.44097309845529,951.5677784834922 91.79686764958319,982.1695306743093 60.61702557645566,974.9710969353059 82.44097309845523,951.5677784834922" stroke-width="0" /><polygon clip-path="url(#border_clip)" fill="#ae07ce" fill-rule="evenodd" points="204.05761805216878,773.875499782688 182.11120894645268,772.3408573603176 194.41345282280884,754.1020307641065 204.05761805216878,773.875499782688" stroke-width="0" /><polygon clip-path="url(#border_clip)" fill="#ab554b" fill-rule="evenodd" points="316.41084444579394,784.6977777746844 431.194031517455,845.7290809368484 320.9477790171209,914.6185852871664 316.41084444579394,784.6977777746845" stroke-width="0" /><polygon clip-path="url(#border_clip)" fill="#ca5f29" fill-rule="evenodd" points="297.3092968820316,653.2461531033207 340.9701522211181,571.1320269674402 390.2526437948072,650.0004999099867 297.3092968820317,653.2461531033208" stroke-width="0" /><polygon clip-path="url(#border_clip)" fill="#4431b7" fill-rule="evenodd" points="424.03827135546373,192.61221132641822 434.30765604693295,196.55425877141636 425.75905047090646,203.47678307296468 424.03827135546373,192.61221132641822" stroke-width="0" /><polygon clip-path="url(#border_clip)" fill="#f8eccf" fill-rule="evenodd" points="554.7606520903036,503.78688012441955 521.0179939387262,649.9423898422049 411.3149386958494,547.6426358328323 554.7606520903034,503.78688012441955" stroke-width="0" /><polygon clip-path="url(#border_clip)" fill="#f721d3" fill-rule="evenodd" points="82.56732292867667,481.6320620563525 -17.01845467679152,398.06967279710443 105.14158602537532,353.6070541647655 82.56732292867673,481.6320620563525" stroke-width="0" /><polygon clip-path="url(#border_clip)" fill="#3c19e8" fill-rule="evenodd" points="99.35407543058056,230.22250526576022 12.313727747401458,300.70638906334335 -5.206932337106423,190.08529491668867 99.35407543058051,230.22250526576016" stroke-width="0" /><polygon clip-path="url(#border_clip)" fill="#1be166" fill-rule="evenodd" points="333.8539810325012,884.9830844186365 315.79286340056774,903.6859192274417 308.6262921493253,878.6931151330457 333.8539810325012,884.9830844186365" stroke-width="0" /><polygon clip-path="url(#border_clip)" fill="#0d58e5" fill-rule="evenodd" points="686.1114508760368,210.9247727513744 719.9714450652797,303.95434220917826 622.4754775170711,286.76317262015425 686.1114508760367,210.92477275137446" stroke-width="0" /><polygon clip-path="url(#border_clip)" fill="#cd394d" fill-rule="evenodd" points="148.26274370806522,407.26399428159016 141.48893063127394,380.0957139458625 168.40425811754693,387.8135599087379 148.26274370806522,407.26399428159016" stroke-width="0" /><polygon clip-path="url(#border_clip)" fill="#691854" fill-rule="evenodd" points="377.89117180446965,214.1321290162649 276.45597324421226,196.2463667165734 342.6630970419238,117.34378907531755 377.8911718044697,214.1321290162649" stroke-width="0" /><polygon clip-path="url(#border_clip)" fill="#3a27b4" fill-rule="evenodd" points="358.74236157711823,551.8519282344935 358.7423615771204,647.8519282344931 275.60392281381354,599.8519282344953 358.7423615771181,551.8519282344935" stroke-width="0" /><polygon clip-path="url(#border_clip)" fill="#7f3edf" fill-rule="evenodd" points="891.2231532855305,31.97237493691904 802.8920469316563,64.12226840953383 819.2149756323455,-28.44966037361371 891.2231532855305,31.972374936918982" stroke-width="0" /><polygon clip-path="url(#border_clip)" fill="#676ce7" fill-rule="evenodd" points="433.6736905658914,290.1598488083598 442.3234933101659,413.85779104057724 330.87303156906836,359.49976883873455 433.6736905658913,290.1598488083598" stroke-width="0" /><polygon clip-path="url(#border_clip)" fill="#5cbecb" fill-rule="evenodd" points="500.71856221177995,874.1684516254871 556.08554434177,947.6429185498364 464.77129839076906,958.8548981431121 500.71856221177995,874.1684516254871" stroke-width="0" /><polygon clip-path="url(#border_clip)" fill="#aa49ac" fill-rule="evenodd" points="93.73193888831304,864.1626244654713 0.014072803936755918,892.8150515283016 22.059276129632963,797.3267851793486 93.73193888831304,864.1626244654713" stroke-width="0" /><polygon clip-path="url(#border_clip)" fill="#f8bff9" fill-rule="evenodd" points="891.496453631916,573.4208960832611 791.5252372543322,602.0871810882315 816.6851143966949,501.17642555552777 891.4964536319161,573.4208960832611" stroke-width="0" /><polygon clip-path="url(#border_clip)" fill="#649e24" fill-rule="evenodd" points="442.3845108291748,359.69194145316055 461.0956478371302,350.15814095862964 459.9965927560289,371.1293611884756 442.3845108291748,359.69194145316055" stroke-width="0" /><polygon clip-path="url(#border_clip)" fill="#3fe7dd" fill-rule="evenodd" points="922.6580818424225,293.47276267062125 932.6513680016421,212.08397823603298 998.1394798255212,261.4328101344988 922.6580818424225,293.4727626706212" stroke-width="0" /><polygon clip-path="url(#border_clip)" fill="#a5b0a9" fill-rule="evenodd" points="600.7567839239092,952.3499060371462 605.9086267990751,925.8459720840593 626.2857854650904,943.5595658668024 600.7567839239092,952.3499060371462" stroke-width="0" /><polygon clip-path="url(#border_clip)" fill="#cc84c2" fill-rule="evenodd" points="381.8799015234901,330.7185116764165 436.78934833871915,207.38987489466456 516.1403573982058,316.6071691352794 381.87990152349016,330.71851167641654" stroke-width="0" /><polygon clip-path="url(#border_clip)" fill="#1d710c" fill-rule="evenodd" points="169.42475371631133,960.5953146336321 178.17095078770507,955.7472184311687 177.99642672333255,965.7456953827325 169.42475371631133,960.5953146336323" stroke-width="0" /><polygon clip-path="url(#border_clip)" fill="#672382" fill-rule="evenodd" points="599.8221607783418,438.419283624595 540.4883034529029,374.7915115837294 625.2584990892171,355.22076985581066 599.8221607783418,438.419283624595" stroke-width="0" /><polygon clip-path="url(#border_clip)" fill="#534941" fill-rule="evenodd" points="384.3365892241389,680.9986519302456 376.8950384044549,719.2821120847045 347.4613647757662,693.6958099540758 384.33658922413883,680.9986519302456" stroke-width="0" /><polygon clip-path="url(#border_clip)" fill="#11f2c8" fill-rule="evenodd" points="726.0993904306235,551.6933425105693 702.8737816388391,609.1787414937104 664.702770168647,560.3220747700952 726.0993904306235,551.6933425105692" stroke-width="0" /><polygon clip-path="url(#border_clip)" fill="#ba6ab4" fill-rule="evenodd" points="54.82845194911107,161.4566196205564 36.7154220237652,177.20203631632904 32.13600613472738,153.64298391358545 54.82845194911107,161.4566196205564" stroke-width="0" /><polygon clip-path="url(#border_clip)" fill="#b85cdf" fill-rule="evenodd" points="240.04889485966856,498.0453967310261 143.91158291964672,422.93469674129955 257.02801317679234,377.23269234455483 240.04889485966862,498.045396731026" stroke-width="0" /><polygon clip-path="url(#border_clip)" fill="#9dea17" fill-rule="evenodd" points="877.2615262910219,486.05699402638675 885.5486416425695,418.5638557147771 939.8558563257864,459.4872772891142 877.2615262910219,486.05699402638675" stroke-width="0" /><polygon clip-path="url(#border_clip)" fill="#2a95f7" fill-rule="evenodd" points="900.1368160058107,73.99876138225517 921.7497462838862,66.13229808576409 917.7558381975475,88.78287640504482 900.1368160058107,73.99876138225517" stroke-width="0" /><polygon clip-path="url(#border_clip)" fill="#e71a55" fill-rule="evenodd" points="354.1650005069133,806.2273091798905 333.98495451672824,933.6391051166629 233.73312548877692,852.4567746712382 354.16500050691326,806.2273091798905" stroke-width="0" /><polygon clip-path="url(#border_clip)" fill="#084db1" fill-rule="evenodd" points="46.54468792308302,917.3888956489236 100.10622498361226,846.3103352547132 134.88129541916032,928.2352672119785 46.54468792308302,917.3888956489236" stroke-width="0" /><polygon clip-path="url(#border_clip)" fill="#fd1960" fill-rule="evenodd" points="594.2640198807112,591.741344384817 606.807435472834,711.0839718290083 497.18198055572105,662.2755746599169 594.2640198807112,591.741344384817" stroke-width="0" /><polygon clip-path="url(#border_clip)" fill="#2ea6f3" fill-rule="evenodd" points="99.21136939536217,216.07407026462414 90.26316324769391,195.97607019648746 112.14264494579584,198.27569638837497 99.21136939536223,216.07407026462414" stroke-width="0" /><polygon clip-path="url(#border_clip)" fill="#e3056f" fill-rule="evenodd" points="849.3859633830695,364.65367085839745 857.2660709191368,370.8102856116536 847.9942323734692,374.5563515458131 849.3859633830695,364.65367085839745" stroke-width="0" /><polygon clip-path="url(#border_clip)" fill="#ce083b" fill-rule="evenodd" points="119.90026412547797,475.00764604614557 44.921851842290664,496.5073597998743 63.79175969906157,420.82429315034653 119.90026412547797,475.00764604614557" stroke-width="0" /><polygon clip-path="url(#border_clip)" fill="#43b3dd" fill-rule="evenodd" points="102.30227168975796,25.66320174099974 89.28669911133363,54.89665638556323 70.47757103797363,29.00811256556591 102.30227168975796,25.66320174099974" stroke-width="0" /><polygon clip-path="url(#border_clip)" fill="#958e7c" fill-rule="evenodd" points="748.9366698899512,611.5112612402587 734.6018404910603,509.5136501598786 830.1017775114401,548.0981292817132 748.9366698899512,611.5112612402587" stroke-width="0" /><polygon clip-path="url(#border_clip)" fill="#60860e" fill-rule="evenodd" points="538.6549973461462,415.8430035907946 568.6549973461437,363.8814793637275 598.6549973461456,415.843003590792 538.6549973461462,415.8430035907946" stroke-width="0" /><polygon clip-path="url(#border_clip)" fill="#d98094" fill-rule="evenodd" points="870.9793711265837,78.31768164063061 924.7345635583722,-61.719382333950534 1019.1326222158518,54.85251188458983 870.9793711265838,78.31768164063061" stroke-width="0" /><polygon clip-path="url(#border_clip)" fill="#b6e5d4" fill-rule="evenodd" points="955.869324554054,981.7844940849727 1001.6173317409937,976.9761847746588 982.9074461595089,1018.9992758262188 955.8693245540538,981.7844940849727" stroke-width="0" /><polygon clip-path="url(#border_clip)" fill="#b99a42" fill-rule="evenodd" points="457.4776092497866,528.1200591024117 505.4989144888618,653.2198362530332 373.1486768491139,632.2576179376483 457.4776092497865,528.1200591024117" stroke-width="0" /><polygon clip-path="url(#border_clip)" fill="#3194f8" fill-rule="evenodd" points="677.8531188366951,551.7676768593756 716.6626940055104,594.8700767370623 659.9301331629508,606.9289548044947 677.8531188366951,551.7676768593756" stroke-width="0" /><polygon clip-path="url(#border_clip)" fill="#0e25b9" fill-rule="evenodd" points="421.9000099039114,827.4705727457294 367.875140434901,721.4407963673175 486.7120550706942,727.6687751602221 421.90000990391144,827.4705727457294" stroke-width="0" /><polygon clip-path="url(#border_clip)" fill="#7117ca" fill-rule="evenodd" points="479.5915678984542,654.6696158242484 578.1411205448528,749.8378125771252 446.4482682013064,787.6001303240599 479.5915678984542,654.6696158242484" stroke-width="0" /><polygon clip-path="url(#border_clip)" fill="#c8f677" fill-rule="evenodd" points="584.8670152382595,308.0853343000856 599.2798139846105,226.3462908000726 662.8615027634876,279.69766240405164 584.8670152382596,308.0853343000856" stroke-width="0" /><polygon clip-path="url(#border_clip)" fill="#dfa700" fill-rule="evenodd" points="52.187818447158975,327.91270283081514 -71.49720666724636,303.87076941337693 11.166230985551806,208.77736230530468 52.18781844715903,327.9127028308151" stroke-width="0" /><polygon clip-path="url(#border_clip)" fill="#d64897" fill-rule="evenodd" points="609.1440926509797,633.7143229156478 740.7032839869546,563.7630600605443 735.5032589782896,712.6722932863879 609.1440926509797,633.7143229156479" stroke-width="0" /><polygon clip-path="url(#border_clip)" fill="#2aa35c" fill-rule="evenodd" points="554.4358345962111,757.4411977015793 536.3115872632575,771.6014116340702 533.1106059411748,748.8252460530146 554.4358345962111,757.4411977015793" stroke-width="0" /><polygon clip-path="url(#border_clip)" fill="#262bf2" fill-rule="evenodd" points="106.0600697264054,472.4343497729834 144.99621101765456,592.2674708261692 21.74961332519524,566.0705977831384 106.06006972640529,472.4343497729834" stroke-width="0" /><polygon clip-path="url(#border_clip)" fill="#773f3b" fill-rule="evenodd" points="732.946622413068,324.9016756043118 817.2115111561507,254.19503853878888 836.3128106995186,362.5238913701293 732.946622413068,324.90167560431183" stroke-width="0" /><polygon clip-path="url(#border_clip)" fill="#f224f4" fill-rule="evenodd" points="998.7747978010776,81.789386615517 989.7112749546745,111.4348340503712 968.5693257927361,88.76286930017835 998.7747978010776,81.789386615517" stroke-width="0" /><polygon clip-path="url(#border_clip)" fill="#2006f3" fill-rule="evenodd" points="345.92847900810307,408.04558371629713 425.6556036609036,521.9077178724611 287.1845406261535,534.022366114393 345.928479008103,408.04558371629713" stroke-width="0" /><polyline clip-path="url(#border_clip)" fill="none" points="989.7258658665668,221.48803713799884 989.7258658665668,221.48803713799884" stroke="#cd560b" stroke-linecap="round" stroke-width="69" /><polyline clip-path="url(#border_clip)" fill="none" points="726.7577187402424,548.8612003131157 726.7577187402424,548.8612003131157" stroke="#63f37b" stroke-linecap="round" stroke-width="63" /><polyline clip-path="url(#border_clip)" fill="none" points="779.2260466724592,395.3092808148365 779.2260466724592,395.3092808148365" stroke="#4d486a" stroke-linecap="round" stroke-width="53" /><polyline clip-path="url(#border_clip)" fill="none" points="482.86475479694366,508.58487414116996 482.86475479694366,508.58487414116996" stroke="#808265" stroke-linecap="round" stroke-width="72" /><polyline clip-path="url(#border_clip)" fill="none" points="465.8972025057115,717.9924906026126 465.8972025057115,717.9924906026126" stroke="#c706c9" stroke-linecap="round" stroke-width="65" /><polyline clip-path="url(#border_clip)" fill="none" points="933.9789416612956,588.8722803424816 933.9789416612956,588.8722803424816" stroke="#f2bae2" stroke-linecap="round" stroke-width="41" /><polyline clip-path="url(#border_clip)" fill="none" points="395.39778634043836,590.5329798042577 395.39778634043836,590.5329798042577" stroke="#730caf" stroke-linecap="round" stroke-width="52" /><polyline clip-path="url(#border_clip)" fill="none" points="491.41473317800404,77.68691795340493 491.41473317800404,77.68691795340493" stroke="#92553b" stroke-linecap="round" stroke-width="15" /><polyline clip-path="url(#border_clip)" fill="none" points="929.03897161844,327.6219950777984 929.03897161844,327.6219950777984" stroke="#89667b" stroke-linecap="round" stroke-width="52" /><polyline clip-path="url(#border_clip)" fill="none" points="243.55835839102195,640.873848430545 243.55835839102195,640.873848430545" stroke="#822715" stroke-linecap="round" stroke-width="11" /><polyline clip-path="url(#border_clip)" fill="none" points="200.69209701209007,729.4709137975121 200.69209701209007,729.4709137975121" stroke="#9124be" stroke-linecap="round" stroke-width="27" /><polyline clip-path="url(#border_clip)" fill="none" points="926.2766548104476,754.4809614727596 926.2766548104476,754.4809614727596" stroke="#426f97" stroke-linecap="round" stroke-width="20" /><polyline clip-path="url(#border_clip)" fill="none" points="871.1336774385044,812.1591921255663 871.1336774385044,812.1591921255663" stroke="#2aaf2e" stroke-linecap="round" stroke-width="44" /><polyline clip-path="url(#border_clip)" fill="none" points="628.9266175263282,544.2027659934179 628.9266175263282,544.2027659934179" stroke="#843154" stroke-linecap="round" stroke-width="29" /><polyline clip-path="url(#border_clip)" fill="none" points="826.6522516964747,284.10166936459166 826.6522516964747,284.10166936459166" stroke="#6f83bd" stroke-linecap="round" stroke-width="71" /><polyline clip-path="url(#border_clip)" fill="none" points="478.6097538529927,748.7400829229721 478.6097538529927,748.7400829229721" stroke="#eac562" stroke-linecap="round" stroke-width="48" /><polyline clip-path="url(#border_clip)" fill="none" points="634.2772420647187,425.0098686993174 634.2772420647187,425.0098686993174" stroke="#69933a" stroke-linecap="round" stroke-width="7" /><polyline clip-path="url(#border_clip)" fill="none" points="433.73521102292506,23.570650523840186 433.73521102292506,23.570650523840186" stroke="#86c4ec" stroke-linecap="round" stroke-width="32" /><polyline clip-path="url(#border_clip)" fill="none" points="658.0843644174214,336.30160233926904 658.0843644174214,336.30160233926904" stroke="#344eb8" stroke-linecap="round" stroke-width="62" /><polyline clip-path="url(#border_clip)" fill="none" points="439.66757358741864,626.115784775276 439.66757358741864,626.115784775276" stroke="#11751d" stroke-linecap="round" stroke-width="35" /><polyline clip-path="url(#border_clip)" fill="none" points="852.2060276139206,227.78348255380928 852.2060276139206,227.78348255380928" stroke="#a11101" stroke-linecap="round" stroke-width="57" /><polyline clip-path="url(#border_clip)" fill="none" points="90.8846561134809,31.253039783023155 90.8846561134809,31.253039783023155" stroke="#56d09e" stroke-linecap="round" stroke-width="42" /><polyline clip-path="url(#border_clip)" fill="none" points="528.243478644936,339.95846885647944 528.243478644936,339.95846885647944" stroke="#3dafd9" stroke-linecap="round" stroke-width="31" /><polyline clip-path="url(#border_clip)" fill="none" points="186.5722476922133,516.8137827717087 186.5722476922133,516.8137827717087" stroke="#e2bf5f" stroke-linecap="round" stroke-width="20" /><polyline clip-path="url(#border_clip)" fill="none" points="886.3623073488064,88.19808863826347 886.3623073488064,88.19808863826347" stroke="#51f4ff" stroke-linecap="round" stroke-width="52" /><polyline clip-path="url(#border_clip)" fill="none" points="238.82824513734874,179.3819915390377 238.82824513734874,179.3819915390377" stroke="#0e26c2" stroke-linecap="round" stroke-width="19" /><polyline clip-path="url(#border_clip)" fill="none" points="790.9320455240115,548.9654858271601 790.9320455240115,548.9654858271601" stroke="#d6f284" stroke-linecap="round" stroke-width="5" /><polyline clip-path="url(#border_clip)" fill="none" points="778.9627191579173,405.31275106779236 778.9627191579173,405.31275106779236" stroke="#7c6de9" stroke-linecap="round" stroke-width="34" /><polyline clip-path="url(#border_clip)" fill="none" points="415.49211260845584,96.07948404929925 415.49211260845584,96.07948404929925" stroke="#e62ae9" stroke-linecap="round" stroke-width="74" /><polyline clip-path="url(#border_clip)" fill="none" points="424.76797599370514,999.265740050531 424.76797599370514,999.265740050531" stroke="#9fed79" stroke-linecap="round" stroke-width="6" /><polyline clip-path="url(#border_clip)" fill="none" points="126.40621848001228,36.885869755256806 126.40621848001228,36.885869755256806" stroke="#24d8f5" stroke-linecap="round" stroke-width="46" /><polyline clip-path="url(#border_clip)" fill="none" points="546.1950267473271,908.628418083415 546.1950267473271,908.628418083415" stroke="#b131fd" stroke-linecap="round" stroke-width="46" /><polyline clip-path="url(#border_clip)" fill="none" points="606.6414700960646,835.2344645164846 606.6414700960646,835.2344645164846" stroke="#e6934a" stroke-linecap="round" stroke-width="4" /><polyline clip-path="url(#border_clip)" fill="none" points="731.9094820491817,359.2820118157798 731.9094820491817,359.2820118157798" stroke="#695626" stroke-linecap="round" stroke-width="42" /><polyline clip-path="url(#border_clip)" fill="none" points="472.557691013571,63.791104939658055 472.557691013571,63.791104939658055" stroke="#cedb57" stroke-linecap="round" stroke-width="59" /><polyline clip-path="url(#border_clip)" fill="none" points="512.6517087346147,839.0416391071699 512.6517087346147,839.0416391071699" stroke="#6427c3" stroke-linecap="round" stroke-width="66" /><polyline clip-path="url(#border_clip)" fill="none" points="465.27269050906324,970.4989014248965 465.27269050906324,970.4989014248965" stroke="#c84827" stroke-linecap="round" stroke-width="72" /><polyline clip-path="url(#border_clip)" fill="none" points="378.1115329786842,152.8276105495366 378.1115329786842,152.8276105495366" stroke="#405ef9" stroke-linecap="round" stroke-width="15" /><polyline clip-path="url(#border_clip)" fill="none" points="852.44382115479,391.68262821598546 852.44382115479,391.68262821598546" stroke="#fde9a5" stroke-linecap="round" stroke-width="44" /><polyline clip-path="url(#border_clip)" fill="none" points="985.4288257663586,732.8271056218396 985.4288257663586,732.8271056218396" stroke="#ec49d3" stroke-linecap="round" stroke-width="20" /><polyline clip-path="url(#border_clip)" fill="none" points="34.355835807424796,128.94767705754492 34.355835807424796,128.94767705754492" stroke="#75c27a" stroke-linecap="round" stroke-width="31" /><polyline clip-path="url(#border_clip)" fill="none" points="54.514921671696754,437.4844720502708 54.514921671696754,437.4844720502708" stroke="#3c8e66" stroke-linecap="round" stroke-width="66" /><polyline clip-path="url(#border_clip)" fill="none" points="381.9205647029976,185.71493106787835 381.9205647029976,185.71493106787835" stroke="#fb823b" stroke-linecap="round" stroke-width="47" /><polyline clip-path="url(#border_clip)" fill="none" points="202.8674987929117,258.99472074168534 202.8674987929117,258.99472074168534" stroke="#1bd449" stroke-linecap="round" stroke-width="46" /><polyline clip-path="url(#border_clip)" fill="none" points="722.4510211517636,203.49486801362144 722.4510211517636,203.49486801362144" stroke="#6acbfa" stroke-linecap="round" stroke-width="29" /><polyline clip-path="url(#border_clip)" fill="none" points="491.1719307572454,971.7863140353481 491.1719307572454,971.7863140353481" stroke="#057d11" stroke-linecap="round" stroke-width="6" /><polyline clip-path="url(#border_clip)" fill="none" points="370.2267621774773,607.4686954716528 370.2267621774773,607.4686954716528" stroke="#e43045" stroke-linecap="round" stroke-width="52" /><polyline clip-path="url(#border_clip)" fill="none" points="358.6803495788638,386.5868951359282 358.6803495788638,386.5868951359282" stroke="#5350bd" stroke-linecap="round" stroke-width="39" /><polyline clip-path="url(#border_clip)" fill="none" points="52.04917904425247,184.63569798402585 52.04917904425247,184.63569798402585" stroke="#9260bc" stroke-linecap="round" stroke-width="18" /><polyline clip-path="url(#border_clip)" fill="none" points="258.8057522807568,705.7634840069843 258.8057522807568,705.7634840069843" stroke="#2024f9" stroke-linecap="round" stroke-width="37" /><polyline clip-path="url(#border_clip)" fill="none" points="982.4291171003786,398.8164769982511 982.4291171003786,398.8164769982511" stroke="#79ccbc" stroke-linecap="round" stroke-width="25" /><polyline clip-path="url(#border_clip)" fill="none" points="686.3999222830149,470.65130652128533 686.3999222830149,470.65130652128533" stroke="#8656d7" stroke-linecap="round" stroke-width="2" /><polyline clip-path="url(#border_clip)" fill="none" points="505.4827308060564,142.80234358414032 505.4827308060564,142.80234358414032" stroke="#7ff0e4" stroke-linecap="round" stroke-width="13" /><polyline clip-path="url(#border_clip)" fill="none" points="699.8607425498726,809.701083595716 699.8607425498726,809.701083595716" stroke="#8ed97d" stroke-linecap="round" stroke-width="45" /><polyline clip-path="url(#border_clip)" fill="none" points="855.4431163568271,422.2623747652669 855.4431163568271,422.2623747652669" stroke="#11abfb" stroke-linecap="round" stroke-width="9" /><polyline clip-path="url(#border_clip)" fill="none" points="786.7810839928705,591.6624696865086 786.7810839928705,591.6624696865086" stroke="#4f7d58" stroke-linecap="round" stroke-width="15" /><polyline clip-path="url(#border_clip)" fill="none" points="756.5426488619289,53.84285469905609 756.5426488619289,53.84285469905609" stroke="#e77cc9" stroke-linecap="round" stroke-width="25" /><polyline clip-path="url(#border_clip)" fill="none" points="75.8979079100132,568.3945487762861 75.8979079100132,568.3945487762861" stroke="#119beb" stroke-linecap="round" stroke-width="73" /><polyline clip-path="url(#border_clip)" fill="none" points="216.18345498506682,820.7794260600156 216.18345498506682,820.7794260600156" stroke="#bcd086" stroke-linecap="round" stroke-width="64" /><polyline clip-path="url(#border_clip)" fill="none" points="403.93141988530965,370.1566191582298 403.93141988530965,370.1566191582298" stroke="#6a058d" stroke-linecap="round" stroke-width="47" /><polyline clip-path="url(#border_clip)" fill="none" points="79.88107563550301,544.5311441676848 79.88107563550301,544.5311441676848" stroke="#1ba6a5" stroke-linecap="round" stroke-width="69" /><polyline clip-path="url(#border_clip)" fill="none" points="47.57317499915689,589.0659957461934 47.57317499915689,589.0659957461934" stroke="#a30a4e" stroke-linecap="round" stroke-width="48" /><polyline clip-path="url(#border_clip)" fill="none" points="940.3742169841526,447.0308054604389 940.3742169841526,447.0308054604389" stroke="#ce43f6" stroke-linecap="round" stroke-width="28" /><polyline clip-path="url(#border_clip)" fill="none" points="527.970922765586,604.0790273861614 527.970922765586,604.0790273861614" stroke="#702dcf" stroke-linecap="round" stroke-width="19" /><polyline clip-path="url(#border_clip)" fill="none" points="695.3513704918263,619.9173542449726 695.3513704918263,619.9173542449726" stroke="#263d8e" stroke-linecap="round" stroke-width="3" /><polyline clip-path="url(#border_clip)" fill="none" points="470.46304235990294,656.9159813321269 470.46304235990294,656.9159813321269" stroke="#3efd33" stroke-linecap="round" stroke-width="32" /><polyline clip-path="url(#border_clip)" fill="none" points="171.94672028323572,160.1669693548983 171.94672028323572,160.1669693548983" stroke="#7bba9f" stroke-linecap="round" stroke-width="13" /><polyline clip-path="url(#border_clip)" fill="none" points="783.2474733732977,162.972375216376 783.2474733732977,162.972375216376" stroke="#9b5e7f" stroke-linecap="round" stroke-width="8" /><polyline clip-path="url(#border_clip)" fill="none" points="969.8218094018383,739.6418932140634 969.8218094018383,739.6418932140634" stroke="#3d9aed" stroke-linecap="round" stroke-width="32" /></svg>