<?xml version="1.0" encoding="utf-8" ?>
<svg baseProfile="full" height="1000px" version="1.1" width="1000px" xmlns="http://www.w3.org/2000/svg" xmlns:ev="http://www.w3.org/2001/xml-events" xmlns:xlink="http://www.w3.org/1999/xlink"><defs><clipPath id="border_clip"><rect height="1000" width="1000" x="0" y="0" /></clipPath></defs><polyline clip-path="url(#border_clip)" fill="none" points="500.5,500.5 500.5,500.5 -9.5,-9.5" stroke="black" stroke-linecap="round" stroke-width="1" /><polygon clip-path="url(#border_clip)" fill="#e03ac7" fill-rule="evenodd" points="-9.5,-9.5 1000.5,-9.5 1000.5,1000.5 -9.499999999999943,1000.5000000000001 -9.500000000000114,-9.499999999999886" stroke-width="0" /><polyline clip-path="url(#border_clip)" fill="none" points="-9.5,-9.5 1000.5,-9.5 1000.5,1000.5 -9.499999999999943,1000.5000000000001 -9.500000000000114,-9.499999999999886" stroke="black" stroke-linecap="round" stroke-width="1" /><polygon clip-path="url(#border_clip)" fill="#b28e04" fill-rule="evenodd" points="612.8672318114827,949.31994969016 620.532520598454,997.7166783793217 574.7870797000911,980.1566488516021 612.8672318114827,949.31994969016" stroke-width="0" /><polygon clip-path="url(#border_clip)" fill="#bebbe5" fill-rule="evenodd" points="956.1197799965462,31.57069206568491 883.8536745097895,111.83033321724355 850.4798391172951,9.116229457367012 956.1197799965462,31.570692065684852" stroke-width="0" /><polygon clip-path="url(#border_clip)" fill="#651771" fill-rule="evenodd" points="60.05023057011067,836.714282264521 8.645511156145005,889.9454274895812 -11.751653174313105,818.8120619901457 60.05023057011067,836.714282264521" stroke-width="0" /><polygon clip-path="url(#border_clip)" fill="#680bae" fill-rule="evenodd" points="898.2108217714315,563.0870028179611 843.0556218668652,609.3677107153921 830.5529530748461,538.4615524985131 898.2108217714315,563.0870028179611" stroke-width="0" /><polygon clip-path="url(#border_clip)" fill="#39e82d" fill-rule="evenodd" points="161.74784359070208,142.05637616665217 208.10703631904136,123.32604649585642 201.14838127103826,172.83944993293494 161.74784359070208,142.05637616665217" stroke-width="0" /><polygon clip-path="url(#border_clip)" fill="#b92326" fill-rule="evenodd" points="85.59804516405251,314.7409094540694 88.46018009470072,329.4653172057844 74.27740146071096,324.5817948889271 85.59804516405251,314.7409094540694" stroke-width="0" /><polygon clip-path="url(#border_clip)" fill="#6c2c03" fill-rule="evenodd" points="402.31002496207117,776.2984013712392 435.3996557776493,808.2526864123528 391.1816177644867,820.9320047799349 402.31002496207117,776.298401371239" stroke-width="0" /><polygon clip-path="url(#border_clip)" fill="#d3e39e" fill-rule="evenodd" points="384.5837201546303,217.5059822380722 452.35264496480806,164.55909536006527 464.3215316473742,249.72214927184018 384.5837201546303,217.50598223807225" stroke-width="0" /><polygon clip-path="url(#border_clip)" fill="#a12824" fill-rule="evenodd" points="849.2058890374861,719.343062938448 926.3782657877211,767.5657159836692 846.0300348375591,810.2876281971857 849.205889037486,719.343062938448" stroke-width="0" /><polygon clip-path="url(#border_clip)" fill="#0c6ff9" fill-rule="evenodd" points="13.32557408436378,670.8590198932867 63.18606028764191,613.5010917963558 87.92924002638631,685.3605035419037 13.325574084363836,670.8590198932868" stroke-width="0" /><polygon clip-path="url(#border_clip)" fill="#3a9b3c" fill-rule="evenodd" points="861.4064072562655,299.0723831723384 834.1207209174186,158.6996959393228 969.3298772281212,205.25594202669515 861.4064072562655,299.0723831723384" stroke-width="0" /><polygon clip-path="url(#border_clip)" fill="#f6241c" fill-rule="evenodd" points="151.0139138387254,978.8581547676736 121.05502779608821,977.2880760803855 137.39419884653876,952.1279590420227 151.0139138387254,978.8581547676736" stroke-width="0" /><polygon clip-path="url(#border_clip)" fill="#6e3576" fill-rule="evenodd" points="192.36492312576985,837.7358242804984 106.82829680368627,794.1527363055027 187.34067132644634,741.8673889440595 192.36492312576985,837.7358242804984" stroke-width="0" /><polygon clip-path="url(#border_clip)" fill="#1d7b95" fill-rule="evenodd" points="600.6196758932799,882.3839713786044 643.119675893279,808.7718120569268 685.6196758932797,882.3839713786035 600.6196758932799,882.3839713786044" stroke-width="0" /><polygon clip-path="url(#border_clip)" fill="#f354ce" fill-rule="evenodd" points="39.76974213871972,390.91305489280364 25.863977391846618,348.115511659522 69.88061942486792,357.4715377463206 39.76974213871972,390.91305489280364" stroke-width="0" /><polygon clip-path="url(#border_clip)" fill="#711252" fill-rule="evenodd" points="127.86332524499647,636.2348064260962 34.40590318448034,557.8147180443398 149.0484029203604,516.0882605586067 127.86332524499653,636.2348064260962" stroke-width="0" /><polygon clip-path="url(#border_clip)" fill="#9df0b4" fill-rule="evenodd" points="405.2097947341689,841.9228208676218 427.98587070318956,756.9213481541836 490.2112674476065,819.1467448985989 405.20979473416895,841.9228208676218" stroke-width="0" /><polygon clip-path="url(#border_clip)" fill="#bfcd98" fill-rule="evenodd" points="378.6494466947084,139.94119512975527 308.69208880337186,137.4982303605812 345.78643729969525,78.13486362963101 378.64944669470844,139.94119512975527" stroke-width="0" /><polygon clip-path="url(#border_clip)" fill="#03d3d0" fill-rule="evenodd" points="761.8889795547684,956.5481790749657 906.3372107780708,943.910596376553 845.0575628256717,1075.325225496868 761.8889795547683,956.5481790749657" stroke-width="0" /><polygon clip-path="url(#border_clip)" fill="#bfa4c6" fill-rule="evenodd" points="212.93984503318183,425.1333502900419 298.5412812734797,342.46900420542005 327.32998684984204,457.9341956322628 212.93984503318188,425.13335029004196" stroke-width="0" /><polygon clip-path="url(#border_clip)" fill="#140624" fill-rule="evenodd" points="944.1964379646554,549.9269840766729 943.9870090874082,561.9251564185496 933.7010014789828,555.7446995196291 944.1964379646554,549.9269840766729" stroke-width="0" /><polygon clip-path="url(#border_clip)" fill="#c7e4a6" fill-rule="evenodd" points="684.79605363372,822.1852515555266 562.7423990346591,736.7223625392232 697.7822593031184,673.7522415398569 684.7960536337201,822.1852515555266" stroke-width="0" /><polygon clip-path="url(#border_clip)" fill="#b2a060" fill-rule="evenodd" points="604.2443135840133,138.65926548168932 572.7477207093737,176.19544319451973 555.988733686415,130.15050477601068 604.2443135840133,138.65926548168926" stroke-width="0" /><polygon clip-path="url(#border_clip)" fill="#e698b2" fill-rule="evenodd" points="642.4745749487408,670.058609055284 664.7609247669955,656.6676191076223 665.2146873343654,682.6636591816883 642.4745749487408,670.058609055284" stroke-width="0" /><polygon clip-path="url(#border_clip)" fill="#8cbd3e" fill-rule="evenodd" points="128.31786131680315,889.5180996231013 168.28527791026505,750.1351537120448 269.01074162682136,854.4394247611467 128.31786131680315,889.5180996231013" stroke-width="0" /><polygon clip-path="url(#border_clip)" fill="#d96309" fill-rule="evenodd" points="839.1472756525213,716.5188909321644 750.85251636663,763.4660472107552 754.3424660368779,663.5269645088459 839.1472756525213,716.5188909321644" stroke-width="0" /><polygon clip-path="url(#border_clip)" fill="#3b17b4" fill-rule="evenodd" points="937.4841466089676,821.230302585293 955.6103023497003,812.7779373504786 953.8671874947477,832.7018313123135 937.4841466089676,821.230302585293" stroke-width="0" /><polygon clip-path="url(#border_clip)" fill="#ee821d" fill-rule="evenodd" points="467.26078917969454,517.9324442025244 449.1337434868836,458.6415493328169 509.54468750356824,472.58851470213506 467.2607891796946,517.9324442025245" stroke-width="0" /><polygon clip-path="url(#border_clip)" fill="#06aafd" fill-rule="evenodd" points="663.0599791567696,913.0461121680012 684.2507213853835,901.7787946611393 683.413133464524,925.7641745095975 663.0599791567696,913.0461121680012" stroke-width="0" /><polygon clip-path="url(#border_clip)" fill="#dcde91" fill-rule="evenodd" points="526.9581092838797,248.21694063075932 481.8058811646027,155.64115386194663 584.5549783413643,162.826070657589 526.9581092838797,248.21694063075932" stroke-width="0" /><polygon clip-path="url(#border_clip)" fill="#ce2d76" fill-rule="evenodd" points="338.9878960228451,691.9805148320946 366.6713870878401,728.7177482942692 321.0142641123397,734.3237380909071 338.9878960228451,691.9805148320946" stroke-width="0" /><polygon clip-path="url(#border_clip)" fill="#2b0c3b" fill-rule="evenodd" points="18.247681315569707,80.06674665181697 87.09064739055236,204.2627450656089 -54.88772532165456,201.78450335151825 18.24768131556965,80.06674665181697" stroke-width="0" /><polygon clip-path="url(#border_clip)" fill="#88a78a" fill-rule="evenodd" points="990.0436165203375,944.3982987011177 1106.6692080541293,853.2804003529177 1127.2668269962228,999.8400745266688 990.0436165203375,944.3982987011177" stroke-width="0" /><polygon clip-path="url(#border_clip)" fill="#6fa511" fill-rule="evenodd" points="693.3010059993637,439.261911167032 799.3070180189183,505.50181919617944 688.9385689115545,564.1857645444185 693.3010059993637,439.26191116703205" stroke-width="0" /><polygon clip-path="url(#border_clip)" fill="#b70602" fill-rule="evenodd" points="556.4620991811615,19.461857313940413 636.738999521484,75.67234807634043 547.9208363918939,117.08893772693125 556.4620991811615,19.46185731394047" stroke-width="0" /><polygon clip-path="url(#border_clip)" fill="#2341ce" fill-rule="evenodd" points="479.891836427151,723.3003105763781 496.85042528156794,724.4861706300278 487.3441459225657,738.5798093634637 479.891836427151,723.3003105763783" stroke-width="0" /><polygon clip-path="url(#border_clip)" fill="#209f19" fill-rule="evenodd" points="354.1664625605098,896.0530872081647 353.79996202532624,875.0562856098807 372.16697587525374,885.2372876350531 354.1664625605098,896.0530872081647" stroke-width="0" /><polygon clip-path="url(#border_clip)" fill="#a10f53" fill-rule="evenodd" points="700.7975966755454,287.9627179061634 720.4793675452612,310.6040053128458 691.0305520418316,316.328275174143 700.7975966755454,287.9627179061634" stroke-width="0" /><polygon clip-path="url(#border_clip)" fill="#be37b3" fill-rule="evenodd" points="687.5760353166486,593.9218162140984 700.118913550733,561.2465012866961 722.145127237478,588.4466099376892 687.5760353166486,593.9218162140984" stroke-width="0" /><polygon clip-path="url(#border_clip)" fill="#7901a2" fill-rule="evenodd" points="116.19141701435183,606.7920099083957 228.643144467541,509.0392145888072 257.07368477865066,655.3016649225073 116.19141701435183,606.7920099083958" stroke-width="0" /><polygon clip-path="url(#border_clip)" fill="#5a530d" fill-rule="evenodd" points="397.66188746608316,779.6440197536493 398.39477689683633,800.6312271210502 379.8528774467987,790.7723243025471 397.66188746608316,779.6440197536493" stroke-width="0" /><polygon clip-path="url(#border_clip)" fill="#7a910b" fill-rule="evenodd" points="497.76700871882525,129.98062598116684 556.9034688099888,200.45671474811036 466.30115553286686,216.43234709347092 497.7670087188252,129.9806259811669" stroke-width="0" /><polygon clip-path="url(#border_clip)" fill="#47814c" fill-rule="evenodd" points="718.242433479104,72.39852546626065 621.2450374901671,137.82409517234095 613.0835300621003,21.10910129194258 718.242433479104,72.3985254662606" stroke-width="0" /><polygon clip-path="url(#border_clip)" fill="#a99b2b" fill-rule="evenodd" points="369.1862646952913,940.3490035080142 508.1774953083916,988.207522213211 397.23518701564836,1084.6481994748187 369.18626469529124,940.3490035080142" stroke-width="0" /><polygon clip-path="url(#border_clip)" fill="#24ce45" fill-rule="evenodd" points="271.1837893531348,730.7354187787527 284.64237969846755,780.9635617457834 234.4142367314359,767.5049714004542 271.1837893531347,730.7354187787527" stroke-width="0" /><polygon clip-path="url(#border_clip)" fill="#fff361" fill-rule="evenodd" points="518.1596216290303,235.32765008655247 443.5704794764101,227.4880153414813 487.654373398343,166.81174076335907 518.1596216290303,235.32765008655247" stroke-width="0" /><polygon clip-path="url(#border_clip)" fill="#7ae0cc" fill-rule="evenodd" points="194.5185567720024,217.05264869839095 282.58045929905364,112.10455999108842 329.4372189346748,240.84244903875515 194.5185567720024,217.05264869839107" stroke-width="0" /><polygon clip-path="url(#border_clip)" fill="#67bf80" fill-rule="evenodd" points="723.1998357222905,406.5849280368034 676.6850962300048,534.3831244636877 589.2659813126321,430.20108019951095 723.1998357222903,406.5849280368034" stroke-width="0" /><polygon clip-path="url(#border_clip)" fill="#8810ff" fill-rule="evenodd" points="389.88177873030054,541.1520033397746 373.73249820727256,449.5648823096406 461.1239119403626,481.37275563892405 389.8817787303006,541.1520033397746" stroke-width="0" /><polygon clip-path="url(#border_clip)" fill="#dd0cd5" fill-rule="evenodd" points="72.13037767933633,913.3878033395229 72.13037767933486,876.3878033395231 104.17331761935958,894.8878033395217 72.13037767933633,913.3878033395229" stroke-width="0" /><polygon clip-path="url(#border_clip)" fill="#7f5bc2" fill-rule="evenodd" points="194.83216129212252,212.67615712730418 86.03172668814392,124.5713023803321 216.73298639774902,74.39978944398513 194.83216129212258,212.67615712730412" stroke-width="0" /><polygon clip-path="url(#border_clip)" fill="#43b560" fill-rule="evenodd" points="21.28393374919142,609.084341654333 126.25234903579758,623.8366903560953 60.992232651281824,707.3658302384099 21.283933749191362,609.084341654333" stroke-width="0" /><polygon clip-path="url(#border_clip)" fill="#c69ae6" fill-rule="evenodd" points="792.3013374661174,952.3714396933651 739.2724887344659,926.5075420328121 788.1857055152116,893.5151607280362 792.3013374661175,952.3714396933651" stroke-width="0" /><polygon clip-path="url(#border_clip)" fill="#175887" fill-rule="evenodd" points="986.5243431828478,282.40277973333855 989.4559009058614,366.35160920294175 915.2883031057105,326.91599792893044 986.5243431828477,282.40277973333855" stroke-width="0" /><polygon clip-path="url(#border_clip)" fill="#52c661" fill-rule="evenodd" points="848.3929293194101,150.24792757879408 771.598825382297,268.50047765910114 707.586164919016,142.8685577485452 848.3929293194101,150.24792757879402" stroke-width="0" /><polygon clip-path="url(#border_clip)" fill="#73d72c" fill-rule="evenodd" points="69.5631935873912,775.1128760920046 56.83845514622675,629.6684501706115 189.15939205357915,691.3707163847473 69.5631935873912,775.1128760920046" stroke-width="0" /><polygon clip-path="url(#border_clip)" fill="#68b232" fill-rule="evenodd" points="855.4322062570927,583.6800797388278 974.1117396416382,535.7304357815862 956.2975827187557,662.4847485805068 855.4322062570927,583.6800797388279" stroke-width="0" /><polygon clip-path="url(#border_clip)" fill="#8f10f7" fill-rule="evenodd" points="66.16238248353329,533.5052647733538 111.47492095526258,468.79225327452207 144.86176363278082,540.3905684504152 66.16238248353335,533.5052647733539" stroke-width="0" /><polygon clip-path="url(#border_clip)" fill="#d1a46b" fill-rule="evenodd" points="403.3865459509216,331.89177959945175 489.35394449064887,354.9266746135719 426.42144096504967,417.85917813917695 403.3865459509215,331.89177959945175" stroke-width="0" /><polygon clip-path="url(#border_clip)" fill="#150c80" fill-rule="evenodd" points="707.2142157432415,123.35324689641163 581.2889335753213,87.24475328439104 675.5224474196793,-3.7554932457412065 707.2142157432415,123.35324689641152" stroke-width="0" /><polygon clip-path="url(#border_clip)" fill="#29a752" fill-rule="evenodd" points="442.602491711006,817.3927584776084 549.7484042987721,881.7725178413593 440.4209409063517,942.3737203721562 442.602491711006,817.3927584776084" stroke-width="0" /><polygon clip-path="url(#border_clip)" fill="#d87908" fill-rule="evenodd" points="74.04231031060732,63.048255155045695 113.44284799094453,93.83132892132636 67.08365526260656,112.56165859212405 74.04231031060732,63.048255155045695" stroke-width="0" /><polygon clip-path="url(#border_clip)" fill="#b44f54" fill-rule="evenodd" points="200.0921853672292,359.7770335043883 164.28939713397193,363.5400581820256 178.93191628469896,330.6524217068916 200.0921853672292,359.7770335043883" stroke-width="0" /><polyline clip-path="url(#border_clip)" fill="none" points="29.25439508367549,732.7157729307312 994.2570771434891,111.51026541388757" stroke="#94e070" stroke-linecap="round" stroke-width="3" /><polyline clip-path="url(#border_clip)" fill="none" points="78.97038552966211,752.5092597290513 295.3806300157735,934.0059859959229" stroke="#3b714e" stroke-linecap="round" stroke-width="5" /><polyline clip-path="url(#border_clip)" fill="none" points="209.7409288198491,114.26824947074925 293.52311053312246,501.3486696501038" stroke="#b1cda7" stroke-linecap="round" stroke-width="8" /><polyline clip-path="url(#border_clip)" fill="none" points="178.77889923712337,9.82511653109259 435.90479718790584,409.3866307405033" stroke="#734d44" stroke-linecap="round" stroke-width="2" /><polyline clip-path="url(#border_clip)" fill="none" points="725.7655581970253,161.05781552785476 291.9816983352563,927.5148618208646" stroke="#e0cf02" stroke-linecap="round" stroke-width="10" /><polyline clip-path="url(#border_clip)" fill="none" points="45.66074581501937,950.9917864869693 547.7754060409942,244.02438374798788" stroke="#176d58" stroke-linecap="round" stroke-width="7" /><polyline clip-path="url(#border_clip)" fill="none" points="187.11820348781634,827.9236831128353 736.4632667970432,699.9168086275906" stroke="#5a4eae" stroke-linecap="round" stroke-width="9" /><polyline clip-path="url(#border_clip)" fill="none" points="229.80947189982055,514.3982572806902 504.78713668006833,919.3802010752338" stroke="#f904e5" stroke-linecap="round" stroke-width="5" /><polyline clip-path="url(#border_clip)" fill="none" points="685.2246685080443,394.779708149878 701.7479025259192,986.4878482460682" stroke="#7fab1f" stroke-linecap="round" stroke-width="8" /><polyline clip-path="url(#border_clip)" fill="none" points="641.3770590667798,62.55834383671424 469.43996209794653,653.9240863432392" stroke="#e94dc5" stroke-linecap="round" stroke-width="4" /><polyline clip-path="url(#border_clip)" fill="none" points="270.894769866607,74.02129168760467 794.0559226361465,556.3408286570395" stroke="#d23980" stroke-linecap="round" stroke-width="2" /><polyline clip-path="url(#border_clip)" fill="none" points="880.6169957719546,153.6096708592483 806.1734184190013,372.0955047808962" stroke="#8e5b9e" stroke-linecap="round" stroke-width="5" /><polyline clip-path="url(#border_clip)" fill="none" points="284.06823410574304,707.9874337860484 704.4745831529143,16.24425368727492" stroke="#af6581" stroke-linecap="round" stroke-width="5" /><polyline clip-path="url(#border_clip)" fill="none" points="701.4318363814332,638.5737278776718 175.00575716661257,654.1864941473649" stroke="#99b6bc" stroke-linecap="round" stroke-width="3" /><polyline clip-path="url(#border_clip)" fill="none" points="327.19316493475617,842.2067571286461 170.2080106707628,612.3446822310093" stroke="#3cd1ed" stroke-linecap="round" stroke-width="7" /><polyline clip-path="url(#border_clip)" fill="none" points="549.6104755374596,898.1959521800691 978.538479033597,929.2431542929153" stroke="#ce02b7" stroke-linecap="round" stroke-width="3" /><polyline clip-path="url(#border_clip)" fill="none" points="766.3940855350222,626.8946368211052 236.74789056744333,611.3371801092003" stroke="#417f52" stroke-linecap="round" stroke-width="4" /><polyline clip-path="url(#border_clip)" fill="none" points="282.7556428839292,594.9245705616097 725.2329762466618,917.3447120443016" stroke="#df838d" stroke-linecap="round" stroke-width="9" /><polyline clip-path="url(#border_clip)" fill="none" points="278.2156830194304,653.4396071053454 547.673673823085,580.5981505936736" stroke="#ddef76" stroke-linecap="round" stroke-width="3" /><polyline clip-path="url(#border_clip)" fill="none" points="606.9388642851403,218.74368627536694 192.5472284869017,699.6862376702475" stroke="#192a23" stroke-linecap="round" stroke-width="2" /><polyline clip-path="url(#border_clip)" fill="none" points="957.3634387218333,329.2056552548929 112.7747451089835,93.18339635234332" stroke="#2f436c" stroke-linecap="round" stroke-width="6" /><polyline clip-path="url(#border_clip)" fill="none" points="714.4452197411208,872.9069102776097 648.2361588486639,435.4184640615256" stroke="#10d90c" stroke-linecap="round" stroke-width="6" /><polyline clip-path="url(#border_clip)" fill="none" points="290.5474508755498,819.0213663212595 743.4779222896614,761.9460039071946" stroke="#4a7abe" stroke-linecap="round" stroke-width="8" /><polyline clip-path="url(#border_clip)" fill="none" points="655.3522784993072,222.39140123165163 366.07553718627094,818.1363091368808" stroke="#f0e4fa" stroke-linecap="round" stroke-width="6" /><polyline clip-path="url(#border_clip)" fill="none" points="663.818228505915,276.9087529981032 191.33327965763783,743.1674303106694" stroke="#641404" stroke-linecap="round" stroke-width="6" /><polyline clip-path="url(#border_clip)" fill="none" points="971.548703050081,282.23973123213545 27.035927100918684,364.0095064997945" stroke="#02f038" stroke-linecap="round" stroke-width="6" /><polyline clip-path="url(#border_clip)" fill="none" points="99.94773410917605,509.45444228002293 196.9653514893858,407.6857386589973" stroke="#7d390d" stroke-linecap="round" stroke-width="7" /><polyline clip-path="url(#border_clip)" fill="none" points="382.39830386084367,847.3804345284196 283.7880189005873,841.826126268759" stroke="#c1fed2" stroke-linecap="round" stroke-width="8" /><polyline clip-path="url(#border_clip)" fill="none" points="661.5156600951786,604.2259879659757 69.19628841706555,980.2165605866458" stroke="#a2b655" stroke-linecap="round" stroke-width="8" /><polyline clip-path="url(#border_clip)" fill="none" points="215.95350503237682,394.21339430704444 644.424071660114,582.069932158175" stroke="#568e24" stroke-linecap="round" stroke-width="7" /><polyline clip-path="url(#border_clip)" fill="none" points="52.25955723279179,616.8009511712285 964.6833083395577,536.2347941922068" stroke="#0549ce" stroke-linecap="round" stroke-width="5" /><polyline clip-path="url(#border_clip)" fill="none" points="904.5791619806107,426.4674161733755 815.428141679477,849.2233739508408" stroke="#ad78a2" stroke-linecap="round" stroke-width="3" /><polyline clip-path="url(#border_clip)" fill="none" points="339.8665078897026,275.1549006239105 584.0278825030582,797.2303009219854" stroke="#4d27d3" stroke-linecap="round" stroke-width="9" /><polyline clip-path="url(#border_clip)" fill="none" points="760.756963440564,683.9188251627249 263.415503562428,554.2979486864052" stroke="#70f094" stroke-linecap="round" stroke-width="8" /><polyline clip-path="url(#border_clip)" fill="none" points="179.96165514097237,28.588727260765722 613.7098881050631,119.26802997994417" stroke="#07fa61" stroke-linecap="round" stroke-width="4" /><polyline clip-path="url(#border_clip)" fill="none" points="862.0718551808453,624.1712836736151 900.4406651439649,656.0543626025667" stroke="#330bb7" stroke-linecap="round" stroke-width="7" /><polyline clip-path="url(#border_clip)" fill="none" points="712.6536981426633,866.7669264662281 111.17777198577289,1.875087132604051" stroke="#2a5311" stroke-linecap="round" stroke-width="5" /><polyline clip-path="url(#border_clip)" fill="none" points="627.6631787510693,981.2894672422523 21.31324845349195,400.463310466243" stroke="#46808f" stroke-linecap="round" stroke-width="3" /><polyline clip-path="url(#border_clip)" fill="none" points="194.62108533710614,371.4697695101629 794.4033278520151,658.3608825523193" stroke="#688390" stroke-linecap="round" stroke-width="6" /><polyline clip-path="url(#border_clip)" fill="none" points="456.7314048294741,532.5689157004848 878.3446420957969,24.75847440176966" stroke="#d48e42" stroke-linecap="round" stroke-width="9" /><polyline clip-path="url(#border_clip)" fill="none" points="201.95172452657266,565.9212366404626 871.8414543038914,846.6780441220528" stroke="#e8370e" stroke-linecap="round" stroke-width="2" /><polyline clip-path="url(#border_clip)" fill="none" points="923.1922380165965,468.1117610608193 428.3009154244269,626.3567829695694" stroke="#b684d3" stroke-linecap="round" stroke-width="9" /><polyline clip-path="url(#border_clip)" fill="none" points="369.21710313846097,600.7192629157892 461.8890661015648,374.79030093622464" stroke="#76c958" stroke-linecap="round" stroke-width="5" /><polyline clip-path="url(#border_clip)" fill="none" points="742.1294379899587,283.51483543987024 382.01531490398503,745.519200787203" stroke="#4c8000" stroke-linecap="round" stroke-width="6" /><polyline clip-path="url(#border_clip)" fill="none" points="544.2384345099169,119.5952301388316 766.1292798366533,61.330904619838066" stroke="#367d67" stroke-linecap="round" stroke-width="4" /><polyline clip-path="url(#border_clip)" fill="none" points="589.6102163627977,163.24553558930438 362.34006936762273,249.9819274641227" stroke="#01e25f" stroke-linecap="round" stroke-width="3" /><polyline clip-path="url(#border_clip)" fill="none" points="630.5735794876679,562.9533445032982 924.0877048338946,188.34331436444347" stroke="#0b926e" stroke-linecap="round" stroke-width="3" /><polyline clip-path="url(#border_clip)" fill="none" points="366.76165261305067,153.6050760543676 58.70378747410717,35.400984501325865" stroke="#ccf91e" stroke-linecap="round" stroke-width="2" /><polyline clip-path="url(#border_clip)" fill="none" points="638.0363221229828,675.0280316154946 627.0241350825864,808.5040397241527" stroke="#d6c712" stroke-linecap="round" stroke-width="4" /><polyline clip-path="url(#border_clip)" fill="none" points="0.8809409047130998,527.1278322119348 383.9484557946998,179.4295388198073" stroke="#303017" stroke-linecap="round" stroke-width="10" /><polyline clip-path="url(#border_clip)" fill="none" points="599.7004224858413,499.85831203794703 872.6790738066865,747.6196710000477" stroke="#622b41" stroke-linecap="round" stroke-width="5" /><polyline clip-path="url(#border_clip)" fill="none" points="910.7166842143695,823.4181706970621 888.5449336115485,326.05705421706796" stroke="#72eb32" stroke-linecap="round" stroke-width="4" /><polyline clip-path="url(#border_clip)" fill="none" points="204.7990793254944,986.6410883714909 134.81051501208793,763.7324461419971" stroke="#941287" stroke-linecap="round" stroke-width="2" /><polyline clip-path="url(#border_clip)" fill="none" points="269.2179716829293,800.2727456810308 768.7302707054703,622.762901945578" stroke="#937d65" stroke-linecap="round" stroke-width="7" /><polyline clip-path="url(#border_clip)" fill="none" points="268.9985582873592,544.116134261831 32.1842292827215,468.81884095984833" stroke="#ea8d03" stroke-linecap="round" stroke-width="10" /><polyline clip-path="url(#border_clip)" fill="none" points="941.3950009158781,18.254961191441907 116.11396574961611,49.23170477858679" stroke="#f85a38" stroke-linecap="round" stroke-width="5" /><polyline clip-path="url(#border_clip)" fill="none" points="499.6664423336485,573.881512176504 871.9905858397628,835.5280636629166" stroke="#900c1f" stroke-linecap="round" stroke-width="8" /><polyline clip-path="url(#border_clip)" fill="none" points="343.6808305891453,80.14030014484183 454.8087946368042,409.01103889590735" stroke="#1a03fb" stroke-linecap="round" stroke-width="4" /><polyline clip-path="url(#border_clip)" fill="none" points="285.0644719351832,96.31512231217306 670.1846011734283,224.5515452784486" stroke="#a581a9" stroke-linecap="round" stroke-width="3" /><polyline clip-path="url(#border_clip)" fill="none" points="925.7608870058107,239.70303996496648 304.6353702466717,722.3097646203161" stroke="#33d2bc" stroke-linecap="round" stroke-width="8" /><polyline clip-path="url(#border_clip)" fill="none" points="600.1260838587175,290.7483403120699 472.1938203219232,476.0350137875686" stroke="#2b4b58" stroke-linecap="round" stroke-width="4" /><polyline clip-path="url(#border_clip)" fill="none" points="873.2362551502097,639.3346602857537 816.3499952705608,185.0044488147699" stroke="#2298e4" stroke-linecap="round" stroke-width="10" /><polyline clip-path="url(#border_clip)" fill="none" points="571.5829598703468,310.62611965710767 895.8052987031479,466.8062829434892" stroke="#163ab0" stroke-linecap="round" stroke-width="4" /></svg>