<?xml version="1.0" encoding="utf-8" ?>
<svg baseProfile="full" height="1000px" version="1.1" width="1000px" xmlns="http://www.w3.org/2000/svg" xmlns:ev="http://www.w3.org/2001/xml-events" xmlns:xlink="http://www.w3.org/1999/xlink"><defs><clipPath id="border_clip"><rect height="1000" width="1000" x="0" y="0" /></clipPath></defs><polyline clip-path="url(#border_clip)" fill="none" points="500.5,500.5 500.5,500.5 -9.5,-9.5" stroke="black" stroke-linecap="round" stroke-width="1" /><polygon clip-path="url(#border_clip)" fill="#a4afb3" fill-rule="evenodd" points="-9.5,-9.5 1000.5,-9.5 1000.5,1000.5 -9.499999999999943,1000.5000000000001 -9.500000000000114,-9.499999999999886" stroke-width="0" /><polyline clip-path="url(#border_clip)" fill="none" points="-9.5,-9.5 1000.5,-9.5 1000.5,1000.5 -9.499999999999943,1000.5000000000001 -9.500000000000114,-9.499999999999886" stroke="black" stroke-linecap="round" stroke-width="1" /><polygon clip-path="url(#border_clip)" fill="#2c77d2" fill-rule="evenodd" points="837.3212911106843,787.490163825016 881.7606641638522,802.7918670845023 846.2893138933819,833.6266414470562 837.3212911106843,787.490163825016" stroke-width="0" /><polygon clip-path="url(#border_clip)" fill="#0b66a4" fill-rule="evenodd" points="343.25927563908544,790.7442882184073 294.6245142086607,784.7726903915551 324.113450343111,745.6395503992377 343.25927563908544,790.7442882184073" stroke-width="0" /><polygon clip-path="url(#border_clip)" fill="#565344" fill-rule="evenodd" points="569.0201588302278,522.8443784955458 557.3207018633339,618.1288090531127 480.65169289879367,560.3545668305163 569.0201588302278,522.8443784955458" stroke-width="0" /><polygon clip-path="url(#border_clip)" fill="#98e9be" fill-rule="evenodd" points="243.18764286235233,675.3181752552039 206.84964791285012,760.9251266262809 150.88085075970946,686.6520241918828 243.18764286235233,675.3181752552039" stroke-width="0" /><polygon clip-path="url(#border_clip)" fill="#df93e2" fill-rule="evenodd" points="646.3908825070012,783.7660542513784 653.1422208623404,654.9428442680384 761.3307241273003,725.2012797849764 646.3908825070012,783.7660542513784" stroke-width="0" /><polygon clip-path="url(#border_clip)" fill="#5bfb8b" fill-rule="evenodd" points="170.79347674778984,559.7586324481686 104.03623921898105,532.7869577222232 160.77301347866478,488.45933149877555 170.79347674778984,559.7586324481686" stroke-width="0" /><polygon clip-path="url(#border_clip)" fill="#e90beb" fill-rule="evenodd" points="32.324922074150095,240.7117846607328 -34.827121302807996,286.0064098418636 -40.477395676082665,205.203721770818 32.32492207415004,240.71178466073275" stroke-width="0" /><polygon clip-path="url(#border_clip)" fill="#e3e9e2" fill-rule="evenodd" points="602.1165953597682,591.9328243396686 641.98550110614,575.8247408227842 636.0010577648574,618.4062677786717 602.1165953597682,591.9328243396686" stroke-width="0" /><polygon clip-path="url(#border_clip)" fill="#eee22d" fill-rule="evenodd" points="659.9015892923243,400.96942426275086 609.2501590359261,322.97306144382696 702.1227057681015,318.1058175132324 659.9015892923244,400.96942426275086" stroke-width="0" /><polygon clip-path="url(#border_clip)" fill="#bf3d3a" fill-rule="evenodd" points="854.48165653501,142.74556682628497 781.8882208424404,182.98476530673156 783.3367705767342,99.99740660875119 854.4816565350098,142.74556682628497" stroke-width="0" /><polygon clip-path="url(#border_clip)" fill="#a8f745" fill-rule="evenodd" points="207.84573198331896,323.36913512831165 204.75791056498588,382.28827767883143 155.27634705620562,350.1545746129454 207.84573198331896,323.36913512831165" stroke-width="0" /><polygon clip-path="url(#border_clip)" fill="#229fa5" fill-rule="evenodd" points="849.5000587714005,757.4345227143108 875.4890201236191,635.1660726225849 968.3821233082941,718.807398417441 849.5000587714005,757.4345227143108" stroke-width="0" /><polygon clip-path="url(#border_clip)" fill="#c631ac" fill-rule="evenodd" points="138.91557817562244,798.2910656244765 58.48091164812911,730.7983666073909 157.14863683064885,694.8862515581945 138.9155781756225,798.2910656244765" stroke-width="0" /><polygon clip-path="url(#border_clip)" fill="#59cf30" fill-rule="evenodd" points="776.7645211625656,471.34752922990225 782.8579883328225,421.7202216478362 822.7897638351874,451.81097280543804 776.7645211625658,471.34752922990225" stroke-width="0" /><polygon clip-path="url(#border_clip)" fill="#1e5aae" fill-rule="evenodd" points="557.6766365788169,931.7601638945337 567.2932551994397,840.2641495206526 641.7228186819355,894.340392731559 557.6766365788169,931.7601638945337" stroke-width="0" /><polygon clip-path="url(#border_clip)" fill="#40336b" fill-rule="evenodd" points="331.1530170044103,988.1055132549452 389.4534092378632,1032.0380099450438 322.25655493583565,1060.5613823247618 331.1530170044103,988.1055132549452" stroke-width="0" /><polygon clip-path="url(#border_clip)" fill="#69349d" fill-rule="evenodd" points="448.12171269459805,438.319237412414 432.13474605721126,382.5660590479919 488.41189818121916,396.5975289927717 448.12171269459805,438.319237412414" stroke-width="0" /><polygon clip-path="url(#border_clip)" fill="#ee46cc" fill-rule="evenodd" points="296.89171645684524,496.63379105631 353.5477300877876,363.1605873057055 440.8109084448363,478.9627362625612 296.8917164568453,496.63379105631" stroke-width="0" /><polygon clip-path="url(#border_clip)" fill="#34087e" fill-rule="evenodd" points="982.1786882675681,863.4857577276296 1081.0430122082707,868.6670173956793 1027.1237477417847,951.695403622277 982.1786882675681,863.4857577276297" stroke-width="0" /><polygon clip-path="url(#border_clip)" fill="#605e74" fill-rule="evenodd" points="76.39718733637596,548.6370388170877 -48.051543578610676,568.3477814121591 -2.8971819359051096,450.71664767351115 76.39718733637596,548.6370388170877" stroke-width="0" /><polygon clip-path="url(#border_clip)" fill="#c01f4a" fill-rule="evenodd" points="713.2163494097416,508.5143385620091 668.7163494097404,431.4380776251951 757.71634940974,431.4380776251934 713.2163494097416,508.514338562009" stroke-width="0" /><polygon clip-path="url(#border_clip)" fill="#7c191b" fill-rule="evenodd" points="474.8621857030983,241.9560635413556 590.3273771299421,270.7447691177137 507.66303104532335,356.3462053580146 474.86218570309825,241.95606354135566" stroke-width="0" /><polygon clip-path="url(#border_clip)" fill="#6d267f" fill-rule="evenodd" points="222.53024017116155,443.5533594833077 173.87104287757205,343.78722034410157 284.60065245641226,351.53018892969715 222.53024017116155,443.5533594833077" stroke-width="0" /><polygon clip-path="url(#border_clip)" fill="#6e5cf0" fill-rule="evenodd" points="112.95550067024226,893.8523323348018 140.17457824584733,775.9535544957881 228.66837614176842,858.4753560633483 112.95550067024237,893.8523323348018" stroke-width="0" /><polygon clip-path="url(#border_clip)" fill="#5fc91e" fill-rule="evenodd" points="586.0294281842372,703.7098731230255 622.7687338077045,661.4461366305496 641.0005504573064,714.3951768641107 586.0294281842372,703.7098731230255" stroke-width="0" /><polygon clip-path="url(#border_clip)" fill="#ce5218" fill-rule="evenodd" points="438.6653144196844,456.49224564829547 452.9387062600661,513.7396934985786 396.22426619970514,497.4770895053771 438.6653144196844,456.49224564829547" stroke-width="0" /><polygon clip-path="url(#border_clip)" fill="#8ff10d" fill-rule="evenodd" points="604.1319816828085,581.9821975426371 698.227163819995,540.0883233058275 687.4607321034292,642.5240785287596 604.1319816828085,581.9821975426371" stroke-width="0" /><polygon clip-path="url(#border_clip)" fill="#d9940b" fill-rule="evenodd" points="844.0657618502199,775.5228219439377 904.2240968793318,790.5219794711156 861.1552779108753,835.1210470921128 844.0657618502198,775.5228219439377" stroke-width="0" /><polygon clip-path="url(#border_clip)" fill="#d776f8" fill-rule="evenodd" points="241.39609396840336,958.1641034413801 134.5420338526925,891.3942761479992 245.79343055291525,832.2408592369744 241.39609396840336,958.16410344138" stroke-width="0" /><polygon clip-path="url(#border_clip)" fill="#35f9b2" fill-rule="evenodd" points="193.0699628175663,157.49623635329186 201.35707816911457,90.00309804168205 255.6642928523313,130.92651961601973 193.06996281756636,157.49623635329186" stroke-width="0" /><polygon clip-path="url(#border_clip)" fill="#12a992" fill-rule="evenodd" points="332.8239811167942,860.3254777380279 246.82398111679464,860.3254777380301 289.8239811167924,785.8472930125677 332.82398111679424,860.3254777380279" stroke-width="0" /><polygon clip-path="url(#border_clip)" fill="#86b71f" fill-rule="evenodd" points="327.77609169712343,78.72330200572736 227.48751751497525,18.46384724125403 329.8180232502825,-38.258878327569846 327.77609169712355,78.72330200572736" stroke-width="0" /><polygon clip-path="url(#border_clip)" fill="#39a48b" fill-rule="evenodd" points="507.9169819397052,323.0808442496982 562.3061374011536,368.71876453744073 495.58796132535514,393.00219471356496 507.9169819397052,323.0808442496982" stroke-width="0" /><polygon clip-path="url(#border_clip)" fill="#1e6495" fill-rule="evenodd" points="758.6184164958454,361.2637326377785 835.9147044775743,398.96365126163676 764.6174732378425,447.05424096012274 758.6184164958454,361.2637326377785" stroke-width="0" /><polygon clip-path="url(#border_clip)" fill="#cdbc35" fill-rule="evenodd" points="679.562649250977,655.2472397873184 602.1921604959625,720.1687883656608 584.6536945515996,620.7032053114289 679.5626492509768,655.2472397873184" stroke-width="0" /><polygon clip-path="url(#border_clip)" fill="#07f11a" fill-rule="evenodd" points="197.60393001643865,911.593683082355 171.59957514741637,891.2768543966092 202.19664234811978,878.9148368138833 197.60393001643865,911.593683082355" stroke-width="0" /><polygon clip-path="url(#border_clip)" fill="#18144d" fill-rule="evenodd" points="337.39350235385814,710.862608069234 324.9615405263387,707.061775907839 334.4691386473876,698.1957972270262 337.3935023538582,710.862608069234" stroke-width="0" /><polygon clip-path="url(#border_clip)" fill="#b285be" fill-rule="evenodd" points="503.6733585895848,781.2937313433222 462.5911593587649,772.5614403289776 490.6946448258358,741.3493576589264 503.6733585895848,781.2937313433222" stroke-width="0" /><polygon clip-path="url(#border_clip)" fill="#f41914" fill-rule="evenodd" points="733.2903539680981,44.51813980719538 807.8794961207179,36.67850506211897 777.3742478900353,105.19441438531459 733.2903539680981,44.51813980719544" stroke-width="0" /><polygon clip-path="url(#border_clip)" fill="#f9c64e" fill-rule="evenodd" points="621.3737575344563,426.17840397727974 505.9239561920546,362.18353410476766 619.0700398847304,294.19850821663704 621.3737575344563,426.1784039772797" stroke-width="0" /><polygon clip-path="url(#border_clip)" fill="#089999" fill-rule="evenodd" points="472.18108774760753,82.9467298247352 523.2390908299697,65.3660494840471 512.9354050796381,118.37391739022092 472.18108774760753,82.9467298247352" stroke-width="0" /><polygon clip-path="url(#border_clip)" fill="#757a84" fill-rule="evenodd" points="286.60514115750186,45.188402450004276 232.70595915658964,69.18586439147828 238.87313848937902,10.50907256475034 286.60514115750186,45.188402450004276" stroke-width="0" /><polygon clip-path="url(#border_clip)" fill="#582e07" fill-rule="evenodd" points="296.3789805840115,197.95973431999255 322.2483518335517,85.90717686969037 406.3540275197586,164.33698827687402 296.3789805840116,197.9597343199926" stroke-width="0" /><polygon clip-path="url(#border_clip)" fill="#8eb005" fill-rule="evenodd" points="529.5184267818859,928.5186375923704 531.4730963028574,816.5356957348554 627.4758339814954,874.2199601247773 529.5184267818859,928.5186375923704" stroke-width="0" /><polygon clip-path="url(#border_clip)" fill="#093b89" fill-rule="evenodd" points="683.5928845644239,691.3874341217045 711.6471367776301,664.2957576738027 721.0820907060186,702.137290998566 683.5928845644239,691.3874341217045" stroke-width="0" /><polygon clip-path="url(#border_clip)" fill="#84cea0" fill-rule="evenodd" points="374.3221094363612,626.7773654088423 338.08744312201384,762.0069810893124 239.09249375589405,663.0120317232004 374.3221094363612,626.7773654088423" stroke-width="0" /><polygon clip-path="url(#border_clip)" fill="#866116" fill-rule="evenodd" points="267.09456670691117,287.12198657627744 253.47989138612147,312.72746676918666 238.11223272335764,288.13407198065113 267.0945667069111,287.12198657627744" stroke-width="0" /><polygon clip-path="url(#border_clip)" fill="#e121da" fill-rule="evenodd" points="675.5580533178768,157.72890595465532 584.6983194434513,103.13487001419372 677.4080084002244,51.745050268078614 675.5580533178768,157.72890595465532" stroke-width="0" /><polygon clip-path="url(#border_clip)" fill="#3d730e" fill-rule="evenodd" points="553.4628906767107,610.5672223012803 633.2179759359368,647.7576293344582 561.1325960385082,698.232355733353 553.4628906767107,610.5672223012804" stroke-width="0" /><polyline clip-path="url(#border_clip)" fill="none" points="490.134810133137,101.90797972653013 490.134810133137,101.90797972653013" stroke="#c2672e" stroke-linecap="round" stroke-width="45" /><polyline clip-path="url(#border_clip)" fill="none" points="915.8850798338781,631.455898553036 915.8850798338781,631.455898553036" stroke="#f85152" stroke-linecap="round" stroke-width="53" /><polyline clip-path="url(#border_clip)" fill="none" points="382.2270846625804,149.00086127136228 382.2270846625804,149.00086127136228" stroke="#f530fc" stroke-linecap="round" stroke-width="19" /><polyline clip-path="url(#border_clip)" fill="none" points="340.36309660892937,938.935364574098 340.36309660892937,938.935364574098" stroke="#4a9fdd" stroke-linecap="round" stroke-width="30" /><polyline clip-path="url(#border_clip)" fill="none" points="461.0120056498612,81.41559267750802 461.0120056498612,81.41559267750802" stroke="#84a0d4" stroke-linecap="round" stroke-width="40" /><polyline clip-path="url(#border_clip)" fill="none" points="231.47275672464423,827.860049151929 231.47275672464423,827.860049151929" stroke="#94be73" stroke-linecap="round" stroke-width="6" /><polyline clip-path="url(#border_clip)" fill="none" points="898.7165043230013,857.9139836806332 898.7165043230013,857.9139836806332" stroke="#d18ec8" stroke-linecap="round" stroke-width="67" /><polyline clip-path="url(#border_clip)" fill="none" points="613.1220412880447,347.46570380641515 613.1220412880447,347.46570380641515" stroke="#f43143" stroke-linecap="round" stroke-width="38" /><polyline clip-path="url(#border_clip)" fill="none" points="7.796608954751719,634.1268173907413 7.796608954751719,634.1268173907413" stroke="#daaab8" stroke-linecap="round" stroke-width="27" /><polyline clip-path="url(#border_clip)" fill="none" points="261.9683060961428,738.9374558620057 261.9683060961428,738.9374558620057" stroke="#0d24f5" stroke-linecap="round" stroke-width="17" /><polyline clip-path="url(#border_clip)" fill="none" points="643.658082587529,197.9764538853625 643.658082587529,197.9764538853625" stroke="#68e406" stroke-linecap="round" stroke-width="51" /><polyline clip-path="url(#border_clip)" fill="none" points="79.24617304767338,470.19195389711115 79.24617304767338,470.19195389711115" stroke="#28a1ac" stroke-linecap="round" stroke-width="16" /><polyline clip-path="url(#border_clip)" fill="none" points="935.9942337823934,98.37575617639021 935.9942337823934,98.37575617639021" stroke="#3f1e64" stroke-linecap="round" stroke-width="45" /><polyline clip-path="url(#border_clip)" fill="none" points="495.74661571769366,560.8791015222267 495.74661571769366,560.8791015222267" stroke="#40c8dc" stroke-linecap="round" stroke-width="60" /><polyline clip-path="url(#border_clip)" fill="none" points="398.5277785141344,649.7260156403647 398.5277785141344,649.7260156403647" stroke="#7a5cc6" stroke-linecap="round" stroke-width="43" /><polyline clip-path="url(#border_clip)" fill="none" points="636.8015669834294,464.5260433149698 636.8015669834294,464.5260433149698" stroke="#afc3cc" stroke-linecap="round" stroke-width="51" /><polyline clip-path="url(#border_clip)" fill="none" points="346.11518633131317,223.72402471226644 346.11518633131317,223.72402471226644" stroke="#6e7a9e" stroke-linecap="round" stroke-width="74" /><polyline clip-path="url(#border_clip)" fill="none" points="144.56489627869536,118.17262703301861 144.56489627869536,118.17262703301861" stroke="#c68e21" stroke-linecap="round" stroke-width="69" /><polyline clip-path="url(#border_clip)" fill="none" points="5.8659695550816195,832.3988004998813 5.8659695550816195,832.3988004998813" stroke="#7242fd" stroke-linecap="round" stroke-width="11" /><polyline clip-path="url(#border_clip)" fill="none" points="751.0356359549802,533.9148731026369 751.0356359549802,533.9148731026369" stroke="#782b62" stroke-linecap="round" stroke-width="56" /><polyline clip-path="url(#border_clip)" fill="none" points="676.7224676676633,585.2482860051666 676.7224676676633,585.2482860051666" stroke="#9bf5ce" stroke-linecap="round" stroke-width="49" /><polyline clip-path="url(#border_clip)" fill="none" points="214.15509653696415,779.0793643369446 214.15509653696415,779.0793643369446" stroke="#3a2872" stroke-linecap="round" stroke-width="14" /><polyline clip-path="url(#border_clip)" fill="none" points="572.2746082777705,214.68861118921342 572.2746082777705,214.68861118921342" stroke="#20c1b1" stroke-linecap="round" stroke-width="28" /><polyline clip-path="url(#border_clip)" fill="none" points="154.1232646198842,70.15710668436009 154.1232646198842,70.15710668436009" stroke="#ce1006" stroke-linecap="round" stroke-width="73" /><polyline clip-path="url(#border_clip)" fill="none" points="266.35050967975366,411.61912024338073 266.35050967975366,411.61912024338073" stroke="#b041cf" stroke-linecap="round" stroke-width="18" /><polyline clip-path="url(#border_clip)" fill="none" points="263.4601347753475,47.974523833086494 263.4601347753475,47.974523833086494" stroke="#adbf82" stroke-linecap="round" stroke-width="29" /><polyline clip-path="url(#border_clip)" fill="none" points="914.0147433554603,189.17400652441557 914.0147433554603,189.17400652441557" stroke="#9b7a9b" stroke-linecap="round" stroke-width="4" /><polyline clip-path="url(#border_clip)" fill="none" points="628.0864806900889,919.1292644866342 628.0864806900889,919.1292644866342" stroke="#954719" stroke-linecap="round" stroke-width="59" /><polyline clip-path="url(#border_clip)" fill="none" points="101.55198904116253,695.7386502516534 101.55198904116253,695.7386502516534" stroke="#c0b762" stroke-linecap="round" stroke-width="41" /><polyline clip-path="url(#border_clip)" fill="none" points="767.318286624855,956.3051292420478 767.318286624855,956.3051292420478" stroke="#cda397" stroke-linecap="round" stroke-width="10" /><polyline clip-path="url(#border_clip)" fill="none" points="641.508662976306,556.1909132248379 641.508662976306,556.1909132248379" stroke="#427945" stroke-linecap="round" stroke-width="53" /><polyline clip-path="url(#border_clip)" fill="none" points="669.2409107813544,665.3376120275487 669.2409107813544,665.3376120275487" stroke="#162190" stroke-linecap="round" stroke-width="48" /><polyline clip-path="url(#border_clip)" fill="none" points="843.7457251954028,80.12341727176971 843.7457251954028,80.12341727176971" stroke="#8568fd" stroke-linecap="round" stroke-width="6" /><polyline clip-path="url(#border_clip)" fill="none" points="940.0679934418824,975.3885496828639 940.0679934418824,975.3885496828639" stroke="#ed2781" stroke-linecap="round" stroke-width="23" /><polyline clip-path="url(#border_clip)" fill="none" points="301.4413959544157,920.2596811300417 301.4413959544157,920.2596811300417" stroke="#db5df3" stroke-linecap="round" stroke-width="22" /><polyline clip-path="url(#border_clip)" fill="none" points="411.9831054374072,553.7585209178471 411.9831054374072,553.7585209178471" stroke="#216b3e" stroke-linecap="round" stroke-width="60" /><polyline clip-path="url(#border_clip)" fill="none" points="950.0377419268336,514.1691071105442 950.0377419268336,514.1691071105442" stroke="#3e8b5a" stroke-linecap="round" stroke-width="58" /><polyline clip-path="url(#border_clip)" fill="none" points="216.47618383227604,463.38543579731135 216.47618383227604,463.38543579731135" stroke="#b903f8" stroke-linecap="round" stroke-width="63" /><polyline clip-path="url(#border_clip)" fill="none" points="526.0796147769247,20.29401633325108 526.0796147769247,20.29401633325108" stroke="#7a2d74" stroke-linecap="round" stroke-width="65" /><polyline clip-path="url(#border_clip)" fill="none" points="957.2070157931324,599.1146492730336 957.2070157931324,599.1146492730336" stroke="#f24dd9" stroke-linecap="round" stroke-width="43" /><polyline clip-path="url(#border_clip)" fill="none" points="736.7850836910775,589.2492029355701 736.7850836910775,589.2492029355701" stroke="#b43a72" stroke-linecap="round" stroke-width="61" /><polyline clip-path="url(#border_clip)" fill="none" points="703.9562997967652,258.2066216252647 703.9562997967652,258.2066216252647" stroke="#ad72fb" stroke-linecap="round" stroke-width="17" /><polyline clip-path="url(#border_clip)" fill="none" points="137.32537625763013,925.0856158057336 137.32537625763013,925.0856158057336" stroke="#be4ecd" stroke-linecap="round" stroke-width="52" /><polyline clip-path="url(#border_clip)" fill="none" points="303.6155958783522,560.034613966054 303.6155958783522,560.034613966054" stroke="#5bc0e9" stroke-linecap="round" stroke-width="65" /><polyline clip-path="url(#border_clip)" fill="none" points="734.7166917323335,724.7532274358779 734.7166917323335,724.7532274358779" stroke="#9fab48" stroke-linecap="round" stroke-width="66" /><polyline clip-path="url(#border_clip)" fill="none" points="88.38511995527415,555.9322746762831 88.38511995527415,555.9322746762831" stroke="#e89db0" stroke-linecap="round" stroke-width="61" /><polyline clip-path="url(#border_clip)" fill="none" points="193.5016251738702,947.5103987266037 193.5016251738702,947.5103987266037" stroke="#31f4db" stroke-linecap="round" stroke-width="48" /><polyline clip-path="url(#border_clip)" fill="none" points="458.90284386310924,975.5009190105 458.90284386310924,975.5009190105" stroke="#d33f74" stroke-linecap="round" stroke-width="6" /><polyline clip-path="url(#border_clip)" fill="none" points="891.279912709931,574.0883263640576 891.279912709931,574.0883263640576" stroke="#8f35a9" stroke-linecap="round" stroke-width="9" /></svg>