<?xml version="1.0" encoding="utf-8" ?>
<svg baseProfile="full" height="1000px" version="1.1" width="1000px" xmlns="http://www.w3.org/2000/svg" xmlns:ev="http://www.w3.org/2001/xml-events" xmlns:xlink="http://www.w3.org/1999/xlink"><defs><clipPath id="border_clip"><rect height="1000" width="1000" x="0" y="0" /></clipPath></defs><polyline clip-path="url(#border_clip)" fill="none" points="500.5,500.5 500.5,500.5 -9.5,-9.5" stroke="black" stroke-linecap="round" stroke-width="1" /><polygon clip-path="url(#border_clip)" fill="#17fe4b" fill-rule="evenodd" points="-9.5,-9.5 1000.5,-9.5 1000.5,1000.5 -9.499999999999943,1000.5000000000001 -9.500000000000114,-9.499999999999886" stroke-width="0" /><polyline clip-path="url(#border_clip)" fill="none" points="-9.5,-9.5 1000.5,-9.5 1000.5,1000.5 -9.499999999999943,1000.5000000000001 -9.500000000000114,-9.499999999999886" stroke="black" stroke-linecap="round" stroke-width="1" /><polygon clip-path="url(#border_clip)" fill="#c92fd6" fill-rule="evenodd" points="117.02387901930729,993.558667517128 162.22050116332696,955.6341985456222 172.4657436456759,1013.7378559733424 117.02387901930729,993.558667517128" stroke-width="0" /><polygon clip-path="url(#border_clip)" fill="#6d45d9" fill-rule="evenodd" points="136.81771046889617,343.60534909240874 103.23630688866149,338.286577281041 124.63320018435593,311.8636145915039 136.81771046889622,343.60534909240874" stroke-width="0" /><polygon clip-path="url(#border_clip)" fill="#2c7869" fill-rule="evenodd" points="802.7681415753864,333.44638124980713 806.5721867159587,224.51278110472572 899.0094291970092,282.2739809061448 802.7681415753864,333.44638124980713" stroke-width="0" /><polygon clip-path="url(#border_clip)" fill="#98dd0b" fill-rule="evenodd" points="701.4940828815126,546.05733326013 652.7560417433522,673.0242712637496 567.168468560574,567.3324205056018 701.4940828815126,546.05733326013" stroke-width="0" /><polygon clip-path="url(#border_clip)" fill="#23eab9" fill-rule="evenodd" points="735.3646073171891,536.4282650181847 724.9029856379424,539.8274519563091 727.1900142369377,529.0678283482373 735.3646073171891,536.4282650181847" stroke-width="0" /><polygon clip-path="url(#border_clip)" fill="#f3e9ec" fill-rule="evenodd" points="944.8584237959246,233.72566503460587 1078.360424785024,182.47904824962734 1055.9902962842716,323.718480954732 944.8584237959245,233.72566503460592" stroke-width="0" /><polygon clip-path="url(#border_clip)" fill="#5bff98" fill-rule="evenodd" points="479.04332247827904,403.38062693632673 452.64630440083727,430.71553934919564 442.1720848797911,394.1875949035396 479.04332247827904,403.38062693632673" stroke-width="0" /><polygon clip-path="url(#border_clip)" fill="#5944ec" fill-rule="evenodd" points="324.075498309487,788.8127026822592 240.9428616640106,825.8257372021574 250.45495182136645,735.3242447236446 324.07549830948693,788.8127026822591" stroke-width="0" /><polygon clip-path="url(#border_clip)" fill="#cc8c8d" fill-rule="evenodd" points="758.4262124085474,390.9541318151611 662.585423226735,323.8456887620895 768.6234343100225,274.39935213842693 758.4262124085474,390.9541318151611" stroke-width="0" /><polygon clip-path="url(#border_clip)" fill="#a3a502" fill-rule="evenodd" points="908.4754509560087,908.2041052699046 1051.1271101431635,918.1792810153133 971.1625249468477,1036.7316538906848 908.4754509560087,908.2041052699046" stroke-width="0" /><polygon clip-path="url(#border_clip)" fill="#af0520" fill-rule="evenodd" points="777.4514720163286,48.45703108386738 767.7552796114016,30.96463694107956 787.7522335145295,31.313685069825056 777.4514720163286,48.45703108386738" stroke-width="0" /><polygon clip-path="url(#border_clip)" fill="#1fc6a2" fill-rule="evenodd" points="168.53386527609587,634.3197259300305 158.04488066045013,608.3585780021606 185.77238658521406,612.2554248290421 168.53386527609587,634.3197259300305" stroke-width="0" /><polygon clip-path="url(#border_clip)" fill="#9a7bb7" fill-rule="evenodd" points="514.0460110626663,831.5776190976325 537.8806099005114,775.4268230370335 574.5913263127867,824.143589149918 514.0460110626663,831.5776190976325" stroke-width="0" /><polygon clip-path="url(#border_clip)" fill="#48a611" fill-rule="evenodd" points="851.8242197426282,120.81761755374504 965.8678338543423,74.74100656358678 948.7495424362556,196.54397901879986 851.8242197426282,120.81761755374515" stroke-width="0" /><polygon clip-path="url(#border_clip)" fill="#e18901" fill-rule="evenodd" points="178.08986767089215,51.2289683220954 250.21553651419896,98.06792533338682 173.58897543399996,137.11110831098864 178.08986767089215,51.228968322095454" stroke-width="0" /><polygon clip-path="url(#border_clip)" fill="#43d620" fill-rule="evenodd" points="223.74773339018236,615.7139270319352 236.5777962539696,626.8669305247737 220.50398046878132,632.4015891505455 223.74773339018236,615.7139270319352" stroke-width="0" /><polygon clip-path="url(#border_clip)" fill="#df0d34" fill-rule="evenodd" points="112.99818427624325,906.111347903688 70.51633954507042,840.6950436039456 148.40944325592693,836.612839016995 112.99818427624325,906.111347903688" stroke-width="0" /><polygon clip-path="url(#border_clip)" fill="#dbda01" fill-rule="evenodd" points="175.33122019559573,278.01434810003093 177.1288180586373,380.99866070113893 87.04298822327911,331.0632698157676 175.33122019559568,278.01434810003093" stroke-width="0" /><polygon clip-path="url(#border_clip)" fill="#96b01a" fill-rule="evenodd" points="634.3930290698385,594.3714203173915 606.3387768566315,621.4630967652927 596.9038229282439,583.621563440529 634.3930290698385,594.3714203173914" stroke-width="0" /><polygon clip-path="url(#border_clip)" fill="#f96438" fill-rule="evenodd" points="539.9350343002517,711.9704710430135 561.0659473872872,757.2858603948455 511.25621248270005,752.9280732574634 539.9350343002516,711.9704710430135" stroke-width="0" /><polygon clip-path="url(#border_clip)" fill="#2437aa" fill-rule="evenodd" points="760.1172249330064,797.9729588305506 751.2207628644317,870.4288279003671 692.9203706309788,826.4963312102686 760.1172249330062,797.9729588305506" stroke-width="0" /><polygon clip-path="url(#border_clip)" fill="#4fda08" fill-rule="evenodd" points="170.2349411112902,39.21111086953414 176.92476276042106,102.8605121731033 118.45785347129441,76.82936701625317 170.2349411112902,39.21111086953414" stroke-width="0" /><polygon clip-path="url(#border_clip)" fill="#b2a834" fill-rule="evenodd" points="418.8953251868957,542.0068979366495 282.3961643636543,502.8663934106381 384.5424160117406,404.2249048054591 418.8953251868957,542.0068979366495" stroke-width="0" /><polygon clip-path="url(#border_clip)" fill="#a0d056" fill-rule="evenodd" points="697.8476094606218,299.54352264611543 626.725593933231,201.65246632674848 747.0627432727914,189.00452227136026 697.8476094606218,299.5435226461154" stroke-width="0" /><polygon clip-path="url(#border_clip)" fill="#50d9de" fill-rule="evenodd" points="907.3287093388421,467.4782978497551 927.1066617806541,446.2690405027989 935.5854412176141,474.0018784257266 907.3287093388423,467.4782978497551" stroke-width="0" /><polygon clip-path="url(#border_clip)" fill="#7de113" fill-rule="evenodd" points="12.330441401199835,733.12139583571 -51.505451685537196,776.1792494029586 -56.87670016383629,699.3668175329526 12.330441401199892,733.12139583571" stroke-width="0" /><polygon clip-path="url(#border_clip)" fill="#31f9c4" fill-rule="evenodd" points="32.421636868671214,350.7299579977155 31.898144418133995,365.7208204030019 19.177422975787522,357.7720314395041 32.421636868671214,350.7299579977155" stroke-width="0" /><polygon clip-path="url(#border_clip)" fill="#2c784a" fill-rule="evenodd" points="15.27907150723388,921.3302772768275 -89.57239016175504,994.7480611297633 -100.72832523345801,867.2351397740208 15.279071507233766,921.3302772768275" stroke-width="0" /><polygon clip-path="url(#border_clip)" fill="#e4e9ef" fill-rule="evenodd" points="109.96609847969637,60.6562233596423 115.79521038626177,69.98475241736281 104.80191128905176,70.36864688109057 109.96609847969631,60.6562233596423" stroke-width="0" /><polygon clip-path="url(#border_clip)" fill="#9bbe48" fill-rule="evenodd" points="243.22946170732223,208.78839412589906 300.5793283810068,79.97848459829174 383.45704895424774,194.04988080515682 243.22946170732223,208.78839412589917" stroke-width="0" /><polygon clip-path="url(#border_clip)" fill="#e50c8f" fill-rule="evenodd" points="665.0350695672754,899.9993480817484 728.3848141324297,921.8124144303763 677.8192722575054,965.7683693727413 665.0350695672753,899.9993480817485" stroke-width="0" /><polygon clip-path="url(#border_clip)" fill="#d4c723" fill-rule="evenodd" points="442.37037456307166,851.1790646662099 435.5830398796227,838.9343887662586 449.5809076118121,839.1787224563802 442.37037456307166,851.1790646662099" stroke-width="0" /><polygon clip-path="url(#border_clip)" fill="#921553" fill-rule="evenodd" points="175.03391969499808,445.8469094175777 189.849244803925,443.5003924419739 184.4737255607459,457.50409883943195 175.03391969499808,445.8469094175777" stroke-width="0" /><polygon clip-path="url(#border_clip)" fill="#69733d" fill-rule="evenodd" points="40.44471339026586,33.24882742077523 38.99616365596921,-49.73853127720474 111.58959934853965,-9.499332796760882 40.44471339026586,33.24882742077523" stroke-width="0" /><polygon clip-path="url(#border_clip)" fill="#e409ba" fill-rule="evenodd" points="458.57460530703946,664.5319340090972 333.51379020023325,649.176396740052 409.3424831173882,548.5483224740917 458.5746053070395,664.5319340090971" stroke-width="0" /><polygon clip-path="url(#border_clip)" fill="#034ff6" fill-rule="evenodd" points="809.480440264052,255.38174592472257 819.2661636873426,239.09556721138227 828.4775464720233,255.71334164703043 809.480440264052,255.38174592472257" stroke-width="0" /><polygon clip-path="url(#border_clip)" fill="#3bdc59" fill-rule="evenodd" points="784.4554987297969,150.60648650937776 740.4388566967762,159.9625125961781 754.3446214436475,117.16496936289604 784.4554987297969,150.6064865093777" stroke-width="0" /><polygon clip-path="url(#border_clip)" fill="#0ce261" fill-rule="evenodd" points="504.3303511660525,635.3211383401477 537.2195928935594,647.2918433565451 510.408037384396,669.7894096955747 504.3303511660524,635.3211383401477" stroke-width="0" /><polygon clip-path="url(#border_clip)" fill="#cfefc3" fill-rule="evenodd" points="998.2530180108073,657.9683586982047 1015.2213547194299,688.5800484480828 980.2266853889564,687.969214222779 998.2530180108073,657.9683586982047" stroke-width="0" /><polygon clip-path="url(#border_clip)" fill="#1a1995" fill-rule="evenodd" points="187.87415832225167,152.539495704692 180.55716589351812,222.1560283804709 123.92597628727094,181.01106071999982 187.87415832225167,152.53949570469206" stroke-width="0" /><polygon clip-path="url(#border_clip)" fill="#7babd6" fill-rule="evenodd" points="163.31083787065364,599.4365403899313 136.16149913686047,648.4152439897381 107.31936694189613,600.4138751504211 163.31083787065364,599.4365403899313" stroke-width="0" /><polygon clip-path="url(#border_clip)" fill="#88483a" fill-rule="evenodd" points="695.8199422336244,27.397423689188884 628.2377509913825,102.45505106240734 597.02703455951,6.398342916598494 695.8199422336244,27.397423689188884" stroke-width="0" /><polygon clip-path="url(#border_clip)" fill="#19f709" fill-rule="evenodd" points="427.63653401921823,416.0434197929113 434.82993202260445,409.0968360883212 437.24915097860145,418.799793351081 427.6365340192183,416.0434197929113" stroke-width="0" /><polygon clip-path="url(#border_clip)" fill="#ad687a" fill-rule="evenodd" points="264.4913219505872,190.87603742052067 224.43639840357696,321.88978898745694 131.0026230750119,221.69433186563452 264.4913219505871,190.87603742052067" stroke-width="0" /><polygon clip-path="url(#border_clip)" fill="#0f34aa" fill-rule="evenodd" points="672.1878824393102,667.2423172801645 699.1714347688256,668.1846036911311 684.86361463453,691.0819022873549 672.1878824393102,667.2423172801645" stroke-width="0" /><polygon clip-path="url(#border_clip)" fill="#2c916a" fill-rule="evenodd" points="695.9810592264876,302.45879460918593 785.1264584995047,248.89483481853762 786.9415087689858,352.87899511480146 695.9810592264876,302.458794609186" stroke-width="0" /><polygon clip-path="url(#border_clip)" fill="#79e2af" fill-rule="evenodd" points="285.9839627904497,237.8663583638119 278.2382412664888,90.06918722013643 410.1072068463686,157.259781181584 285.9839627904498,237.8663583638119" stroke-width="0" /><polygon clip-path="url(#border_clip)" fill="#f7fb4d" fill-rule="evenodd" points="556.329980746956,639.6694793564537 534.3333314535156,639.2855264148343 545.6641691015359,620.4278457993876 556.329980746956,639.6694793564537" stroke-width="0" /><polygon clip-path="url(#border_clip)" fill="#87e138" fill-rule="evenodd" points="188.38643583544274,432.7168928168507 186.22266703989004,494.6791240920342 133.6436850781908,461.8241297095778 188.38643583544268,432.7168928168507" stroke-width="0" /><polygon clip-path="url(#border_clip)" fill="#47d659" fill-rule="evenodd" points="81.78801513833406,442.7010814082133 154.67338642260404,543.0191887107031 31.352671396939684,555.980718155897 81.788015138334,442.7010814082133" stroke-width="0" /><polygon clip-path="url(#border_clip)" fill="#2e90a6" fill-rule="evenodd" points="662.4130228067033,549.6796144321748 643.8326677963462,655.054044004481 561.8659123826135,586.2757697680252 662.4130228067033,549.6796144321748" stroke-width="0" /><polygon clip-path="url(#border_clip)" fill="#48da9b" fill-rule="evenodd" points="272.0124846779412,847.1348864781811 237.82782845994404,946.41433691611 168.9416304159381,867.1698309927224 272.0124846779411,847.134886478181" stroke-width="0" /><polygon clip-path="url(#border_clip)" fill="#da573c" fill-rule="evenodd" points="451.73046592616856,403.50504484322875 448.9470039069665,383.69968346839767 467.49068099830237,391.191815336715 451.73046592616856,403.50504484322875" stroke-width="0" /><polygon clip-path="url(#border_clip)" fill="#e95ffd" fill-rule="evenodd" points="76.09106580363306,113.60877137610521 56.591065803634706,147.38376212369883 37.091065803633455,113.60877137610686 76.09106580363311,113.60877137610515" stroke-width="0" /><polygon clip-path="url(#border_clip)" fill="#46101f" fill-rule="evenodd" points="351.16273122968676,500.6977073769308 363.13349983280443,499.86062969200077 357.87304607133603,510.6461582475909 351.16273122968676,500.6977073769308" stroke-width="0" /><polygon clip-path="url(#border_clip)" fill="#93bd70" fill-rule="evenodd" points="375.37413098479647,586.8762669456913 405.48841657124245,685.3756568098818 305.12829989836314,662.2056982124683 375.37413098479647,586.8762669456913" stroke-width="0" /><polygon clip-path="url(#border_clip)" fill="#26ec4e" fill-rule="evenodd" points="874.6726557255083,210.7305606513546 974.9198170412815,223.0393643352699 914.1364997029289,303.7015508500484 874.6726557255083,210.73056065135466" stroke-width="0" /><polygon clip-path="url(#border_clip)" fill="#156c6e" fill-rule="evenodd" points="919.419359010225,247.59597187232202 861.386728931371,208.4524686293728 924.3023121723105,177.76648835413476 919.419359010225,247.595971872322" stroke-width="0" /><polygon clip-path="url(#border_clip)" fill="#16ae9e" fill-rule="evenodd" points="990.6416640573273,328.73141500583506 940.1669376584391,400.81679490326803 902.9765306252541,321.06170964404544 990.6416640573273,328.73141500583506" stroke-width="0" /><polygon clip-path="url(#border_clip)" fill="#028531" fill-rule="evenodd" points="58.00938468383691,474.58422293305875 38.40419572739552,467.05849599260847 54.7242609179911,453.8427677805612 58.00938468383691,474.58422293305875" stroke-width="0" /><polygon clip-path="url(#border_clip)" fill="#a67cb7" fill-rule="evenodd" points="931.7714260282112,80.86024117868044 797.1947885968459,42.271011364307526 897.9023606442513,-54.98116049995599 931.7714260282112,80.86024117868044" stroke-width="0" /><polygon clip-path="url(#border_clip)" fill="#0cfe81" fill-rule="evenodd" points="437.81386679239415,800.4797529778863 473.7897140616375,666.2160631237055 572.0775566465715,764.5039057086296 437.81386679239415,800.4797529778863" stroke-width="0" /><polygon clip-path="url(#border_clip)" fill="#704797" fill-rule="evenodd" points="718.7844151177239,507.3249459245719 772.9946365465462,489.7109772451974 761.1436701699369,545.4653904870244 718.7844151177239,507.324945924572" stroke-width="0" /><polygon clip-path="url(#border_clip)" fill="#61cbdf" fill-rule="evenodd" points="702.7330452621318,741.2128897909072 758.6001612336468,636.1421262406932 821.6605536774027,737.0598496833035 702.7330452621318,741.2128897909072" stroke-width="0" /><polygon clip-path="url(#border_clip)" fill="#95f15f" fill-rule="evenodd" points="333.4048501187616,825.3329932224849 343.47032238123415,810.4103169164939 351.3610030234383,826.5886097498783 333.4048501187616,825.332993222485" stroke-width="0" /><polyline clip-path="url(#border_clip)" fill="none" points="652.5583087104084,641.7694374008681 652.5583087104084,641.7694374008681" stroke="#a75225" stroke-linecap="round" stroke-width="73" /><polyline clip-path="url(#border_clip)" fill="none" points="288.909224860197,396.7738313625591 288.909224860197,396.7738313625591" stroke="#358efb" stroke-linecap="round" stroke-width="13" /><polyline clip-path="url(#border_clip)" fill="none" points="122.67908787277906,814.7622624742373 122.67908787277906,814.7622624742373" stroke="#815764" stroke-linecap="round" stroke-width="27" /><polyline clip-path="url(#border_clip)" fill="none" points="913.6774172525323,480.7746539342185 913.6774172525323,480.7746539342185" stroke="#e85c3d" stroke-linecap="round" stroke-width="41" /><polyline clip-path="url(#border_clip)" fill="none" points="805.4058973322406,238.405264091964 805.4058973322406,238.405264091964" stroke="#1d244a" stroke-linecap="round" stroke-width="48" /><polyline clip-path="url(#border_clip)" fill="none" points="536.6928988130437,593.3818022753343 536.6928988130437,593.3818022753343" stroke="#46e167" stroke-linecap="round" stroke-width="34" /><polyline clip-path="url(#border_clip)" fill="none" points="478.1392027598858,404.39580337062546 478.1392027598858,404.39580337062546" stroke="#79e712" stroke-linecap="round" stroke-width="46" /><polyline clip-path="url(#border_clip)" fill="none" points="200.62408978840523,7.134793750466827 200.62408978840523,7.134793750466827" stroke="#93e102" stroke-linecap="round" stroke-width="24" /><polyline clip-path="url(#border_clip)" fill="none" points="551.8373010236792,52.35140401218524 551.8373010236792,52.35140401218524" stroke="#c0c236" stroke-linecap="round" stroke-width="24" /><polyline clip-path="url(#border_clip)" fill="none" points="65.68560046082376,446.80316837232374 65.68560046082376,446.80316837232374" stroke="#b262fd" stroke-linecap="round" stroke-width="12" /><polyline clip-path="url(#border_clip)" fill="none" points="429.6111792706752,728.4074060567632 429.6111792706752,728.4074060567632" stroke="#3ee4f0" stroke-linecap="round" stroke-width="34" /><polyline clip-path="url(#border_clip)" fill="none" points="14.639068902532017,34.89013360221065 14.639068902532017,34.89013360221065" stroke="#eb6e70" stroke-linecap="round" stroke-width="37" /><polyline clip-path="url(#border_clip)" fill="none" points="507.72226643439205,861.6462259576542 507.72226643439205,861.6462259576542" stroke="#b4ea94" stroke-linecap="round" stroke-width="21" /><polyline clip-path="url(#border_clip)" fill="none" points="861.8946741705366,73.35024330792243 861.8946741705366,73.35024330792243" stroke="#b731d2" stroke-linecap="round" stroke-width="22" /><polyline clip-path="url(#border_clip)" fill="none" points="664.511027383721,910.4215916463493 664.511027383721,910.4215916463493" stroke="#ea4c47" stroke-linecap="round" stroke-width="45" /><polyline clip-path="url(#border_clip)" fill="none" points="712.197513320347,169.40846810341344 712.197513320347,169.40846810341344" stroke="#06f411" stroke-linecap="round" stroke-width="12" /><polyline clip-path="url(#border_clip)" fill="none" points="392.38837282371657,796.7388607385474 392.38837282371657,796.7388607385474" stroke="#44eb80" stroke-linecap="round" stroke-width="28" /><polyline clip-path="url(#border_clip)" fill="none" points="727.3030521882276,317.16871752612036 727.3030521882276,317.16871752612036" stroke="#091e23" stroke-linecap="round" stroke-width="52" /><polyline clip-path="url(#border_clip)" fill="none" points="994.2142883847457,885.6168491535977 994.2142883847457,885.6168491535977" stroke="#d9c25d" stroke-linecap="round" stroke-width="8" /><polyline clip-path="url(#border_clip)" fill="none" points="674.3264742949909,273.2073502346485 674.3264742949909,273.2073502346485" stroke="#16f111" stroke-linecap="round" stroke-width="66" /><polyline clip-path="url(#border_clip)" fill="none" points="559.7524840831878,646.7842828984708 559.7524840831878,646.7842828984708" stroke="#38ad99" stroke-linecap="round" stroke-width="8" /><polyline clip-path="url(#border_clip)" fill="none" points="688.2824273636691,152.19177720796887 688.2824273636691,152.19177720796887" stroke="#177179" stroke-linecap="round" stroke-width="32" /><polyline clip-path="url(#border_clip)" fill="none" points="387.86073140323913,459.64707147177 387.86073140323913,459.64707147177" stroke="#4cc905" stroke-linecap="round" stroke-width="61" /><polyline clip-path="url(#border_clip)" fill="none" points="61.447349293222544,148.7611468819582 61.447349293222544,148.7611468819582" stroke="#c0d81a" stroke-linecap="round" stroke-width="61" /><polyline clip-path="url(#border_clip)" fill="none" points="956.0281897618974,483.9063717373203 956.0281897618974,483.9063717373203" stroke="#ccedcb" stroke-linecap="round" stroke-width="28" /><polyline clip-path="url(#border_clip)" fill="none" points="745.982843660812,749.9927295113239 745.982843660812,749.9927295113239" stroke="#64dc59" stroke-linecap="round" stroke-width="38" /><polyline clip-path="url(#border_clip)" fill="none" points="410.71174074821664,782.6165242061458 410.71174074821664,782.6165242061458" stroke="#fc9782" stroke-linecap="round" stroke-width="51" /><polyline clip-path="url(#border_clip)" fill="none" points="317.7209969170975,557.0777918330695 317.7209969170975,557.0777918330695" stroke="#a86d89" stroke-linecap="round" stroke-width="28" /><polyline clip-path="url(#border_clip)" fill="none" points="449.2646820107486,430.6693519750318 449.2646820107486,430.6693519750318" stroke="#b348c0" stroke-linecap="round" stroke-width="10" /><polyline clip-path="url(#border_clip)" fill="none" points="725.605062172757,607.6673847204655 725.605062172757,607.6673847204655" stroke="#533337" stroke-linecap="round" stroke-width="11" /><polyline clip-path="url(#border_clip)" fill="none" points="360.1499704573611,825.6024577800745 360.1499704573611,825.6024577800745" stroke="#8d1f79" stroke-linecap="round" stroke-width="65" /><polyline clip-path="url(#border_clip)" fill="none" points="332.70873994740253,614.886854375191 332.70873994740253,614.886854375191" stroke="#f1cfb6" stroke-linecap="round" stroke-width="36" /><polyline clip-path="url(#border_clip)" fill="none" points="459.1571332671043,224.42390022201312 459.1571332671043,224.42390022201312" stroke="#a8192f" stroke-linecap="round" stroke-width="49" /><polyline clip-path="url(#border_clip)" fill="none" points="821.6530985292115,537.1652929180237 821.6530985292115,537.1652929180237" stroke="#d18ae0" stroke-linecap="round" stroke-width="14" /><polyline clip-path="url(#border_clip)" fill="none" points="701.3849178477052,237.63037774644187 701.3849178477052,237.63037774644187" stroke="#1b322e" stroke-linecap="round" stroke-width="5" /><polyline clip-path="url(#border_clip)" fill="none" points="145.16498399100414,939.4823074848731 145.16498399100414,939.4823074848731" stroke="#1b1685" stroke-linecap="round" stroke-width="3" /><polyline clip-path="url(#border_clip)" fill="none" points="637.9400829192349,751.9709538419071 637.9400829192349,751.9709538419071" stroke="#7d10c9" stroke-linecap="round" stroke-width="24" /><polyline clip-path="url(#border_clip)" fill="none" points="645.760287449473,438.4757345413252 645.760287449473,438.4757345413252" stroke="#15989b" stroke-linecap="round" stroke-width="27" /><polyline clip-path="url(#border_clip)" fill="none" points="275.7842460411332,200.4913375750615 275.7842460411332,200.4913375750615" stroke="#e50ec1" stroke-linecap="round" stroke-width="51" /><polyline clip-path="url(#border_clip)" fill="none" points="675.768171166173,363.97014777247676 675.768171166173,363.97014777247676" stroke="#fbfccc" stroke-linecap="round" stroke-width="14" /><polyline clip-path="url(#border_clip)" fill="none" points="311.7776751181631,219.44632101778035 311.7776751181631,219.44632101778035" stroke="#15dc41" stroke-linecap="round" stroke-width="62" /><polyline clip-path="url(#border_clip)" fill="none" points="181.59529625083496,915.4641200275208 181.59529625083496,915.4641200275208" stroke="#fd1818" stroke-linecap="round" stroke-width="34" /><polyline clip-path="url(#border_clip)" fill="none" points="130.44596448096183,26.291066955934127 130.44596448096183,26.291066955934127" stroke="#945b61" stroke-linecap="round" stroke-width="57" /><polyline clip-path="url(#border_clip)" fill="none" points="50.13738688939577,313.0976049660131 50.13738688939577,313.0976049660131" stroke="#eb0984" stroke-linecap="round" stroke-width="68" /><polyline clip-path="url(#border_clip)" fill="none" points="249.2622780052242,432.9932910729194 249.2622780052242,432.9932910729194" stroke="#daf79b" stroke-linecap="round" stroke-width="53" /><polyline clip-path="url(#border_clip)" fill="none" points="252.2855274680627,152.64238278393623 252.2855274680627,152.64238278393623" stroke="#5fa894" stroke-linecap="round" stroke-width="60" /><polyline clip-path="url(#border_clip)" fill="none" points="770.458085512877,605.668356407096 770.458085512877,605.668356407096" stroke="#44aa42" stroke-linecap="round" stroke-width="62" /><polyline clip-path="url(#border_clip)" fill="none" points="732.2628567058937,196.94839962572848 732.2628567058937,196.94839962572848" stroke="#67bd45" stroke-linecap="round" stroke-width="8" /><polyline clip-path="url(#border_clip)" fill="none" points="47.74191786791744,213.36548707798056 47.74191786791744,213.36548707798056" stroke="#6aaa60" stroke-linecap="round" stroke-width="55" /><polyline clip-path="url(#border_clip)" fill="none" points="3.322705224341462,343.09399301554794 3.322705224341462,343.09399301554794" stroke="#be079a" stroke-linecap="round" stroke-width="6" /><polyline clip-path="url(#border_clip)" fill="none" points="14.2171685261157,345.998697151018 14.2171685261157,345.998697151018" stroke="#fb1ff8" stroke-linecap="round" stroke-width="16" /><polyline clip-path="url(#border_clip)" fill="none" points="430.7167291300821,293.3787234178873 430.7167291300821,293.3787234178873" stroke="#982181" stroke-linecap="round" stroke-width="61" /><polyline clip-path="url(#border_clip)" fill="none" points="403.04892498322835,996.3724898383161 403.04892498322835,996.3724898383161" stroke="#857d91" stroke-linecap="round" stroke-width="25" /><polyline clip-path="url(#border_clip)" fill="none" points="776.9025033481105,961.1413096011304 776.9025033481105,961.1413096011304" stroke="#6f4d28" stroke-linecap="round" stroke-width="38" /><polyline clip-path="url(#border_clip)" fill="none" points="803.7195009653283,967.7120652463125 803.7195009653283,967.7120652463125" stroke="#d56f0d" stroke-linecap="round" stroke-width="38" /><polyline clip-path="url(#border_clip)" fill="none" points="863.9052640338612,939.6582901388138 863.9052640338612,939.6582901388138" stroke="#0ea71e" stroke-linecap="round" stroke-width="72" /><polyline clip-path="url(#border_clip)" fill="none" points="552.2751327377987,409.4240472354716 552.2751327377987,409.4240472354716" stroke="#4d51bd" stroke-linecap="round" stroke-width="54" /><polyline clip-path="url(#border_clip)" fill="none" points="512.8749277648649,84.69929508673687 512.8749277648649,84.69929508673687" stroke="#3ece18" stroke-linecap="round" stroke-width="52" /><polyline clip-path="url(#border_clip)" fill="none" points="663.4185268132919,955.8896579328812 663.4185268132919,955.8896579328812" stroke="#02e5f9" stroke-linecap="round" stroke-width="29" /><polyline clip-path="url(#border_clip)" fill="none" points="557.6334727685482,190.00991925762628 557.6334727685482,190.00991925762628" stroke="#776ac5" stroke-linecap="round" stroke-width="18" /><polyline clip-path="url(#border_clip)" fill="none" points="947.6203582394648,254.62383610433608 947.6203582394648,254.62383610433608" stroke="#4ccd1b" stroke-linecap="round" stroke-width="52" /><polyline clip-path="url(#border_clip)" fill="none" points="535.6427215937483,758.9032673340112 535.6427215937483,758.9032673340112" stroke="#b67dd3" stroke-linecap="round" stroke-width="68" /><polyline clip-path="url(#border_clip)" fill="none" points="5.027745992586233,257.1076896869604 5.027745992586233,257.1076896869604" stroke="#e12335" stroke-linecap="round" stroke-width="25" /><polyline clip-path="url(#border_clip)" fill="none" points="851.635476005062,926.5713529339573 851.635476005062,926.5713529339573" stroke="#a92cfa" stroke-linecap="round" stroke-width="64" /><polyline clip-path="url(#border_clip)" fill="none" points="339.16614364609137,439.73905759677575 339.16614364609137,439.73905759677575" stroke="#5d3ec5" stroke-linecap="round" stroke-width="48" /></svg>