<?xml version="1.0" encoding="utf-8" ?>
<svg baseProfile="full" height="1000px" version="1.1" width="1000px" xmlns="http://www.w3.org/2000/svg" xmlns:ev="http://www.w3.org/2001/xml-events" xmlns:xlink="http://www.w3.org/1999/xlink"><defs><clipPath id="border_clip"><rect height="1000" width="1000" x="0" y="0" /></clipPath></defs><polyline clip-path="url(#border_clip)" fill="none" points="500.5,500.5 500.5,500.5 -9.5,-9.5" stroke="black" stroke-linecap="round" stroke-width="1" /><polygon clip-path="url(#border_clip)" fill="#bcfb53" fill-rule="evenodd" points="-9.5,-9.5 1000.5,-9.5 1000.5,1000.5 -9.499999999999943,1000.5000000000001 -9.500000000000114,-9.499999999999886" stroke-width="0" /><polyline clip-path="url(#border_clip)" fill="none" points="-9.5,-9.5 1000.5,-9.5 1000.5,1000.5 -9.499999999999943,1000.5000000000001 -9.500000000000114,-9.499999999999886" stroke="black" stroke-linecap="round" stroke-width="1" /><polygon clip-path="url(#border_clip)" fill="#fb80df" fill-rule="evenodd" points="778.4240224503915,737.2626490887508 638.5489155454572,707.5312773018113 734.2345922547738,601.2615672585438 778.4240224503915,737.2626490887508" stroke-width="0" /><polygon clip-path="url(#border_clip)" fill="#47e780" fill-rule="evenodd" points="619.9872168586353,981.2709856468919 688.2075540155082,1019.086136026106 621.3485045607435,1059.2591058690905 619.9872168586353,981.2709856468919" stroke-width="0" /><polygon clip-path="url(#border_clip)" fill="#05e211" fill-rule="evenodd" points="727.0378480579182,877.8809179056384 866.4289081074864,904.9757952491074 773.2685259908346,1012.1445556407411 727.0378480579182,877.8809179056384" stroke-width="0" /><polygon clip-path="url(#border_clip)" fill="#8e6b4c" fill-rule="evenodd" points="96.60640437043918,673.082980739183 164.2884238598623,576.4230395130819 214.15737874526508,683.3673583834063 96.60640437043912,673.0829807391831" stroke-width="0" /><polygon clip-path="url(#border_clip)" fill="#722c2b" fill-rule="evenodd" points="646.5101118509979,934.8402974280506 755.310546454974,1022.9451521750274 624.609286745366,1073.11666511137 646.5101118509979,934.8402974280506" stroke-width="0" /><polygon clip-path="url(#border_clip)" fill="#f3e17b" fill-rule="evenodd" points="877.9640547485997,737.9420801054374 872.8845500782392,749.9086432003191 865.0609547772625,739.5263815697044 877.9640547485997,737.9420801054374" stroke-width="0" /><polygon clip-path="url(#border_clip)" fill="#a872e3" fill-rule="evenodd" points="267.0067285316337,704.8359056134593 181.21622020928896,710.8349623554545 218.9161388331492,633.538674373726 267.0067285316337,704.8359056134593" stroke-width="0" /><polygon clip-path="url(#border_clip)" fill="#162829" fill-rule="evenodd" points="106.6060262693083,637.1336503657424 32.64448740747639,572.8398655246731 125.30530781620917,540.9341863878713 106.60602626930836,637.1336503657424" stroke-width="0" /><polygon clip-path="url(#border_clip)" fill="#8cd07e" fill-rule="evenodd" points="382.92726791846314,617.7327265100055 291.5083475540946,684.1524600190554 279.6966312048491,571.7714858424407 382.92726791846314,617.7327265100055" stroke-width="0" /><polygon clip-path="url(#border_clip)" fill="#464120" fill-rule="evenodd" points="97.19397100606005,771.1390885899548 210.62285112678126,738.6138806035482 182.07606744602128,853.1087763041157 97.19397100606,771.1390885899548" stroke-width="0" /><polygon clip-path="url(#border_clip)" fill="#dc51d0" fill-rule="evenodd" points="977.4172076287523,724.8368429990774 1035.1489453403444,635.9377627968621 1083.271938312737,730.3844543608286 977.4172076287523,724.8368429990774" stroke-width="0" /><polygon clip-path="url(#border_clip)" fill="#dadd0d" fill-rule="evenodd" points="84.5982628407815,33.26077632258813 68.75397374091642,35.487545937949335 74.7476792355709,20.652604264880722 84.59826284078156,33.260776322588185" stroke-width="0" /><polygon clip-path="url(#border_clip)" fill="#f273b0" fill-rule="evenodd" points="482.403933310595,664.0404897604822 491.39074926584806,642.868878131076 505.23249479834533,661.2374948621635 482.403933310595,664.0404897604822" stroke-width="0" /><polygon clip-path="url(#border_clip)" fill="#4e0b3f" fill-rule="evenodd" points="753.8811204942398,971.6300666776018 717.1704040819644,922.9133005647174 777.7157193320849,915.4792706170028 753.8811204942398,971.6300666776018" stroke-width="0" /><polygon clip-path="url(#border_clip)" fill="#7ae6b4" fill-rule="evenodd" points="762.8388626267583,853.4053300865257 789.9337399702291,992.7963901360936 655.6701022351259,946.5657122031788 762.8388626267583,853.4053300865257" stroke-width="0" /><polygon clip-path="url(#border_clip)" fill="#dc6500" fill-rule="evenodd" points="74.4536650434166,481.36548348340676 173.4131902521193,443.3784808316039 156.83113695785607,548.0734449346884 74.45366504341655,481.3654834834068" stroke-width="0" /><polygon clip-path="url(#border_clip)" fill="#1fd785" fill-rule="evenodd" points="477.50111793848123,127.77392537171409 379.46457913306614,141.55206236676173 416.5506318812402,49.76086076464952 477.50111793848123,127.77392537171403" stroke-width="0" /><polygon clip-path="url(#border_clip)" fill="#9bd14c" fill-rule="evenodd" points="885.714249316313,380.6616564804026 824.2494105349895,428.68325155580465 813.3939086601033,351.4423421939625 885.714249316313,380.66165648040254" stroke-width="0" /><polygon clip-path="url(#border_clip)" fill="#2abc58" fill-rule="evenodd" points="710.8726021845474,707.1785256040297 726.2641390676886,687.4782567638615 735.6293039030867,710.657853128031 710.8726021845474,707.1785256040297" stroke-width="0" /><polygon clip-path="url(#border_clip)" fill="#0b7e3b" fill-rule="evenodd" points="429.5302215567714,24.311556834294265 483.2854139885643,-115.72550714028637 577.6834726460413,0.8463870782575782 429.53022155677144,24.311556834294322" stroke-width="0" /><polygon clip-path="url(#border_clip)" fill="#97ad45" fill-rule="evenodd" points="276.9303536006265,35.06745272716819 178.92317079328666,87.17879619640337 182.79701492726258,-23.75358560271593 276.93035360062646,35.06745272716819" stroke-width="0" /><polygon clip-path="url(#border_clip)" fill="#746f1c" fill-rule="evenodd" points="376.95793795509974,48.510911879097364 290.6400897348087,144.37659436568225 250.77689746043876,21.690303763608426 376.95793795509974,48.51091187909731" stroke-width="0" /><polygon clip-path="url(#border_clip)" fill="#1b9f77" fill-rule="evenodd" points="258.7600418011169,145.92638605998735 229.91790960615322,97.9250172206697 285.90938053491095,96.94768246018094 258.7600418011169,145.9263860599874" stroke-width="0" /><polygon clip-path="url(#border_clip)" fill="#be5e17" fill-rule="evenodd" points="416.0767936186093,822.628104538568 408.1439268638866,879.0733844568374 363.22731390830296,843.9806803632757 416.0767936186093,822.628104538568" stroke-width="0" /><polygon clip-path="url(#border_clip)" fill="#1b68ce" fill-rule="evenodd" points="765.409626930131,724.2657909986773 689.1839918434454,851.1265515025908 617.4321680469855,721.6828348459619 765.409626930131,724.2657909986772" stroke-width="0" /><polygon clip-path="url(#border_clip)" fill="#18a9b4" fill-rule="evenodd" points="739.537271100336,79.40294762086722 622.2298069159675,-5.825913961539015 754.6938982741431,-64.80272720753226 739.537271100336,79.40294762086717" stroke-width="0" /><polygon clip-path="url(#border_clip)" fill="#e2c528" fill-rule="evenodd" points="279.70341502920377,62.49361735830212 281.4832893610304,11.52468518032839 324.73374226500846,38.55056765622095 279.7034150292038,62.49361735830212" stroke-width="0" /><polygon clip-path="url(#border_clip)" fill="#7422a1" fill-rule="evenodd" points="301.55264995452353,187.2463885130498 247.3424285257003,204.86035719242278 259.1933949023114,149.10594395059582 301.55264995452353,187.24638851304974" stroke-width="0" /><polygon clip-path="url(#border_clip)" fill="#edf4bf" fill-rule="evenodd" points="209.52414648550206,283.62013898739815 168.56654427105207,254.94131716984683 213.88193362288393,233.81040408281098 209.52414648550206,283.62013898739815" stroke-width="0" /><polygon clip-path="url(#border_clip)" fill="#dc9545" fill-rule="evenodd" points="978.0957501184082,693.173685650413 910.1750492790891,710.1082183423912 929.4696641862776,642.8198996267087 978.0957501184082,693.173685650413" stroke-width="0" /><polygon clip-path="url(#border_clip)" fill="#3b502b" fill-rule="evenodd" points="280.9252851568284,198.04806360671648 311.8372700305906,267.4775183875532 236.25360598260198,259.53335517921323 280.92528515682835,198.04806360671648" stroke-width="0" /><polygon clip-path="url(#border_clip)" fill="#364011" fill-rule="evenodd" points="583.943776922223,992.2639979724056 533.6113103294693,967.7152137522186 580.0374143925508,936.4004111578558 583.943776922223,992.2639979724056" stroke-width="0" /><polygon clip-path="url(#border_clip)" fill="#78706b" fill-rule="evenodd" points="136.15568820369214,267.76156800001763 -1.080634491397177,215.081479416862 113.15982184277482,122.57138193253354 136.1556882036922,267.7615680000176" stroke-width="0" /><polygon clip-path="url(#border_clip)" fill="#ec250a" fill-rule="evenodd" points="991.1167790040824,631.2187520536874 927.0308991240333,594.2187520536891 991.1167790040806,557.2187520536876 991.1167790040824,631.2187520536872" stroke-width="0" /><polygon clip-path="url(#border_clip)" fill="#649599" fill-rule="evenodd" points="61.787417372508855,553.0019040071611 93.1127618545359,491.52245383816324 130.6928552705741,549.3907230263962 61.78741737250891,553.0019040071612" stroke-width="0" /><polygon clip-path="url(#border_clip)" fill="#8bbee3" fill-rule="evenodd" points="861.6961378581439,854.6712397921251 850.26250906627,819.4821486892049 886.4539702934208,827.1748812494609 861.6961378581439,854.6712397921251" stroke-width="0" /><polygon clip-path="url(#border_clip)" fill="#afa14b" fill-rule="evenodd" points="669.6301911841102,744.9275642950837 552.7869651652206,801.9158133776666 561.8553067519533,672.2324868438899 669.6301911841101,744.9275642950837" stroke-width="0" /><polygon clip-path="url(#border_clip)" fill="#51bbc3" fill-rule="evenodd" points="568.8273201511731,338.8670238398864 499.7894561422413,368.1718584765836 508.92965689762525,293.7308971034846 568.8273201511731,338.8670238398863" stroke-width="0" /><polygon clip-path="url(#border_clip)" fill="#dc4b90" fill-rule="evenodd" points="637.2014749634352,946.7538211158043 631.9678793391436,1046.6167745912612 548.1008225446002,992.1528710897612 637.2014749634352,946.7538211158042" stroke-width="0" /><polygon clip-path="url(#border_clip)" fill="#0ec918" fill-rule="evenodd" points="240.27526200791033,832.6166404857543 243.51901492931108,815.9289783671439 256.34907779309844,827.0819818599821 240.27526200791033,832.6166404857543" stroke-width="0" /><polygon clip-path="url(#border_clip)" fill="#ce64c7" fill-rule="evenodd" points="610.1588756530757,214.35672616254084 600.78187405906,161.1771074998822 651.5252755814993,179.6461952394667 610.1588756530757,214.35672616254084" stroke-width="0" /><polygon clip-path="url(#border_clip)" fill="#5b9041" fill-rule="evenodd" points="742.830760487366,731.3692218826966 678.9948674006296,774.4270754499457 673.6236189223296,697.61464357994 742.830760487366,731.3692218826966" stroke-width="0" /><polygon clip-path="url(#border_clip)" fill="#2c4504" fill-rule="evenodd" points="906.387836735898,130.86235169633238 843.3946509866151,55.789996270674976 939.9058107818104,38.77247485931292 906.387836735898,130.86235169633238" stroke-width="0" /><polyline clip-path="url(#border_clip)" fill="none" points="99.76432254144089,179.8950205567968 99.76432254144089,179.8950205567968" stroke="#a4a646" stroke-linecap="round" stroke-width="33" /><polyline clip-path="url(#border_clip)" fill="none" points="159.76795211709566,665.9508327305075 159.76795211709566,665.9508327305075" stroke="#de5a58" stroke-linecap="round" stroke-width="45" /><polyline clip-path="url(#border_clip)" fill="none" points="437.3054576996606,778.5448723225832 437.3054576996606,778.5448723225832" stroke="#c46a06" stroke-linecap="round" stroke-width="10" /><polyline clip-path="url(#border_clip)" fill="none" points="173.58553882862788,404.9867262653901 173.58553882862788,404.9867262653901" stroke="#c8c476" stroke-linecap="round" stroke-width="44" /><polyline clip-path="url(#border_clip)" fill="none" points="210.16960231649654,302.5938186629394 210.16960231649654,302.5938186629394" stroke="#d6951b" stroke-linecap="round" stroke-width="45" /><polyline clip-path="url(#border_clip)" fill="none" points="433.28967466017446,390.09917794571675 433.28967466017446,390.09917794571675" stroke="#48ba1f" stroke-linecap="round" stroke-width="28" /><polyline clip-path="url(#border_clip)" fill="none" points="959.6333481980105,613.9867679082665 959.6333481980105,613.9867679082665" stroke="#e6fe45" stroke-linecap="round" stroke-width="54" /><polyline clip-path="url(#border_clip)" fill="none" points="659.2531914601809,219.25845771303028 659.2531914601809,219.25845771303028" stroke="#f2a9c0" stroke-linecap="round" stroke-width="56" /><polyline clip-path="url(#border_clip)" fill="none" points="159.53953475461788,972.1477608842191 159.53953475461788,972.1477608842191" stroke="#39e427" stroke-linecap="round" stroke-width="21" /><polyline clip-path="url(#border_clip)" fill="none" points="939.4052511501262,617.1648493643531 939.4052511501262,617.1648493643531" stroke="#7c8f49" stroke-linecap="round" stroke-width="54" /><polyline clip-path="url(#border_clip)" fill="none" points="868.0727281923548,237.59641883717478 868.0727281923548,237.59641883717478" stroke="#b26f02" stroke-linecap="round" stroke-width="14" /><polyline clip-path="url(#border_clip)" fill="none" points="607.7258011836833,183.39300359206294 607.7258011836833,183.39300359206294" stroke="#af63e5" stroke-linecap="round" stroke-width="56" /><polyline clip-path="url(#border_clip)" fill="none" points="660.4355030996214,87.01344714074384 660.4355030996214,87.01344714074384" stroke="#de5d52" stroke-linecap="round" stroke-width="57" /><polyline clip-path="url(#border_clip)" fill="none" points="761.3648037799289,48.58704517439833 761.3648037799289,48.58704517439833" stroke="#5a1463" stroke-linecap="round" stroke-width="51" /><polyline clip-path="url(#border_clip)" fill="none" points="4.659768111886478,521.3053503759058 4.659768111886478,521.3053503759058" stroke="#5dcb1a" stroke-linecap="round" stroke-width="72" /><polyline clip-path="url(#border_clip)" fill="none" points="698.296547163628,157.7545679718391 698.296547163628,157.7545679718391" stroke="#41efa9" stroke-linecap="round" stroke-width="57" /><polyline clip-path="url(#border_clip)" fill="none" points="292.9862554299176,133.44161761668602 292.9862554299176,133.44161761668602" stroke="#e8a7c6" stroke-linecap="round" stroke-width="33" /><polyline clip-path="url(#border_clip)" fill="none" points="405.7029663323209,330.61480480036835 405.7029663323209,330.61480480036835" stroke="#bdcaff" stroke-linecap="round" stroke-width="34" /><polyline clip-path="url(#border_clip)" fill="none" points="158.56225944511255,946.5792015674043 158.56225944511255,946.5792015674043" stroke="#032861" stroke-linecap="round" stroke-width="15" /><polyline clip-path="url(#border_clip)" fill="none" points="641.9504629888113,104.94986082659466 641.9504629888113,104.94986082659466" stroke="#7f7c8d" stroke-linecap="round" stroke-width="15" /><polyline clip-path="url(#border_clip)" fill="none" points="918.3061477857557,408.6250819291732 918.3061477857557,408.6250819291732" stroke="#26adbf" stroke-linecap="round" stroke-width="44" /><polyline clip-path="url(#border_clip)" fill="none" points="106.6601452196553,126.2042128756749 106.6601452196553,126.2042128756749" stroke="#4d5c45" stroke-linecap="round" stroke-width="55" /><polyline clip-path="url(#border_clip)" fill="none" points="563.6121277926985,299.4510813499603 563.6121277926985,299.4510813499603" stroke="#f427c4" stroke-linecap="round" stroke-width="25" /><polyline clip-path="url(#border_clip)" fill="none" points="625.0176293899796,787.5361173520305 625.0176293899796,787.5361173520305" stroke="#a6a4b0" stroke-linecap="round" stroke-width="30" /><polyline clip-path="url(#border_clip)" fill="none" points="949.3583206861213,35.97081823639917 949.3583206861213,35.97081823639917" stroke="#cfd51b" stroke-linecap="round" stroke-width="36" /><polyline clip-path="url(#border_clip)" fill="none" points="970.9017685000476,870.2758034931552 970.9017685000476,870.2758034931552" stroke="#b692bb" stroke-linecap="round" stroke-width="32" /><polyline clip-path="url(#border_clip)" fill="none" points="921.4054855127827,930.7379239141037 921.4054855127827,930.7379239141037" stroke="#8a9ee2" stroke-linecap="round" stroke-width="74" /><polyline clip-path="url(#border_clip)" fill="none" points="395.87489744417144,904.9679855534685 395.87489744417144,904.9679855534685" stroke="#727dc2" stroke-linecap="round" stroke-width="43" /><polyline clip-path="url(#border_clip)" fill="none" points="57.440123572424284,100.2628088286512 57.440123572424284,100.2628088286512" stroke="#5a6511" stroke-linecap="round" stroke-width="62" /><polyline clip-path="url(#border_clip)" fill="none" points="357.5786322787407,839.92615543683 357.5786322787407,839.92615543683" stroke="#1d0801" stroke-linecap="round" stroke-width="35" /><polyline clip-path="url(#border_clip)" fill="none" points="284.22774283514934,58.860984125551454 284.22774283514934,58.860984125551454" stroke="#a0056c" stroke-linecap="round" stroke-width="67" /><polyline clip-path="url(#border_clip)" fill="none" points="972.5316907384563,622.2224065374907 972.5316907384563,622.2224065374907" stroke="#10f5d0" stroke-linecap="round" stroke-width="69" /><polyline clip-path="url(#border_clip)" fill="none" points="280.44452377689663,272.11692282378226 280.44452377689663,272.11692282378226" stroke="#2eec20" stroke-linecap="round" stroke-width="30" /><polyline clip-path="url(#border_clip)" fill="none" points="430.2088931850115,860.6861380943799 430.2088931850115,860.6861380943799" stroke="#bd3fc8" stroke-linecap="round" stroke-width="58" /><polyline clip-path="url(#border_clip)" fill="none" points="249.9762935842636,899.8095982835423 249.9762935842636,899.8095982835423" stroke="#700a2b" stroke-linecap="round" stroke-width="16" /><polyline clip-path="url(#border_clip)" fill="none" points="842.3114999429079,818.3287452320676 842.3114999429079,818.3287452320676" stroke="#fdcff7" stroke-linecap="round" stroke-width="10" /><polyline clip-path="url(#border_clip)" fill="none" points="670.4761469751002,383.41524157692993 670.4761469751002,383.41524157692993" stroke="#693050" stroke-linecap="round" stroke-width="29" /><polyline clip-path="url(#border_clip)" fill="none" points="884.5561994683177,982.4494867955916 884.5561994683177,982.4494867955916" stroke="#82805f" stroke-linecap="round" stroke-width="43" /><polyline clip-path="url(#border_clip)" fill="none" points="547.671196279973,44.53701225100656 547.671196279973,44.53701225100656" stroke="#d3240d" stroke-linecap="round" stroke-width="70" /><polyline clip-path="url(#border_clip)" fill="none" points="505.1062743736243,810.00982423655 505.1062743736243,810.00982423655" stroke="#e5ac4f" stroke-linecap="round" stroke-width="4" /><polyline clip-path="url(#border_clip)" fill="none" points="394.04478011342707,69.90844537957258 394.04478011342707,69.90844537957258" stroke="#3bcecc" stroke-linecap="round" stroke-width="63" /><polyline clip-path="url(#border_clip)" fill="none" points="105.40351599527816,920.7427968402214 105.40351599527816,920.7427968402214" stroke="#132c4a" stroke-linecap="round" stroke-width="50" /><polyline clip-path="url(#border_clip)" fill="none" points="11.946907840563881,97.86977068246244 11.946907840563881,97.86977068246244" stroke="#4e760e" stroke-linecap="round" stroke-width="9" /></svg>