<?xml version="1.0" encoding="utf-8" ?>
<svg baseProfile="full" height="1000px" version="1.1" width="1000px" xmlns="http://www.w3.org/2000/svg" xmlns:ev="http://www.w3.org/2001/xml-events" xmlns:xlink="http://www.w3.org/1999/xlink"><defs><clipPath id="border_clip"><rect height="1000" width="1000" x="0" y="0" /></clipPath></defs><polyline clip-path="url(#border_clip)" fill="none" points="500.5,500.5 500.5,500.5 -9.5,-9.5" stroke="black" stroke-linecap="round" stroke-width="1" /><polygon clip-path="url(#border_clip)" fill="#052a4d" fill-rule="evenodd" points="-9.5,-9.5 1000.5,-9.5 1000.5,1000.5 -9.499999999999943,1000.5000000000001 -9.500000000000114,-9.499999999999886" stroke-width="0" /><polyline clip-path="url(#border_clip)" fill="none" points="-9.5,-9.5 1000.5,-9.5 1000.5,1000.5 -9.499999999999943,1000.5000000000001 -9.500000000000114,-9.499999999999886" stroke="black" stroke-linecap="round" stroke-width="1" /><polygon clip-path="url(#border_clip)" fill="#99a5ac" fill-rule="evenodd" points="445.58601235191725,629.5617702732881 499.8846898195069,531.6043630736757 557.5689542094331,627.6071007523121 445.58601235191725,629.5617702732881" stroke-width="0" /><polygon clip-path="url(#border_clip)" fill="#24f61a" fill-rule="evenodd" points="136.11440527107584,189.24507566607588 45.00974294685142,202.049000954402 79.47354954111518,116.74808633425755 136.11440527107584,189.24507566607582" stroke-width="0" /><polygon clip-path="url(#border_clip)" fill="#494c51" fill-rule="evenodd" points="663.5713352256398,990.468368552398 780.4483602066168,959.1512640949927 749.1312557492122,1076.02828907597 663.5713352256397,990.468368552398" stroke-width="0" /><polygon clip-path="url(#border_clip)" fill="#842849" fill-rule="evenodd" points="126.909614966976,193.02307459989646 243.80391269723702,271.86927398927133 117.07395216905479,333.6796056865316 126.90961496697594,193.02307459989652" stroke-width="0" /><polygon clip-path="url(#border_clip)" fill="#f876e4" fill-rule="evenodd" points="837.8812500761921,119.6977350239315 908.3605122192077,6.907338235126645 970.8002300697317,124.3393680853635 837.8812500761921,119.69773502393156" stroke-width="0" /><polygon clip-path="url(#border_clip)" fill="#74379e" fill-rule="evenodd" points="798.2229766177475,818.4862717962451 830.3838641372489,923.6797949521788 723.203157010873,898.9351789743541 798.2229766177473,818.4862717962451" stroke-width="0" /><polygon clip-path="url(#border_clip)" fill="#5de79d" fill-rule="evenodd" points="241.1193769711278,403.1446053729902 229.0604989036974,346.4120445304296 284.2217768488164,364.3350302041762 241.1193769711278,403.1446053729902" stroke-width="0" /><polygon clip-path="url(#border_clip)" fill="#59425c" fill-rule="evenodd" points="754.6875739914087,30.63912868751555 766.4306249642943,13.229339663859605 775.6364190468651,32.10401463614204 754.6875739914087,30.63912868751555" stroke-width="0" /><polygon clip-path="url(#border_clip)" fill="#f8c168" fill-rule="evenodd" points="618.9135572301751,268.04294962541917 758.7216920958151,260.715915751406 695.1630221322796,385.45682913777773 618.9135572301751,268.0429496254192" stroke-width="0" /><polygon clip-path="url(#border_clip)" fill="#a25b34" fill-rule="evenodd" points="377.51797516541467,172.04536873161686 414.5534295464369,229.0749673519053 346.64662118312606,232.63381237642602 377.51797516541467,172.04536873161686" stroke-width="0" /><polygon clip-path="url(#border_clip)" fill="#eda47d" fill-rule="evenodd" points="263.43702948266844,124.24914528138015 243.8136222473005,263.8769429739414 132.7041059887522,177.0686749530248 263.43702948266844,124.24914528138015" stroke-width="0" /><polygon clip-path="url(#border_clip)" fill="#16479c" fill-rule="evenodd" points="874.8900083867811,640.679018134178 925.1669694556557,778.8138333897057 780.4002297628613,753.2875512726685 874.8900083867811,640.6790181341779" stroke-width="0" /><polygon clip-path="url(#border_clip)" fill="#a37965" fill-rule="evenodd" points="87.39049823615215,568.1025150167659 111.3320354423879,569.7766703866247 97.9114057590902,589.6735721279458 87.39049823615215,568.102515016766" stroke-width="0" /><polygon clip-path="url(#border_clip)" fill="#a592be" fill-rule="evenodd" points="947.3640394738677,147.00958805546122 862.3625667604297,124.23351208644038 924.587963504845,62.0081153420237 947.3640394738677,147.00958805546122" stroke-width="0" /><polygon clip-path="url(#border_clip)" fill="#b12f25" fill-rule="evenodd" points="810.9970501804517,91.12182617426373 850.831361222638,57.69687047056334 859.8610664613188,108.90687362719791 810.9970501804517,91.12182617426379" stroke-width="0" /><polygon clip-path="url(#border_clip)" fill="#05111b" fill-rule="evenodd" points="783.0835209311177,829.729520282661 743.7498286224459,732.3752155531492 847.7279758403106,746.9883911539547 783.0835209311178,829.729520282661" stroke-width="0" /><polygon clip-path="url(#border_clip)" fill="#7c3998" fill-rule="evenodd" points="926.8909048262539,10.06085607981862 897.2642027706538,96.1030464593565 837.562831132517,27.42447465908532 926.8909048262537,10.060856079818564" stroke-width="0" /><polygon clip-path="url(#border_clip)" fill="#acc2f9" fill-rule="evenodd" points="393.97437766153325,626.0075816860113 360.72865799394725,583.455000991249 414.2031337059917,575.9396535394047 393.97437766153325,626.0075816860113" stroke-width="0" /><polygon clip-path="url(#border_clip)" fill="#86979b" fill-rule="evenodd" points="144.46440608595117,369.00774481204303 173.93299420499926,496.6502232989079 48.65707117384159,458.3495299802314 144.46440608595117,369.00774481204303" stroke-width="0" /><polygon clip-path="url(#border_clip)" fill="#6dd78e" fill-rule="evenodd" points="792.1347173532098,645.7471894093073 861.0787172339184,703.5980742810946 776.5063813631875,734.379887180406 792.1347173532097,645.7471894093073" stroke-width="0" /><polygon clip-path="url(#border_clip)" fill="#8d7c75" fill-rule="evenodd" points="378.03705896241763,279.58738029541223 465.51187329280384,254.50438091606395 443.4969807932357,342.8012920071796 378.03705896241763,279.5873802954123" stroke-width="0" /><polygon clip-path="url(#border_clip)" fill="#ed86b4" fill-rule="evenodd" points="984.073604637072,919.7226429132866 1031.5849474212143,1005.435374212946 933.5998732958884,1003.725038382094 984.073604637072,919.7226429132866" stroke-width="0" /><polygon clip-path="url(#border_clip)" fill="#fcd6f0" fill-rule="evenodd" points="261.2299001763961,534.2184919248075 217.97944727241907,561.2443744007015 216.1995729405906,510.275442222728 261.2299001763961,534.2184919248075" stroke-width="0" /><polygon clip-path="url(#border_clip)" fill="#e6ec6d" fill-rule="evenodd" points="724.9001031089298,228.40860755627926 770.4796447329289,96.03600697237471 862.3279087916015,201.69534820356046 724.9001031089298,228.40860755627932" stroke-width="0" /><polygon clip-path="url(#border_clip)" fill="#192db2" fill-rule="evenodd" points="584.6076766986879,355.142421978717 574.4821233107112,359.4404643920992 575.8226860881676,348.5224567240447 584.6076766986879,355.142421978717" stroke-width="0" /><polyline clip-path="url(#border_clip)" fill="none" points="780.2952493430065,800.3752931253498 906.4537573415753,524.2839599535251" stroke="#3ff46d" stroke-linecap="round" stroke-width="2" /><polyline clip-path="url(#border_clip)" fill="none" points="951.7399754758337,306.40918604276595 99.76067877977272,307.1444979517058" stroke="#e0051f" stroke-linecap="round" stroke-width="10" /><polyline clip-path="url(#border_clip)" fill="none" points="25.039302736344837,649.925372559982 997.9870295590198,467.08150047763104" stroke="#55d471" stroke-linecap="round" stroke-width="8" /><polyline clip-path="url(#border_clip)" fill="none" points="574.2027241434046,181.68945180285482 448.633270353115,460.93889040482287" stroke="#15b3e4" stroke-linecap="round" stroke-width="2" /><polyline clip-path="url(#border_clip)" fill="none" points="278.3459746934574,585.428725857058 891.2829493410613,303.4100158911596" stroke="#0d48fc" stroke-linecap="round" stroke-width="5" /><polyline clip-path="url(#border_clip)" fill="none" points="272.77332190216214,959.3995652160556 530.1641598355131,663.0053295425483" stroke="#128ac7" stroke-linecap="round" stroke-width="10" /><polyline clip-path="url(#border_clip)" fill="none" points="879.3122917954518,807.5703945880526 988.6860902658041,937.3513375446166" stroke="#671d5b" stroke-linecap="round" stroke-width="7" /><polyline clip-path="url(#border_clip)" fill="none" points="797.4998512720988,250.7593445937792 829.8916085442602,525.9535438320374" stroke="#4995ba" stroke-linecap="round" stroke-width="5" /><polyline clip-path="url(#border_clip)" fill="none" points="817.190268443904,220.57856966946684 707.3122385693207,850.6631537847045" stroke="#ee0850" stroke-linecap="round" stroke-width="6" /><polyline clip-path="url(#border_clip)" fill="none" points="424.0733180012954,676.0297432670377 995.7673728276268,670.0051447569092" stroke="#64a701" stroke-linecap="round" stroke-width="10" /><polyline clip-path="url(#border_clip)" fill="none" points="393.8320505592293,529.6599557128841 934.5339984884073,335.4249538742956" stroke="#f995ce" stroke-linecap="round" stroke-width="7" /><polyline clip-path="url(#border_clip)" fill="none" points="88.051658587097,336.6079414007513 269.1712456547422,320.30009319717226" stroke="#700c9b" stroke-linecap="round" stroke-width="7" /><polyline clip-path="url(#border_clip)" fill="none" points="125.06151962812766,750.1697175303276 203.3798346634245,399.2425713110484" stroke="#309f68" stroke-linecap="round" stroke-width="3" /><polyline clip-path="url(#border_clip)" fill="none" points="725.7896377026779,221.8382179511392 403.9221815502295,506.85562504798384" stroke="#a3c5c3" stroke-linecap="round" stroke-width="8" /><polyline clip-path="url(#border_clip)" fill="none" points="246.6465047453266,588.800545043671 91.61303388105495,797.1202356417074" stroke="#eff9e2" stroke-linecap="round" stroke-width="8" /><polyline clip-path="url(#border_clip)" fill="none" points="226.97340516866444,448.47888615036885 364.63845536423827,70.90881205870187" stroke="#87c39a" stroke-linecap="round" stroke-width="9" /><polyline clip-path="url(#border_clip)" fill="none" points="733.108824016132,619.9298963658275 329.5908293372937,368.17511168198286" stroke="#35d968" stroke-linecap="round" stroke-width="4" /><polyline clip-path="url(#border_clip)" fill="none" points="467.3552417872358,133.98694115207473 685.7125299059757,280.54721166611057" stroke="#11e156" stroke-linecap="round" stroke-width="5" /><polyline clip-path="url(#border_clip)" fill="none" points="74.79383273072756,399.0377770588533 999.9647764704353,253.06825468735312" stroke="#3501f7" stroke-linecap="round" stroke-width="4" /><polyline clip-path="url(#border_clip)" fill="none" points="56.83288074966737,948.718185046677 618.8522486383757,861.2501020999078" stroke="#df0f9b" stroke-linecap="round" stroke-width="9" /><polyline clip-path="url(#border_clip)" fill="none" points="902.4551470483602,614.0102513822845 717.8023582971155,941.7385781981208" stroke="#f3dee8" stroke-linecap="round" stroke-width="3" /><polyline clip-path="url(#border_clip)" fill="none" points="633.0636440777271,583.208513285106 490.13650983663507,296.9366672770964" stroke="#6e43b7" stroke-linecap="round" stroke-width="4" /><polyline clip-path="url(#border_clip)" fill="none" points="123.53872177968714,194.76198363937874 823.4494103412403,862.9813541803117" stroke="#4f4fec" stroke-linecap="round" stroke-width="4" /><polyline clip-path="url(#border_clip)" fill="none" points="547.7209220512457,528.0210889602397 202.29234321825265,778.4323917630924" stroke="#5eac84" stroke-linecap="round" stroke-width="2" /><polyline clip-path="url(#border_clip)" fill="none" points="992.6867414595241,484.32759113476084 681.3722004867894,951.3647478230582" stroke="#c90ba0" stroke-linecap="round" stroke-width="2" /></svg>