<?xml version="1.0" encoding="utf-8" ?>
<svg baseProfile="full" height="1000px" version="1.1" width="1000px" xmlns="http://www.w3.org/2000/svg" xmlns:ev="http://www.w3.org/2001/xml-events" xmlns:xlink="http://www.w3.org/1999/xlink"><defs><clipPath id="border_clip"><rect height="1000" width="1000" x="0" y="0" /></clipPath></defs><polyline clip-path="url(#border_clip)" fill="none" points="500.5,500.5 500.5,500.5 -9.5,-9.5" stroke="black" stroke-linecap="round" stroke-width="1" /><polygon clip-path="url(#border_clip)" fill="#e2147a" fill-rule="evenodd" points="-9.5,-9.5 1000.5,-9.5 1000.5,1000.5 -9.499999999999943,1000.5000000000001 -9.500000000000114,-9.499999999999886" stroke-width="0" /><polyline clip-path="url(#border_clip)" fill="none" points="-9.5,-9.5 1000.5,-9.5 1000.5,1000.5 -9.499999999999943,1000.5000000000001 -9.500000000000114,-9.499999999999886" stroke="black" stroke-linecap="round" stroke-width="1" /><polygon clip-path="url(#border_clip)" fill="#1bd33b" fill-rule="evenodd" points="193.34244643801827,382.99220113387594 221.20055976299386,526.3097699172349 83.1548477254936,478.7768193664901 193.34244643801821,382.99220113387594" stroke-width="0" /><polygon clip-path="url(#border_clip)" fill="#4bde06" fill-rule="evenodd" points="80.886164515281,304.3999376477333 6.04077528635321,317.59719915042 32.034306179103964,246.18055997069098 80.88616451528105,304.3999376477332" stroke-width="0" /><polygon clip-path="url(#border_clip)" fill="#3fd85c" fill-rule="evenodd" points="702.309326632788,172.33231708234416 666.3628925960838,246.0334288788759 620.5090745114825,178.0523479293626 702.309326632788,172.3323170823441" stroke-width="0" /><polygon clip-path="url(#border_clip)" fill="#e33b84" fill-rule="evenodd" points="294.2017681483328,863.1387770548929 371.2675828353949,780.4958087719265 404.30558546906445,888.5582461957492 294.20176814833286,863.1387770548929" stroke-width="0" /><polyline clip-path="url(#border_clip)" fill="none" points="795.2914235075282,465.54693111678176 820.3524918227012,661.9237908211726" stroke="#e19a19" stroke-linecap="round" stroke-width="6" /><polyline clip-path="url(#border_clip)" fill="none" points="821.1766737837562,584.3256666194575 597.5185508483441,281.8637962328535" stroke="#d69a8b" stroke-linecap="round" stroke-width="9" /><polyline clip-path="url(#border_clip)" fill="none" points="615.8778640225843,409.58144165916815 806.0382895557432,347.3520962517726" stroke="#0646d6" stroke-linecap="round" stroke-width="2" /><polyline clip-path="url(#border_clip)" fill="none" points="560.8291477900061,655.2886651293009 804.7989159377302,121.78576558822499" stroke="#a28d5c" stroke-linecap="round" stroke-width="5" /></svg>