<?xml version="1.0" encoding="utf-8" ?>
<svg baseProfile="full" height="1000px" version="1.1" width="1000px" xmlns="http://www.w3.org/2000/svg" xmlns:ev="http://www.w3.org/2001/xml-events" xmlns:xlink="http://www.w3.org/1999/xlink"><defs><clipPath id="border_clip"><rect height="1000" width="1000" x="0" y="0" /></clipPath></defs><polyline clip-path="url(#border_clip)" fill="none" points="500.5,500.5 500.5,500.5 -9.5,-9.5" stroke="black" stroke-linecap="round" stroke-width="1" /><polygon clip-path="url(#border_clip)" fill="#477f23" fill-rule="evenodd" points="-9.5,-9.5 1000.5,-9.5 1000.5,1000.5 -9.499999999999943,1000.5000000000001 -9.500000000000114,-9.499999999999886" stroke-width="0" /><polyline clip-path="url(#border_clip)" fill="none" points="-9.5,-9.5 1000.5,-9.5 1000.5,1000.5 -9.499999999999943,1000.5000000000001 -9.500000000000114,-9.499999999999886" stroke="black" stroke-linecap="round" stroke-width="1" /><polygon clip-path="url(#border_clip)" fill="#354413" fill-rule="evenodd" points="385.38983715256296,249.27642037426617 352.6340357488185,148.4644296469799 456.3176814266019,170.50306887366236 385.389837152563,249.2764203742662" stroke-width="0" /><polygon clip-path="url(#border_clip)" fill="#ae2a93" fill-rule="evenodd" points="665.2006378109648,262.74703285059456 706.1771969985144,294.7614295675288 657.9636365610415,314.24097242515626 665.2006378109648,262.74703285059456" stroke-width="0" /><polygon clip-path="url(#border_clip)" fill="#8092d9" fill-rule="evenodd" points="920.0638564527799,368.0582539500739 928.1540263965294,373.93610647299863 919.0185718201034,378.00347290375663 920.0638564527799,368.0582539500739" stroke-width="0" /><polygon clip-path="url(#border_clip)" fill="#c64e35" fill-rule="evenodd" points="317.826842116378,965.5268795510198 294.5124632726688,946.6472678195247 322.51987606758485,935.8962293331656 317.826842116378,965.5268795510196" stroke-width="0" /><polygon clip-path="url(#border_clip)" fill="#93759e" fill-rule="evenodd" points="889.3882532959835,510.6853433224667 1000.3196049876957,544.6004610703037 915.4825755998722,623.7122708375539 889.3882532959835,510.68534332246674" stroke-width="0" /><polygon clip-path="url(#border_clip)" fill="#732fc0" fill-rule="evenodd" points="194.74731256304403,302.3557111141324 194.43316924717283,284.3584526013174 210.17632397568195,293.0850257657514 194.74731256304398,302.3557111141324" stroke-width="0" /><polygon clip-path="url(#border_clip)" fill="#fb546d" fill-rule="evenodd" points="176.90406627627567,694.5058522543129 234.76278119134543,690.4599767771533 209.33725467757927,742.5900314625051 176.90406627627573,694.5058522543129" stroke-width="0" /><polygon clip-path="url(#border_clip)" fill="#8607ba" fill-rule="evenodd" points="561.6638673996397,451.5059321546847 627.0894371057175,548.503328143624 510.37444322531826,556.6648355716874 561.6638673996396,451.5059321546847" stroke-width="0" /><polygon clip-path="url(#border_clip)" fill="#604cc1" fill-rule="evenodd" points="893.6969042167389,586.8851923166163 951.4761967060599,591.9402253959802 918.2087633976996,639.4510439647418 893.6969042167389,586.8851923166164" stroke-width="0" /><polygon clip-path="url(#border_clip)" fill="#10f333" fill-rule="evenodd" points="912.8012739607675,195.2465028422406 860.4883865067379,267.2490153416112 824.2888252729912,185.94346961142014 912.8012739607674,195.2465028422406" stroke-width="0" /><polygon clip-path="url(#border_clip)" fill="#192b50" fill-rule="evenodd" points="853.57527681332,455.54537627510257 936.949153551191,465.7824011211343 886.3966916064196,532.8677839651072 853.57527681332,455.5453762751026" stroke-width="0" /><polygon clip-path="url(#border_clip)" fill="#4fa59b" fill-rule="evenodd" points="510.6205291858779,315.56845442946826 451.8787955161427,436.00685663355694 376.94694645106176,324.91582191118226 510.6205291858779,315.56845442946826" stroke-width="0" /><polygon clip-path="url(#border_clip)" fill="#172574" fill-rule="evenodd" points="601.2487663974919,813.225109577267 690.066929527083,771.8085199266777 681.5256667378135,869.4356003396686 601.2487663974919,813.225109577267" stroke-width="0" /><polygon clip-path="url(#border_clip)" fill="#8bf348" fill-rule="evenodd" points="915.6976645354542,274.1005356897708 943.0488435297027,209.6651959480999 985.1758951503466,265.56968165140984 915.6976645354542,274.1005356897708" stroke-width="0" /><polygon clip-path="url(#border_clip)" fill="#1b7360" fill-rule="evenodd" points="918.1346764134323,571.6279834264897 819.1751512047296,609.6149860782924 835.7572044989929,504.92002197520793 918.1346764134323,571.6279834264895" stroke-width="0" /><polygon clip-path="url(#border_clip)" fill="#5fb522" fill-rule="evenodd" points="136.47661286752947,125.13502539065996 195.15340469425752,131.3022047234508 160.47407480900227,179.03420739157303 136.47661286752947,125.13502539066002" stroke-width="0" /><polygon clip-path="url(#border_clip)" fill="#411889" fill-rule="evenodd" points="478.8053220086218,821.2107815027406 537.3206406434155,857.7752107348308 476.3972567361501,890.1687485670581 478.8053220086217,821.2107815027406" stroke-width="0" /><polygon clip-path="url(#border_clip)" fill="#2e2e1b" fill-rule="evenodd" points="887.7963501488944,154.50198229131888 946.6173659305184,245.07840362942363 838.7653761770248,250.73068690366304 887.7963501488944,154.50198229131894" stroke-width="0" /><polygon clip-path="url(#border_clip)" fill="#5b7add" fill-rule="evenodd" points="843.1131790333297,741.8803879627666 875.530713043687,871.9000152837493 746.7216457879521,834.9646096042734 843.1131790333296,741.8803879627667" stroke-width="0" /><polygon clip-path="url(#border_clip)" fill="#e3697d" fill-rule="evenodd" points="62.456109407192514,668.2768569379897 44.04452124205187,706.0262068825549 20.55841929628008,671.2066288352436 62.456109407192514,668.2768569379897" stroke-width="0" /><polygon clip-path="url(#border_clip)" fill="#545732" fill-rule="evenodd" points="203.23411042051424,313.4378452070308 296.57220553713967,406.77594032365323 169.0699964669837,440.9400542771879 203.23411042051418,313.4378452070308" stroke-width="0" /><polygon clip-path="url(#border_clip)" fill="#297395" fill-rule="evenodd" points="350.76345636475185,159.05627552323193 382.9373229757493,186.05335513006594 343.47023290274154,200.41820114974468 350.76345636475185,159.056275523232" stroke-width="0" /><polygon clip-path="url(#border_clip)" fill="#1fc27c" fill-rule="evenodd" points="146.99873417040726,15.43887988063824 51.19296513267898,0.2647367717376028 112.23704306451162,-75.11842148958942 146.99873417040726,15.438879880638126" stroke-width="0" /><polyline clip-path="url(#border_clip)" fill="none" points="906.7266527321381,526.928126975941 906.7266527321381,526.928126975941" stroke="#564004" stroke-linecap="round" stroke-width="75" /><polyline clip-path="url(#border_clip)" fill="none" points="589.5927090550241,415.95777310404105 589.5927090550241,415.95777310404105" stroke="#2eb05a" stroke-linecap="round" stroke-width="67" /><polyline clip-path="url(#border_clip)" fill="none" points="693.5748486823958,135.37423630954578 693.5748486823958,135.37423630954578" stroke="#9fad4d" stroke-linecap="round" stroke-width="52" /><polyline clip-path="url(#border_clip)" fill="none" points="998.9778559187073,225.01214746559214 998.9778559187073,225.01214746559214" stroke="#9724ea" stroke-linecap="round" stroke-width="31" /><polyline clip-path="url(#border_clip)" fill="none" points="988.1529708676208,317.41762172608173 988.1529708676208,317.41762172608173" stroke="#75b44c" stroke-linecap="round" stroke-width="46" /><polyline clip-path="url(#border_clip)" fill="none" points="969.4717122576001,189.91112434307416 969.4717122576001,189.91112434307416" stroke="#7f91a7" stroke-linecap="round" stroke-width="14" /><polyline clip-path="url(#border_clip)" fill="none" points="165.14120862627152,560.8737247000867 165.14120862627152,560.8737247000867" stroke="#207888" stroke-linecap="round" stroke-width="64" /><polyline clip-path="url(#border_clip)" fill="none" points="971.2586918109288,155.33426727616126 971.2586918109288,155.33426727616126" stroke="#2e70c3" stroke-linecap="round" stroke-width="35" /><polyline clip-path="url(#border_clip)" fill="none" points="402.6711251011295,579.1155557498295 402.6711251011295,579.1155557498295" stroke="#93ce53" stroke-linecap="round" stroke-width="53" /><polyline clip-path="url(#border_clip)" fill="none" points="565.4700636311546,167.67458249863495 565.4700636311546,167.67458249863495" stroke="#b476c9" stroke-linecap="round" stroke-width="58" /><polyline clip-path="url(#border_clip)" fill="none" points="756.2446281189103,185.98429603871955 756.2446281189103,185.98429603871955" stroke="#5e28ec" stroke-linecap="round" stroke-width="20" /><polyline clip-path="url(#border_clip)" fill="none" points="869.9484487398175,312.95039774934446 869.9484487398175,312.95039774934446" stroke="#559396" stroke-linecap="round" stroke-width="70" /><polyline clip-path="url(#border_clip)" fill="none" points="178.93110930535278,10.597918939775298 178.93110930535278,10.597918939775298" stroke="#bd1695" stroke-linecap="round" stroke-width="51" /><polyline clip-path="url(#border_clip)" fill="none" points="292.00088464139446,753.454004654421 292.00088464139446,753.454004654421" stroke="#89a8ed" stroke-linecap="round" stroke-width="6" /><polyline clip-path="url(#border_clip)" fill="none" points="352.54592878962706,380.29590222571494 352.54592878962706,380.29590222571494" stroke="#61b69c" stroke-linecap="round" stroke-width="37" /><polyline clip-path="url(#border_clip)" fill="none" points="224.4185992725328,639.2749430239454 224.4185992725328,639.2749430239454" stroke="#509924" stroke-linecap="round" stroke-width="15" /><polyline clip-path="url(#border_clip)" fill="none" points="888.0689179192846,270.95836632272244 888.0689179192846,270.95836632272244" stroke="#d03a0f" stroke-linecap="round" stroke-width="48" /><polyline clip-path="url(#border_clip)" fill="none" points="708.7621128843507,480.96581849044725 708.7621128843507,480.96581849044725" stroke="#d786c0" stroke-linecap="round" stroke-width="59" /><polyline clip-path="url(#border_clip)" fill="none" points="852.220212847504,794.920137660319 852.220212847504,794.920137660319" stroke="#6991b1" stroke-linecap="round" stroke-width="3" /><polyline clip-path="url(#border_clip)" fill="none" points="203.64144942335668,51.55915916973515 203.64144942335668,51.55915916973515" stroke="#17c20c" stroke-linecap="round" stroke-width="39" /><polyline clip-path="url(#border_clip)" fill="none" points="965.9204591613538,180.19144924357607 965.9204591613538,180.19144924357607" stroke="#30aaf0" stroke-linecap="round" stroke-width="14" /><polyline clip-path="url(#border_clip)" fill="none" points="868.9026134856007,37.01788140470336 868.9026134856007,37.01788140470336" stroke="#895840" stroke-linecap="round" stroke-width="68" /><polyline clip-path="url(#border_clip)" fill="none" points="453.4591168002311,306.6427000876189 453.4591168002311,306.6427000876189" stroke="#2649c7" stroke-linecap="round" stroke-width="59" /></svg>