<?xml version="1.0" encoding="utf-8" ?>
<svg baseProfile="full" height="1000px" version="1.1" width="1000px" xmlns="http://www.w3.org/2000/svg" xmlns:ev="http://www.w3.org/2001/xml-events" xmlns:xlink="http://www.w3.org/1999/xlink"><defs><clipPath id="border_clip"><rect height="1000" width="1000" x="0" y="0" /></clipPath></defs><polyline clip-path="url(#border_clip)" fill="none" points="500.5,500.5 500.5,500.5 -9.5,-9.5" stroke="black" stroke-linecap="round" stroke-width="1" /><polygon clip-path="url(#border_clip)" fill="#0f74d9" fill-rule="evenodd" points="-9.5,-9.5 1000.5,-9.5 1000.5,1000.5 -9.499999999999943,1000.5000000000001 -9.500000000000114,-9.499999999999886" stroke-width="0" /><polyline clip-path="url(#border_clip)" fill="none" points="-9.5,-9.5 1000.5,-9.5 1000.5,1000.5 -9.499999999999943,1000.5000000000001 -9.500000000000114,-9.499999999999886" stroke="black" stroke-linecap="round" stroke-width="1" /><polygon clip-path="url(#border_clip)" fill="#3755ae" fill-rule="evenodd" points="299.05387829859455,839.801822403731 219.59613000256235,784.1649080776796 307.5079853451174,743.1709366888317 299.0538782985946,839.801822403731" stroke-width="0" /><polygon clip-path="url(#border_clip)" fill="#c9c7bc" fill-rule="evenodd" points="128.9297833392322,137.03094752665538 139.55496742841194,139.8779570227831 131.7767928353599,147.65613161583514 128.9297833392322,137.03094752665538" stroke-width="0" /><polygon clip-path="url(#border_clip)" fill="#bd250e" fill-rule="evenodd" points="393.0517609839203,9.392071616448447 406.6463777894701,15.731345542558927 394.35909712513524,24.334992087824617 393.0517609839203,9.392071616448447" stroke-width="0" /><polygon clip-path="url(#border_clip)" fill="#098f2a" fill-rule="evenodd" points="965.688367520863,984.6417238843732 1059.330669141487,992.8343637026528 1005.414484124489,1069.8346558658181 965.688367520863,984.6417238843732" stroke-width="0" /><polygon clip-path="url(#border_clip)" fill="#301733" fill-rule="evenodd" points="79.72396675696717,471.82333843985316 67.78970401254787,470.5689968806414 74.84312704005748,460.86079294814203 79.72396675696712,471.82333843985316" stroke-width="0" /><polygon clip-path="url(#border_clip)" fill="#796e7a" fill-rule="evenodd" points="937.0678515851342,679.6905189156946 837.4604337818279,643.4363837231742 918.6611447524392,575.3008970964007 937.0678515851343,679.6905189156946" stroke-width="0" /><polygon clip-path="url(#border_clip)" fill="#59a9c2" fill-rule="evenodd" points="719.6117565414252,667.738395666139 666.0214029782373,680.1107036550519 682.1018467379876,627.513942077085 719.6117565414252,667.738395666139" stroke-width="0" /><polygon clip-path="url(#border_clip)" fill="#3ca3e5" fill-rule="evenodd" points="974.4281433570641,807.5952870428031 1068.1460094414415,778.9428599799744 1046.1008061157431,874.4311263289273 974.4281433570642,807.5952870428031" stroke-width="0" /><polygon clip-path="url(#border_clip)" fill="#5503c0" fill-rule="evenodd" points="615.2985499911596,780.5235632379796 628.58230842232,672.3360327090755 715.6335790174752,737.9338702326481 615.2985499911596,780.5235632379796" stroke-width="0" /><polygon clip-path="url(#border_clip)" fill="#5cc41c" fill-rule="evenodd" points="900.5257714859436,407.84564104626537 864.8564235097705,524.5148212737557 781.6526235821452,435.28966967621767 900.5257714859436,407.8456410462653" stroke-width="0" /><polygon clip-path="url(#border_clip)" fill="#406e0b" fill-rule="evenodd" points="960.2406701441819,136.78468922917727 1032.5382561761553,37.27559892105842 1082.5668632744794,149.64169021109774 960.2406701441819,136.78468922917733" stroke-width="0" /><polygon clip-path="url(#border_clip)" fill="#4f5a9a" fill-rule="evenodd" points="82.48845349888808,356.23799479912645 23.50950631008112,397.5354982164022 17.23429283224914,325.8094799537967 82.48845349888802,356.23799479912645" stroke-width="0" /><polygon clip-path="url(#border_clip)" fill="#962a45" fill-rule="evenodd" points="691.267845080683,536.4809873405609 556.8261861684995,590.7989433858692 577.0062858077076,447.21007341834166 691.2678450806828,536.4809873405609" stroke-width="0" /><polygon clip-path="url(#border_clip)" fill="#d5d7e1" fill-rule="evenodd" points="823.2605636908336,359.5720186118783 912.1257397094273,335.76066646244567 888.3143875599964,424.62584248103997 823.2605636908336,359.5720186118784" stroke-width="0" /><polygon clip-path="url(#border_clip)" fill="#798c08" fill-rule="evenodd" points="797.1205519123923,158.95191254365653 881.8835208268487,113.8826425162103 878.5331691434096,209.82416191004324 797.1205519123923,158.9519125436566" stroke-width="0" /><polygon clip-path="url(#border_clip)" fill="#182458" fill-rule="evenodd" points="373.05814522896446,586.9625439596397 473.9197282391762,592.248475540176 418.91118570265957,676.9542029026641 373.05814522896446,586.9625439596398" stroke-width="0" /><polygon clip-path="url(#border_clip)" fill="#ea5b63" fill-rule="evenodd" points="92.73077263576607,302.321871378263 159.90124026746264,255.2886035974765 167.04801117277162,336.97656884099933 92.73077263576613,302.32187137826304" stroke-width="0" /><polygon clip-path="url(#border_clip)" fill="#1308d3" fill-rule="evenodd" points="482.81771310384664,308.83986215375387 403.3781300477751,203.4199748275126 534.394222064429,187.33322149803138 482.8177131038467,308.83986215375387" stroke-width="0" /><polygon clip-path="url(#border_clip)" fill="#b81a2f" fill-rule="evenodd" points="768.9985665826499,744.2727224331429 851.2128190537535,789.8448267362974 770.639092787756,838.2584057778434 768.99856658265,744.272722433143" stroke-width="0" /><polygon clip-path="url(#border_clip)" fill="#449f4d" fill-rule="evenodd" points="93.01566936944897,408.11549808351697 -24.39821014290885,484.3649629856223 -31.72524401692317,344.5568281199825 93.01566936944891,408.11549808351685" stroke-width="0" /><polygon clip-path="url(#border_clip)" fill="#a1e921" fill-rule="evenodd" points="284.8265696607881,88.0448654220404 270.0506942529727,106.95712350860191 261.0601360109904,84.70471099899925 284.82656966078804,88.0448654220404" stroke-width="0" /><polygon clip-path="url(#border_clip)" fill="#0d05c9" fill-rule="evenodd" points="954.6695749075053,845.7691617923675 890.6673874763026,976.9930925520466 809.0252235695716,855.9536069590125 954.6695749075053,845.7691617923675" stroke-width="0" /><polygon clip-path="url(#border_clip)" fill="#2d0cce" fill-rule="evenodd" points="545.0477453253577,109.02767721299006 516.488320488004,114.06347436533156 526.4069046444478,86.8123883625401 545.0477453253577,109.02767721299" stroke-width="0" /><polygon clip-path="url(#border_clip)" fill="#f88ba2" fill-rule="evenodd" points="561.1520565470267,218.13483660195584 552.0878593012683,114.53058800041492 646.3438691530804,158.4828872214456 561.1520565470269,218.13483660195584" stroke-width="0" /><polygon clip-path="url(#border_clip)" fill="#0372e4" fill-rule="evenodd" points="1000.0958600631059,260.28025694221094 994.9316728724609,250.56783342076292 1005.9249719696709,250.9517278844902 1000.0958600631059,260.28025694221094" stroke-width="0" /><polygon clip-path="url(#border_clip)" fill="#0dd76e" fill-rule="evenodd" points="721.9355260121631,524.1979184991918 706.9124360030153,552.4522414706777 689.9550195475522,525.3147023936725 721.9355260121631,524.1979184991918" stroke-width="0" /><polygon clip-path="url(#border_clip)" fill="#bbe707" fill-rule="evenodd" points="851.0667667276725,858.7014247196847 775.3837000781456,877.5713325764605 796.8834138318696,802.5929202932714 851.0667667276725,858.7014247196846" stroke-width="0" /><polygon clip-path="url(#border_clip)" fill="#52b82a" fill-rule="evenodd" points="531.8298422923942,97.09291777501744 544.8104162563293,102.33741008283988 533.7782657058355,110.95667073739935 531.8298422923942,97.0929177750175" stroke-width="0" /><polygon clip-path="url(#border_clip)" fill="#ef1944" fill-rule="evenodd" points="251.11252673437252,968.8536990566886 242.29574794998518,956.7184441410648 257.21357638050915,955.1505171920496 251.11252673437255,968.8536990566886" stroke-width="0" /><polygon clip-path="url(#border_clip)" fill="#2994eb" fill-rule="evenodd" points="764.7501576890851,161.93823675685974 796.3260811915894,44.095285949593176 882.5931084963499,130.36231325434932 764.7501576890851,161.93823675685974" stroke-width="0" /><polygon clip-path="url(#border_clip)" fill="#cbbb28" fill-rule="evenodd" points="419.61611012040476,764.3610362388756 455.6678025174585,772.6842252495976 430.43386319514684,799.7443122095075 419.6161101204047,764.3610362388756" stroke-width="0" /><polygon clip-path="url(#border_clip)" fill="#1e9a1c" fill-rule="evenodd" points="682.6630761674194,644.6877704093015 716.1964642877748,629.0508947248948 712.9717018061125,665.9100985542893 682.6630761674194,644.6877704093015" stroke-width="0" /><polygon clip-path="url(#border_clip)" fill="#31d6cb" fill-rule="evenodd" points="140.9360413166268,475.8010878804811 95.24215119243826,426.8003898719983 160.52494553304825,411.7286692309575 140.93604131662687,475.8010878804811" stroke-width="0" /><polygon clip-path="url(#border_clip)" fill="#bc879f" fill-rule="evenodd" points="68.11114952318013,463.9097343327724 41.618331251545214,475.70509698197134 44.64965668630629,446.8639620162915 68.11114952318013,463.9097343327724" stroke-width="0" /><polygon clip-path="url(#border_clip)" fill="#a20394" fill-rule="evenodd" points="331.33107293595833,328.13791129096296 317.8724825906289,378.3660542579946 281.1029299689275,341.59650163629556 331.33107293595833,328.13791129096296" stroke-width="0" /><polygon clip-path="url(#border_clip)" fill="#8c6e4a" fill-rule="evenodd" points="824.1459677747207,969.9700645105424 724.3532370656226,919.1231285397166 818.2843406755076,858.123556618031 824.1459677747207,969.9700645105423" stroke-width="0" /><polygon clip-path="url(#border_clip)" fill="#d29798" fill-rule="evenodd" points="538.5910564670235,572.6310753613665 488.6556655816539,662.7169051967252 435.60674386591586,574.4286732244099 538.5910564670235,572.6310753613664" stroke-width="0" /><polygon clip-path="url(#border_clip)" fill="#8fed2b" fill-rule="evenodd" points="806.0262992950069,148.15660145723893 775.882858012925,17.591012776019284 904.0276953119721,56.768821208861596 806.026299295007,148.156601457239" stroke-width="0" /><polygon clip-path="url(#border_clip)" fill="#e4fd70" fill-rule="evenodd" points="734.8584240424309,603.9312879019285 709.0381956314288,596.0372518744155 728.7847455751457,577.6232961527274 734.8584240424309,603.9312879019285" stroke-width="0" /><polygon clip-path="url(#border_clip)" fill="#18a2af" fill-rule="evenodd" points="964.1641905863985,366.22072127750073 896.5493827461648,384.3380544346794 914.6667159033389,316.7232465944445 964.1641905863985,366.22072127750073" stroke-width="0" /><polygon clip-path="url(#border_clip)" fill="#4a60fc" fill-rule="evenodd" points="193.28697973386295,310.01160418839675 198.06821078211038,446.9281474900117 77.104390560436,382.6105433883494 193.2869797338629,310.01160418839675" stroke-width="0" /><polygon clip-path="url(#border_clip)" fill="#bb2ca4" fill-rule="evenodd" points="524.0428556009217,176.7256145979344 465.6915524823642,116.30107136949027 547.1963934895466,95.97963213911538 524.0428556009217,176.7256145979344" stroke-width="0" /><polygon clip-path="url(#border_clip)" fill="#67d463" fill-rule="evenodd" points="73.6519113431628,929.8627160076745 176.4010085199236,922.6777992120259 131.24878040065244,1015.2535859808411 73.6519113431628,929.8627160076746" stroke-width="0" /><polygon clip-path="url(#border_clip)" fill="#c77683" fill-rule="evenodd" points="119.45513024960877,619.2790616973829 172.41485228699128,689.5589865815421 85.07079094255602,700.2834888011982 119.45513024960877,619.2790616973829" stroke-width="0" /><polygon clip-path="url(#border_clip)" fill="#0c9acb" fill-rule="evenodd" points="447.32643491853213,757.290368995047 438.4096704112412,813.5886044089697 394.11235060819286,777.717342119131 447.32643491853213,757.290368995047" stroke-width="0" /><polygon clip-path="url(#border_clip)" fill="#c54b15" fill-rule="evenodd" points="898.9745798709282,220.290965138846 901.8776426181237,208.64741642353403 910.5097202221878,216.98331686904157 898.9745798709282,220.290965138846" stroke-width="0" /><polygon clip-path="url(#border_clip)" fill="#b953de" fill-rule="evenodd" points="742.1599760467161,289.9511172195866 808.4993695854632,338.1495079075663 733.5886420587718,371.5019126397847 742.1599760467161,289.9511172195866" stroke-width="0" /><polygon clip-path="url(#border_clip)" fill="#d079c5" fill-rule="evenodd" points="985.4227155780809,980.5754187672421 1113.9978106833935,903.3197075307294 1116.6156716489922,1053.2968618041866 985.4227155780809,980.5754187672421" stroke-width="0" /><polygon clip-path="url(#border_clip)" fill="#379d37" fill-rule="evenodd" points="203.2755476593539,80.86981220465742 244.10766634169215,181.93285235243468 136.16844684886132,166.76298434779216 203.2755476593539,80.86981220465736" stroke-width="0" /><polygon clip-path="url(#border_clip)" fill="#d4ea2c" fill-rule="evenodd" points="302.48973577950994,257.9166867409461 199.2603270570337,338.56834000861096 181.02865083125982,208.8432230034672 302.48973577950994,257.9166867409461" stroke-width="0" /><polygon clip-path="url(#border_clip)" fill="#b7b981" fill-rule="evenodd" points="593.0918747157689,46.134100572000364 578.5200306038334,54.889747845471845 578.223339694399,37.89233702781337 593.0918747157689,46.134100572000364" stroke-width="0" /><polygon clip-path="url(#border_clip)" fill="#bc9095" fill-rule="evenodd" points="934.8030665721255,271.81291146479265 927.9669321452055,369.5741883902548 846.7212500348098,314.77328385012567 934.8030665721255,271.8129114647926" stroke-width="0" /><polygon clip-path="url(#border_clip)" fill="#103cb3" fill-rule="evenodd" points="559.780444271944,154.958199318803 624.967874751223,165.28287401145525 583.4327289419364,216.57450746761668 559.780444271944,154.958199318803" stroke-width="0" /><polygon clip-path="url(#border_clip)" fill="#2830e4" fill-rule="evenodd" points="731.4791116918906,376.2233371792218 742.1166553146292,443.38614433969 678.6331863128189,419.0171237706127 731.4791116918905,376.2233371792218" stroke-width="0" /><polygon clip-path="url(#border_clip)" fill="#3616da" fill-rule="evenodd" points="781.8168690007511,880.3816457592413 719.5914722563327,818.1562490148286 804.5929449697688,795.3801730458031 781.8168690007512,880.3816457592413" stroke-width="0" /><polygon clip-path="url(#border_clip)" fill="#b74c5a" fill-rule="evenodd" points="252.59980787738118,360.7312630336254 313.1173188837822,411.5114841988586 238.8816018416975,438.53107552158974 252.59980787738115,360.7312630336254" stroke-width="0" /><polygon clip-path="url(#border_clip)" fill="#93acea" fill-rule="evenodd" points="166.57574045394932,266.14936225388925 226.36602698609778,400.44054452734736 80.17130836696231,385.0748604270095 166.57574045394927,266.14936225388925" stroke-width="0" /><polygon clip-path="url(#border_clip)" fill="#7eee42" fill-rule="evenodd" points="402.98767892468936,761.4243050128341 384.8951757998748,632.6894560764321 505.4290768935583,681.3883132204942 402.9876789246895,761.4243050128341" stroke-width="0" /><polygon clip-path="url(#border_clip)" fill="#ddafc5" fill-rule="evenodd" points="174.4527874356727,559.4512267108515 211.79600449555966,545.1165087290378 205.53862589395243,584.6240423528432 174.4527874356727,559.4512267108515" stroke-width="0" /><polygon clip-path="url(#border_clip)" fill="#dd39f6" fill-rule="evenodd" points="806.5550455770339,626.5310420300307 790.6159304075661,627.925533913994 797.3778225954165,613.4246093214074 806.5550455770339,626.5310420300307" stroke-width="0" /><polygon clip-path="url(#border_clip)" fill="#b6ce19" fill-rule="evenodd" points="332.495060483118,988.420371728431 403.02929075820913,891.3383324034347 451.8376879273102,1000.9637873205431 332.49506048311804,988.4203717284311" stroke-width="0" /><polygon clip-path="url(#border_clip)" fill="#edb2d4" fill-rule="evenodd" points="609.9359613295709,21.09164995991705 549.2381072840058,-43.99882948418531 635.9570430498898,-64.01947332079362 609.9359613295709,21.091649959916992" stroke-width="0" /><polygon clip-path="url(#border_clip)" fill="#9f7e82" fill-rule="evenodd" points="206.88797718087466,876.9601509178951 240.80309492870595,766.0287992261824 319.9149046959594,850.8658286140011 206.8879771808747,876.9601509178951" stroke-width="0" /><polygon clip-path="url(#border_clip)" fill="#976374" fill-rule="evenodd" points="386.30385365750624,403.0646207855751 416.6722459939208,271.52466203956817 515.4049957125126,363.59444064799925 386.30385365750635,403.06462078557513" stroke-width="0" /><polygon clip-path="url(#border_clip)" fill="#4e5f54" fill-rule="evenodd" points="344.6540359258157,271.0098798256976 247.78040690325457,174.13625080314688 380.1122451048535,138.67804162409482 344.6540359258158,271.00987982569757" stroke-width="0" /><polygon clip-path="url(#border_clip)" fill="#0b73d8" fill-rule="evenodd" points="898.1312145507927,71.61146592146633 961.3200126429813,-22.069779777255803 1010.855952230152,79.49394745454617 898.1312145507927,71.61146592146628" stroke-width="0" /><polygon clip-path="url(#border_clip)" fill="#c035b4" fill-rule="evenodd" points="598.2065687318052,405.49466513227753 566.7892461622951,457.78187047510755 537.2158593272659,404.43006833960663 598.2065687318052,405.49466513227753" stroke-width="0" /><polygon clip-path="url(#border_clip)" fill="#87a820" fill-rule="evenodd" points="878.2392923848281,612.5233278638807 962.3449680710362,690.9531392710624 852.3699211352903,724.5758853141829 878.2392923848281,612.5233278638807" stroke-width="0" /><polygon clip-path="url(#border_clip)" fill="#8e1ec5" fill-rule="evenodd" points="766.728024535815,294.91742836529227 839.6835549082084,297.4650916245706 800.9994486191883,359.37260264399123 766.728024535815,294.91742836529227" stroke-width="0" /><polygon clip-path="url(#border_clip)" fill="#6bb937" fill-rule="evenodd" points="811.0512179661678,274.9278321354606 816.1307226365275,262.9612690405787 823.9543179375046,273.343530671193 811.0512179661678,274.9278321354607" stroke-width="0" /><polyline clip-path="url(#border_clip)" fill="none" points="944.3896315567981,230.54877461960348 892.5034877849243,286.8318936274427" stroke="#ac27ba" stroke-linecap="round" stroke-width="9" /><polyline clip-path="url(#border_clip)" fill="none" points="701.8845494899508,153.6711557318598 690.3177991396608,446.9830495421767" stroke="#31edfb" stroke-linecap="round" stroke-width="7" /><polyline clip-path="url(#border_clip)" fill="none" points="410.64514176962155,173.3311114199226 770.8272847464574,490.4855935903132" stroke="#5df261" stroke-linecap="round" stroke-width="2" /><polyline clip-path="url(#border_clip)" fill="none" points="896.9221610106727,294.97827445712824 383.48209055613233,156.1159768030613" stroke="#9f98bd" stroke-linecap="round" stroke-width="7" /><polyline clip-path="url(#border_clip)" fill="none" points="465.3664277792769,820.9505720463034 863.6099831235103,878.6973888651112" stroke="#bb5e77" stroke-linecap="round" stroke-width="5" /><polyline clip-path="url(#border_clip)" fill="none" points="911.261632822375,342.5530195586922 645.6637679521643,174.05352087139255" stroke="#d53bdd" stroke-linecap="round" stroke-width="8" /><polyline clip-path="url(#border_clip)" fill="none" points="288.4175365235002,648.1828478004049 953.6251984643316,82.00974072653992" stroke="#e4c4a2" stroke-linecap="round" stroke-width="7" /><polyline clip-path="url(#border_clip)" fill="none" points="183.39809772408893,223.61012096602656 934.086879390256,849.4822303822498" stroke="#b7d584" stroke-linecap="round" stroke-width="4" /><polyline clip-path="url(#border_clip)" fill="none" points="487.53659428585433,334.6707352273573 858.2102810833767,765.6924741240518" stroke="#b6d02d" stroke-linecap="round" stroke-width="2" /><polyline clip-path="url(#border_clip)" fill="none" points="464.95629849239566,426.4185776454332 346.1373210870589,379.8817619472971" stroke="#9b49fd" stroke-linecap="round" stroke-width="2" /><polyline clip-path="url(#border_clip)" fill="none" points="182.42938049531415,909.6649519243341 810.5126419841644,787.9632844700247" stroke="#1867b8" stroke-linecap="round" stroke-width="7" /><polyline clip-path="url(#border_clip)" fill="none" points="676.8599457258391,598.3858328141775 693.5416344346147,519.1991538606411" stroke="#ae3660" stroke-linecap="round" stroke-width="8" /><polyline clip-path="url(#border_clip)" fill="none" points="758.9310783253181,382.6715754443137 510.1030381711392,108.35254928870847" stroke="#5a63f2" stroke-linecap="round" stroke-width="9" /><polyline clip-path="url(#border_clip)" fill="none" points="612.043623200404,386.5870089957591 233.05788572711356,759.329819973497" stroke="#4a8a1b" stroke-linecap="round" stroke-width="5" /><polyline clip-path="url(#border_clip)" fill="none" points="37.20685257530846,116.30878528950711 728.2869229317276,315.21087551277265" stroke="#c99004" stroke-linecap="round" stroke-width="4" /><polyline clip-path="url(#border_clip)" fill="none" points="920.0967126804313,966.1777379139203 424.10774441778716,224.35028470508007" stroke="#73ca72" stroke-linecap="round" stroke-width="6" /><polyline clip-path="url(#border_clip)" fill="none" points="872.9145128047709,716.2352327132762 140.05640101461984,354.41855300162257" stroke="#2ca84d" stroke-linecap="round" stroke-width="2" /><polyline clip-path="url(#border_clip)" fill="none" points="838.4270308080486,897.5768952659903 132.3892939062174,965.7633972775755" stroke="#da6c7d" stroke-linecap="round" stroke-width="7" /><polyline clip-path="url(#border_clip)" fill="none" points="473.925962394045,940.1399618105108 221.38885405705463,420.6647560953271" stroke="#caeb1f" stroke-linecap="round" stroke-width="7" /><polyline clip-path="url(#border_clip)" fill="none" points="894.7842067353885,937.5292088865065 283.0053803300227,639.2200307487503" stroke="#81d103" stroke-linecap="round" stroke-width="5" /><polyline clip-path="url(#border_clip)" fill="none" points="783.8417600149749,490.33516766246385 448.82791369070026,658.110137273083" stroke="#41e668" stroke-linecap="round" stroke-width="5" /><polyline clip-path="url(#border_clip)" fill="none" points="760.4206901127377,635.9648129670628 87.01170352135995,736.9475047499593" stroke="#ee0e5a" stroke-linecap="round" stroke-width="10" /><polyline clip-path="url(#border_clip)" fill="none" points="821.6327713350743,736.8362470983525 342.86093350252986,480.77352843175106" stroke="#57e630" stroke-linecap="round" stroke-width="10" /><polyline clip-path="url(#border_clip)" fill="none" points="227.3967366791249,550.0883819802514 299.5511617055728,712.189703015565" stroke="#1c40be" stroke-linecap="round" stroke-width="3" /><polyline clip-path="url(#border_clip)" fill="none" points="379.706524679884,758.0185327961697 893.8375544219842,168.36460989440798" stroke="#09a345" stroke-linecap="round" stroke-width="4" /><polyline clip-path="url(#border_clip)" fill="none" points="86.74658999064894,211.207476057586 610.2158870816231,255.95468551762994" stroke="#dd6b2a" stroke-linecap="round" stroke-width="10" /><polyline clip-path="url(#border_clip)" fill="none" points="204.14214087486067,505.2689454104024 562.5361463806274,77.5406107385021" stroke="#20c131" stroke-linecap="round" stroke-width="6" /><polyline clip-path="url(#border_clip)" fill="none" points="740.9471248698972,438.7526819324003 534.7900296956368,469.5918228911466" stroke="#370a10" stroke-linecap="round" stroke-width="4" /><polyline clip-path="url(#border_clip)" fill="none" points="508.05303901189683,847.4942415071641 633.1159177993453,466.0846142947555" stroke="#61d200" stroke-linecap="round" stroke-width="4" /><polyline clip-path="url(#border_clip)" fill="none" points="483.5545825306092,75.00246295925058 990.6880161586311,292.28617091829585" stroke="#939b25" stroke-linecap="round" stroke-width="3" /><polyline clip-path="url(#border_clip)" fill="none" points="833.3859482879377,390.4079918244671 363.0673406902051,660.319518667118" stroke="#6ee722" stroke-linecap="round" stroke-width="7" /><polyline clip-path="url(#border_clip)" fill="none" points="747.7610118519743,22.05627183115962 804.0411850547005,6.284966376722309" stroke="#ecb117" stroke-linecap="round" stroke-width="10" /><polyline clip-path="url(#border_clip)" fill="none" points="846.4271404844302,701.7868691005705 431.88272802864884,189.06529415264777" stroke="#a5104d" stroke-linecap="round" stroke-width="9" /><polyline clip-path="url(#border_clip)" fill="none" points="464.6547024220464,763.3745220377089 252.5127469297735,408.50870508563304" stroke="#38c48c" stroke-linecap="round" stroke-width="7" /><polyline clip-path="url(#border_clip)" fill="none" points="835.8035292154864,730.9134404625997 200.20537007230638,652.5974683032218" stroke="#b302d3" stroke-linecap="round" stroke-width="8" /><polyline clip-path="url(#border_clip)" fill="none" points="994.5552373307831,311.2876341741406 287.5945802946089,596.5131075870205" stroke="#1d1c1c" stroke-linecap="round" stroke-width="6" /><polyline clip-path="url(#border_clip)" fill="none" points="746.6208035990069,745.6673618738671 511.9274542525686,879.518663919415" stroke="#480aab" stroke-linecap="round" stroke-width="8" /><polyline clip-path="url(#border_clip)" fill="none" points="528.43704099629,639.4330184689737 853.678038699275,650.979823742176" stroke="#2e64cd" stroke-linecap="round" stroke-width="9" /><polyline clip-path="url(#border_clip)" fill="none" points="203.2490492067854,123.336207054831 27.996653481952535,242.35463194839474" stroke="#01d4d9" stroke-linecap="round" stroke-width="9" /><polyline clip-path="url(#border_clip)" fill="none" points="880.2658280324249,154.309779718016 436.52645961205735,431.08993864842546" stroke="#da2671" stroke-linecap="round" stroke-width="7" /><polyline clip-path="url(#border_clip)" fill="none" points="906.5144504119448,548.74639140287 986.92657487004,956.4323129411457" stroke="#19d666" stroke-linecap="round" stroke-width="4" /><polyline clip-path="url(#border_clip)" fill="none" points="461.7901220613391,846.8493660244301 228.3247272384897,61.90798541442916" stroke="#9710cd" stroke-linecap="round" stroke-width="5" /><polyline clip-path="url(#border_clip)" fill="none" points="724.5465170382288,148.43342754638883 660.1608480739333,543.892099535314" stroke="#fc30f1" stroke-linecap="round" stroke-width="2" /><polyline clip-path="url(#border_clip)" fill="none" points="643.3266908571882,882.8415065952394 617.7765415712233,336.64852403585184" stroke="#f2c555" stroke-linecap="round" stroke-width="10" /><polyline clip-path="url(#border_clip)" fill="none" points="373.2558889763086,772.1077020601759 311.5765325725671,718.5803784961263" stroke="#d1d43c" stroke-linecap="round" stroke-width="8" /><polyline clip-path="url(#border_clip)" fill="none" points="89.8585481149799,526.088036574381 313.4937908092161,310.41937798011656" stroke="#19bb07" stroke-linecap="round" stroke-width="7" /><polyline clip-path="url(#border_clip)" fill="none" points="296.1754933653833,933.8939235612704 469.2881852544348,909.7203307484867" stroke="#688414" stroke-linecap="round" stroke-width="5" /><polyline clip-path="url(#border_clip)" fill="none" points="258.5978047248358,811.0003828081908 258.31438459427363,319.99365153193173" stroke="#b9a64d" stroke-linecap="round" stroke-width="4" /><polyline clip-path="url(#border_clip)" fill="none" points="951.6155384506569,672.3040182747654 696.9879639252388,378.3985407957244" stroke="#bf0958" stroke-linecap="round" stroke-width="8" /><polyline clip-path="url(#border_clip)" fill="none" points="374.6988774224515,341.30651970273993 155.671051729724,956.4711825175557" stroke="#6e0413" stroke-linecap="round" stroke-width="4" /><polyline clip-path="url(#border_clip)" fill="none" points="443.74966885991967,100.66685881342312 526.8922014035832,555.1837186011087" stroke="#30f3bd" stroke-linecap="round" stroke-width="6" /><polyline clip-path="url(#border_clip)" fill="none" points="847.0491356428887,595.6429286247524 897.5971046212319,843.4799368566845" stroke="#116bf5" stroke-linecap="round" stroke-width="3" /><polyline clip-path="url(#border_clip)" fill="none" points="639.0512010145886,693.6106675632882 509.81102536427977,974.8187643288179" stroke="#998255" stroke-linecap="round" stroke-width="7" /><polyline clip-path="url(#border_clip)" fill="none" points="525.31099143052,464.051166154968 140.49331682985053,79.60150079713463" stroke="#eec9b2" stroke-linecap="round" stroke-width="2" /><polyline clip-path="url(#border_clip)" fill="none" points="734.1747004797425,562.1676341449305 854.228909858431,726.3225775739498" stroke="#35e86f" stroke-linecap="round" stroke-width="8" /><polyline clip-path="url(#border_clip)" fill="none" points="93.99721737525243,631.5623437310235 109.51191112219976,505.8309861407708" stroke="#294e91" stroke-linecap="round" stroke-width="10" /><polyline clip-path="url(#border_clip)" fill="none" points="876.3009251512119,399.8596442648163 598.6078874122045,680.7083081274031" stroke="#f3f38d" stroke-linecap="round" stroke-width="4" /><polyline clip-path="url(#border_clip)" fill="none" points="654.6112328271636,940.1294844420147 867.7209615244709,82.18439035586448" stroke="#ed3627" stroke-linecap="round" stroke-width="5" /><polyline clip-path="url(#border_clip)" fill="none" points="928.0598527501165,289.4663014951926 616.4946478660968,2.8627670931051057" stroke="#870aac" stroke-linecap="round" stroke-width="5" /><polyline clip-path="url(#border_clip)" fill="none" points="964.16209176612,828.9216355209371 318.8076331287947,259.6242662981139" stroke="#d8405a" stroke-linecap="round" stroke-width="3" /><polyline clip-path="url(#border_clip)" fill="none" points="562.7803453474803,551.2777816997897 976.497212856947,152.01919545597946" stroke="#1377d5" stroke-linecap="round" stroke-width="4" /><polyline clip-path="url(#border_clip)" fill="none" points="144.13286459304345,849.1350070100552 815.5332913959907,462.4533471676771" stroke="#f54a33" stroke-linecap="round" stroke-width="2" /><polyline clip-path="url(#border_clip)" fill="none" points="627.0906403085788,720.2915976994386 388.04541994428104,214.04931170126235" stroke="#712415" stroke-linecap="round" stroke-width="10" /><polyline clip-path="url(#border_clip)" fill="none" points="110.09016949766453,169.03177881650817 865.5207114189845,444.05452424737797" stroke="#84eaa7" stroke-linecap="round" stroke-width="6" /><polyline clip-path="url(#border_clip)" fill="none" points="153.6449966413104,16.181405371074106 277.577778617573,149.07243360104042" stroke="#b10de0" stroke-linecap="round" stroke-width="6" /><polyline clip-path="url(#border_clip)" fill="none" points="482.9028457435996,35.036978803123475 168.58715269149366,238.5102023469192" stroke="#18a445" stroke-linecap="round" stroke-width="7" /><polyline clip-path="url(#border_clip)" fill="none" points="834.314010017843,809.3706043190246 156.21879632203746,838.8496720193134" stroke="#fac7ed" stroke-linecap="round" stroke-width="2" /><polyline clip-path="url(#border_clip)" fill="none" points="715.7416129707747,504.53723052036054 485.76202201376157,836.4168903276177" stroke="#363086" stroke-linecap="round" stroke-width="2" /><polyline clip-path="url(#border_clip)" fill="none" points="408.5703492494442,354.2185240666553 319.27311733255266,902.1562350231402" stroke="#011d84" stroke-linecap="round" stroke-width="6" /><polyline clip-path="url(#border_clip)" fill="none" points="520.8994640786268,412.6499694432489 121.46972719824805,844.8460937234624" stroke="#430f90" stroke-linecap="round" stroke-width="9" /></svg>